<?xml version="1.0" standalone="no"?><!DOCTYPE svg PUBLIC "-//W3C//DTD SVG 1.1//EN" "http://www.w3.org/Graphics/SVG/1.1/DTD/svg11.dtd"><svg t="1575907428490" class="icon" viewBox="0 0 1024 1024" version="1.1" xmlns="http://www.w3.org/2000/svg" p-id="2043" xmlns:xlink="http://www.w3.org/1999/xlink" width="200" height="200"><defs><style type="text/css"></style></defs><path d="M701.514927 1024H96.905366c-52.84839 0-95.906341-43.057951-95.906342-95.906341V96.905366C0.999024 44.056976 44.056976 0.999024 96.905366 0.999024h604.609561c52.84839 0 95.906341 43.057951 95.906341 95.906342v94.707512c0 17.682732-14.286049 31.96878-31.96878 31.968781s-31.96878-14.286049-31.968781-31.968781V96.905366c0-17.582829-14.385951-31.96878-31.96878-31.968781H96.905366c-17.582829 0-31.96878 14.385951-31.968781 31.968781v831.188293c0 17.582829 14.385951 31.96878 31.968781 31.96878h604.609561c17.582829 0 31.96878-14.385951 31.96878-31.96878v-97.105171c0-17.682732 14.286049-31.96878 31.968781-31.968781s31.96878 14.286049 31.96878 31.968781V928.093659c0 52.84839-42.958049 95.906341-95.906341 95.906341z" p-id="2044"></path><path d="M988.035122 543.669073H382.926049c-17.682732 0-31.96878-14.286049-31.968781-31.96878s14.286049-31.96878 31.968781-31.968781H988.035122c17.682732 0 31.96878 14.286049 31.96878 31.968781s-14.286049 31.96878-31.96878 31.96878z" p-id="2045"></path><path d="M894.326634 671.34439c-6.793366 0-13.686634-2.197854-19.480975-6.693463-13.986341-10.789463-16.583805-30.869854-5.794342-44.856195l81.92-106.196293-82.31961-111.191415c-10.489756-14.186146-7.492683-34.166634 6.693464-44.756292 14.186146-10.489756 34.166634-7.492683 44.756292 6.693463l96.705561 130.67239c8.491707 11.48878 8.391805 27.273366-0.399609 38.562342l-96.705561 125.277658c-6.293854 8.192-15.784585 12.487805-25.37522 12.487805z" p-id="2046"></path></svg>