<?xml version="1.0" encoding="UTF-8" standalone="no"?>
<!-- Created with Inkscape (http://www.inkscape.org/) -->

<svg
   xmlns:dc="http://purl.org/dc/elements/1.1/"
   xmlns:cc="http://creativecommons.org/ns#"
   xmlns:rdf="http://www.w3.org/1999/02/22-rdf-syntax-ns#"
   xmlns:svg="http://www.w3.org/2000/svg"
   xmlns="http://www.w3.org/2000/svg"
   xmlns:sodipodi="http://sodipodi.sourceforge.net/DTD/sodipodi-0.dtd"
   xmlns:inkscape="http://www.inkscape.org/namespaces/inkscape"
   width="210mm"
   height="297mm"
   viewBox="0 0 210 297"
   version="1.1"
   id="svg8"
   inkscape:version="0.92.4 (5da689c313, 2019-01-14)"
   sodipodi:docname="heat.svg">
  <defs
     id="defs2">
    <style
       id="style3713"
       type="text/css" />
  </defs>
  <sodipodi:namedview
     id="base"
     pagecolor="#ffffff"
     bordercolor="#666666"
     borderopacity="1.0"
     inkscape:pageopacity="0.0"
     inkscape:pageshadow="2"
     inkscape:zoom="3.959798"
     inkscape:cx="383.50047"
     inkscape:cy="567.70944"
     inkscape:document-units="mm"
     inkscape:current-layer="g3805"
     showgrid="false"
     inkscape:window-width="1920"
     inkscape:window-height="1017"
     inkscape:window-x="-8"
     inkscape:window-y="1072"
     inkscape:window-maximized="1" />
  <metadata
     id="metadata5">
    <rdf:RDF>
      <cc:Work
         rdf:about="">
        <dc:format>image/svg+xml</dc:format>
        <dc:type
           rdf:resource="http://purl.org/dc/dcmitype/StillImage" />
        <dc:title></dc:title>
      </cc:Work>
    </rdf:RDF>
  </metadata>
  <g
     inkscape:label="Layer 1"
     inkscape:groupmode="layer"
     id="layer1">
    <g
       id="g3805"
       transform="matrix(0.05167643,0,0,0.05167643,74.839261,127.66667)">
      <path
         id="path3769"
         p-id="11490"
         d="M 256.95956,667.94588 236.7795,654.75891 c 0.29971,-0.3996 28.37196,-41.85863 40.06041,-98.40275 15.3848,-74.22664 -3.49654,-138.46315 -56.04461,-190.71152 -32.56781,-32.46791 -51.84876,-72.02881 -57.34333,-117.68369 -4.29575,-35.96446 0,-75.72517 12.68746,-117.9834 C 197.6182,58.747941 235.28098,5.100959 236.8794,2.80323 l 19.98026,13.486671 -9.99013,-6.793286 9.99013,6.693385 c -0.39961,0.499506 -37.36308,53.147475 -57.64304,120.88054 -26.47383,88.51252 -13.48667,159.74213 38.8616,211.89059 32.26811,32.06831 53.34728,69.03178 62.63809,109.69159 7.3927,32.36801 7.2928,67.13366 -0.2997,103.19801 -12.68746,60.83988 -42.15834,104.19703 -43.45705,106.09515 z m 276.42681,0 -20.18005,-13.18697 c 0.2997,-0.3996 28.37196,-41.85863 40.0604,-98.40275 15.3848,-74.22664 -3.49654,-138.46315 -56.04461,-190.71152 -32.56781,-32.46791 -51.84876,-72.02881 -57.34333,-117.68369 -4.29575,-35.96446 0,-75.72517 12.68746,-117.9834 C 474.04502,58.648039 511.8077,5.001058 513.40612,2.80323 l 19.98025,13.486671 -9.99013,-6.793286 9.99013,6.693385 c -0.3996,0.499506 -37.36307,53.147475 -57.64303,120.88054 -26.47384,88.51252 -13.48667,159.74213 38.86159,211.89059 32.26811,32.06831 53.34728,69.03178 62.6381,109.69159 7.39269,32.36801 7.29279,67.13366 -0.29971,103.19801 -12.78736,60.83988 -42.25823,104.19703 -43.55695,106.09515 z m 270.13303,0 -20.18005,-13.18697 c 0.2997,-0.3996 28.37196,-41.85863 40.06041,-98.40275 15.38479,-74.22664 -3.49655,-138.46315 -56.04462,-190.71152 -32.56781,-32.46791 -51.84875,-72.02881 -57.34332,-117.68369 -4.29576,-35.96446 0,-75.72517 12.68746,-117.9834 C 744.17805,58.747941 781.84083,5.100959 783.43925,2.80323 L 803.4195,16.289901 793.42938,9.496615 803.4195,16.19 c -0.3996,0.499506 -37.36307,53.147475 -57.64303,120.88054 -26.47384,88.51252 -13.48667,159.74213 38.86159,211.89059 32.26811,32.06831 53.34728,69.03178 62.6381,109.69159 7.39269,32.36801 7.29279,67.13366 -0.2997,103.19801 -12.78737,60.83988 -42.25824,104.19703 -43.45706,106.09515 z M 0.513,824.59107 h 1022.989 v 23.6766 H 0.513 Z m 0,175.02703 h 1022.989 v 23.6766 H 0.513 Z"
         inkscape:connector-curvature="0"
         style="fill:#020202" />
    </g>
  </g>
</svg>
