<?xml version="1.0" standalone="no"?><!DOCTYPE svg PUBLIC "-//W3C//DTD SVG 1.1//EN" "http://www.w3.org/Graphics/SVG/1.1/DTD/svg11.dtd"><svg t="1575924465411" class="icon" viewBox="0 0 1024 1024" version="1.1" xmlns="http://www.w3.org/2000/svg" p-id="9307" xmlns:xlink="http://www.w3.org/1999/xlink" width="200" height="200"><defs><style type="text/css"></style></defs><path d="M631.86049 513.102899H918.973968A408.024092 408.024092 0 0 1 715.565819 866.461215l-143.569867-249.173014a120.306718 120.306718 0 0 0 59.864538-104.185302z m-179.856179 104.159046L308.434444 866.461215A408.024092 408.024092 0 0 1 105.026294 513.102899h286.982196c0 44.530815 24.208379 83.363996 59.995821 104.159046z m59.99582-190.096166a85.72707 85.72707 0 0 0-85.674557 85.93712 85.72707 85.72707 0 0 0 85.674557 85.884608 85.72707 85.72707 0 0 0 85.674557-85.884608A85.72707 85.72707 0 0 0 512.000131 427.192035zM512.000131 105.026294c74.095495 0 143.674893 19.876077 203.565688 54.692033l-143.569867 249.173013a119.125181 119.125181 0 0 0-59.995821-16.121415c-21.819049 0-42.299023 5.855172-59.99582 16.147672l-143.569867-249.19927A403.718047 403.718047 0 0 1 512.000131 105.026294z" p-id="9308"></path><path d="M837.579201 186.421062a459.171514 459.171514 0 0 0-325.57907-134.826494c-127.080863 0-242.293843 51.59378-325.579069 134.85275A459.171514 459.171514 0 0 0 51.620824 512.000131c0 127.080863 51.59378 242.293843 134.85275 325.57907A459.171514 459.171514 0 0 0 512.000131 972.379438c127.080863 0 242.293843-51.59378 325.57907-134.85275A459.171514 459.171514 0 0 0 972.379438 512.000131c0-127.080863-51.59378-242.293843-134.85275-325.579069zM512.000131 0.000788a510.476474 510.476474 0 0 1 362.049177 149.950166A510.712781 510.712781 0 0 1 1023.999475 512.000131a510.476474 510.476474 0 0 1-149.950167 362.049177A510.476474 510.476474 0 0 1 512.000131 1023.999475a510.476474 510.476474 0 0 1-362.049177-149.950167A509.898833 509.898833 0 0 1 0.000788 512.000131 510.476474 510.476474 0 0 1 149.950954 149.950954 509.898833 509.898833 0 0 1 512.000131 0.000788z" p-id="9309"></path></svg>