solid maxz
 facet normal  0.000000e+00  0.000000e+00  1.000000e+00
   outer loop
     vertex  1.000000e+00  1.000000e+00  1.000000e+00
     vertex  0.000000e+00  1.000000e+00  1.000000e+00
     vertex  0.000000e+00  0.000000e+00  1.000000e+00
   endloop
 endfacet
 facet normal -0.000000e+00  0.000000e+00  1.000000e+00
   outer loop
     vertex  1.000000e+00  1.000000e+00  1.000000e+00
     vertex  0.000000e+00  0.000000e+00  1.000000e+00
     vertex  1.000000e+00  0.000000e+00  1.000000e+00
   endloop
 endfacet
endsolid maxz
solid maxy
 facet normal  0.000000e+00  1.000000e+00  0.000000e+00
   outer loop
     vertex  1.000000e+00  1.000000e+00  1.000000e+00
     vertex  1.000000e+00  1.000000e+00  0.000000e+00
     vertex  0.000000e+00  1.000000e+00  0.000000e+00
   endloop
 endfacet
 facet normal  0.000000e+00  1.000000e+00 -0.000000e+00
   outer loop
     vertex  1.000000e+00  1.000000e+00  1.000000e+00
     vertex  0.000000e+00  1.000000e+00  0.000000e+00
     vertex  0.000000e+00  1.000000e+00  1.000000e+00
   endloop
 endfacet
endsolid maxy
solid maxx
 facet normal  1.000000e+00 -0.000000e+00  0.000000e+00
   outer loop
     vertex  1.000000e+00  0.000000e+00  1.000000e+00
     vertex  1.000000e+00  1.000000e+00  0.000000e+00
     vertex  1.000000e+00  1.000000e+00  1.000000e+00
   endloop
 endfacet
 facet normal  1.000000e+00 -0.000000e+00  0.000000e+00
   outer loop
     vertex  1.000000e+00  0.000000e+00  1.000000e+00
     vertex  1.000000e+00  0.000000e+00  0.000000e+00
     vertex  1.000000e+00  1.000000e+00  0.000000e+00
   endloop
 endfacet
endsolid maxx
solid minz
 facet normal  0.000000e+00  0.000000e+00 -1.000000e+00
   outer loop
     vertex  0.000000e+00  0.000000e+00  0.000000e+00
     vertex  0.000000e+00  1.000000e+00  0.000000e+00
     vertex  1.000000e+00  1.000000e+00  0.000000e+00
   endloop
 endfacet
 facet normal  0.000000e+00  0.000000e+00 -1.000000e+00
   outer loop
     vertex  1.000000e+00  0.000000e+00  0.000000e+00
     vertex  0.000000e+00  0.000000e+00  0.000000e+00
     vertex  1.000000e+00  1.000000e+00  0.000000e+00
   endloop
 endfacet
endsolid minz
solid miny
 facet normal  0.000000e+00 -1.000000e+00  0.000000e+00
   outer loop
     vertex  0.000000e+00  0.000000e+00  0.000000e+00
     vertex  1.000000e+00  0.000000e+00  0.000000e+00
     vertex  1.000000e+00  0.000000e+00  1.000000e+00
   endloop
 endfacet
 facet normal  0.000000e+00 -1.000000e+00  0.000000e+00
   outer loop
     vertex  0.000000e+00  0.000000e+00  1.000000e+00
     vertex  0.000000e+00  0.000000e+00  0.000000e+00
     vertex  1.000000e+00  0.000000e+00  1.000000e+00
   endloop
 endfacet
endsolid miny
solid minx
 facet normal -1.000000e+00 -0.000000e+00 -0.000000e+00
   outer loop
     vertex  0.000000e+00  1.000000e+00  1.000000e+00
     vertex  0.000000e+00  1.000000e+00  0.000000e+00
     vertex  0.000000e+00  0.000000e+00  1.000000e+00
   endloop
 endfacet
 facet normal -1.000000e+00  0.000000e+00  0.000000e+00
   outer loop
     vertex  0.000000e+00  1.000000e+00  0.000000e+00
     vertex  0.000000e+00  0.000000e+00  0.000000e+00
     vertex  0.000000e+00  0.000000e+00  1.000000e+00
   endloop
 endfacet
endsolid minx
