<?xml version="1.0" encoding="UTF-8" standalone="no"?>
<!-- Created with Inkscape (http://www.inkscape.org/) -->

<svg
        xmlns:dc="http://purl.org/dc/elements/1.1/"
        xmlns:cc="http://creativecommons.org/ns#"
        xmlns:rdf="http://www.w3.org/1999/02/22-rdf-syntax-ns#"
        xmlns:sodipodi="http://sodipodi.sourceforge.net/DTD/sodipodi-0.dtd"
        xmlns:inkscape="http://www.inkscape.org/namespaces/inkscape"
        xmlns="http://www.w3.org/2000/svg"
        version="1.1"
        id="svg815"
        width="500"
        height="500"
        viewBox="0 0 500 500"
        sodipodi:docname="air-flow.svg"
        inkscape:version="0.92.4 (5da689c313, 2019-01-14)">
  <metadata
     id="metadata821">
    <rdf:RDF>
      <cc:Work
         rdf:about="">
        <dc:format>image/svg+xml</dc:format>
        <dc:type
           rdf:resource="http://purl.org/dc/dcmitype/StillImage" />
        <dc:title></dc:title>
      </cc:Work>
    </rdf:RDF>
  </metadata>
  <defs
     id="defs819">
    <inkscape:path-effect
       effect="spiro"
       id="path-effect4573"
       is_visible="true" />
    <inkscape:path-effect
       effect="spiro"
       id="path-effect4569"
       is_visible="true" />
    <inkscape:path-effect
       effect="spiro"
       id="path-effect4565"
       is_visible="true" />
    <inkscape:path-effect
       effect="spiro"
       id="path-effect4561"
       is_visible="true" />
    <inkscape:path-effect
       effect="spiro"
       id="path-effect4557"
       is_visible="true" />
    <inkscape:path-effect
       effect="spiro"
       id="path-effect4553"
       is_visible="true" />
    <inkscape:path-effect
       effect="spiro"
       id="path-effect4549"
       is_visible="true" />
    <inkscape:path-effect
       effect="spiro"
       id="path-effect4545"
       is_visible="true" />
    <inkscape:path-effect
       effect="spiro"
       id="path-effect4541"
       is_visible="true" />
    <inkscape:path-effect
       effect="spiro"
       id="path-effect4537"
       is_visible="true" />
  </defs>
  <sodipodi:namedview
     pagecolor="#ffffff"
     bordercolor="#666666"
     borderopacity="1"
     objecttolerance="10"
     gridtolerance="10"
     guidetolerance="10"
     inkscape:pageopacity="0"
     inkscape:pageshadow="2"
     inkscape:window-width="1920"
     inkscape:window-height="1017"
     id="namedview817"
     showgrid="false"
     inkscape:zoom="0.828125"
     inkscape:cx="306.92063"
     inkscape:cy="242.50729"
     inkscape:window-x="-8"
     inkscape:window-y="-8"
     inkscape:window-maximized="1"
     inkscape:current-layer="svg815" />
  <path
     style="opacity:1;fill:#000000;fill-opacity:1;stroke:none;stroke-width:7.43257999;stroke-miterlimit:4;stroke-dasharray:none;stroke-opacity:1"
     d="m 425.12068,324.32595 c -0.18363,-0.34991 -1.35494,-0.81845 -2.60289,-1.04119 -6.01104,-1.0729 -12.02394,-2.36734 -12.84002,-2.76416 -0.49835,-0.24231 -1.85748,-0.59877 -3.02028,-0.79211 -8.14362,-1.35405 -11.93933,-2.12121 -12.98726,-2.62489 -1.28952,-0.61982 -2.81267,-0.95264 -9.96695,-2.17785 -2.49175,-0.42674 -5.00245,-1.06403 -5.57934,-1.4162 -0.5769,-0.35219 -1.7189,-0.64033 -2.53777,-0.64033 -0.81889,0 -3.05429,-0.48017 -4.96759,-1.06703 -1.91327,-0.58685 -4.49285,-1.06702 -5.73236,-1.06702 -1.23952,0 -2.39996,-0.27874 -2.57876,-0.61942 -0.17879,-0.34068 -1.62193,-0.82244 -3.20696,-1.07058 -4.47268,-0.70024 -11.84404,-2.27648 -12.84882,-2.74754 -0.49835,-0.23362 -1.9934,-0.61978 -3.32233,-0.85812 -5.2372,-0.93927 -11.52301,-2.29384 -12.38318,-2.66851 -0.49835,-0.21707 -2.94479,-0.79505 -5.43653,-1.28437 -6.67441,-1.31073 -9.15037,-1.85133 -22.9542,-5.01179 -1.49504,-0.3423 -5.02879,-1.12757 -7.85275,-1.74503 -2.82397,-0.61746 -6.35772,-1.42465 -7.85276,-1.79373 -1.49505,-0.3691 -4.93987,-1.07683 -7.65518,-1.57272 -2.7153,-0.49591 -5.13909,-1.14172 -5.38618,-1.43516 -0.2471,-0.29344 -1.49496,-0.53351 -2.77303,-0.53351 -1.27805,0 -2.79575,-0.30994 -3.37265,-0.68877 -0.9273,-0.6089 -3.14901,-1.075 -12.526,-2.62787 -1.32893,-0.22007 -2.68806,-0.64869 -3.0203,-0.95248 -0.33222,-0.30379 -2.64275,-0.78349 -5.13449,-1.066 -2.49174,-0.28251 -4.80226,-0.76221 -5.13449,-1.066 -0.33224,-0.3038 -1.69137,-0.73679 -3.0203,-0.96221 -5.26688,-0.89341 -12.12928,-2.3513 -12.98725,-2.7591 -0.49834,-0.23687 -1.99338,-0.62569 -3.3223,-0.86402 -5.5107,-0.98833 -11.53581,-2.30136 -12.3832,-2.69862 -0.49835,-0.23363 -1.9934,-0.6198 -3.32232,-0.85813 -5.59419,-1.0033 -11.53922,-2.30364 -12.3832,-2.70854 -0.49834,-0.23908 -1.85747,-0.5911 -3.02027,-0.78228 -4.05736,-0.66709 -17.1238,-3.54361 -21.14205,-4.65434 -1.49504,-0.41327 -3.60538,-0.75921 -4.68964,-0.76878 -1.08426,-0.01 -2.44339,-0.3047 -3.0203,-0.65587 -1.16203,-0.70734 -11.26967,-2.91827 -13.34138,-2.91827 -0.72337,0 -1.78722,-0.28629 -2.36412,-0.63618 -1.0225,-0.62019 -7.67535,-2.07957 -12.52601,-2.74775 -1.32893,-0.18306 -2.68806,-0.58497 -3.02029,-0.89312 -0.33223,-0.30816 -2.71463,-0.79035 -5.29423,-1.07155 -2.57958,-0.28121 -4.8382,-0.79333 -5.01913,-1.13807 -0.18093,-0.34476 -1.24826,-0.62681 -2.37186,-0.62681 -1.1236,0 -2.1892,-0.27878 -2.36801,-0.61947 -0.17881,-0.34071 -1.12311,-0.80742 -2.09845,-1.03715 -2.22506,-0.52404 -7.72156,-4.656 -9.76319,-7.3394 -2.35916,-3.10072 -4.798176,-7.182 -4.798176,-8.02891 0,-0.41735 -0.208015,-0.75881 -0.462279,-0.75881 -0.536673,0 -2.558014,-6.39915 -2.558014,-8.09815 0,-0.63217 -0.271828,-1.14939 -0.604056,-1.14939 -0.36898,0 -0.604058,-3.30564 -0.604058,-8.49421 0,-4.89549 0.25592,-8.68048 0.604058,-8.93385 0.332228,-0.2418 0.604056,-1.04403 0.604056,-1.78272 0,-3.57584 5.125899,-12.15628 10.408789,-17.42371 1.96195,-1.95621 4.16973,-4.19697 4.90616,-4.97945 0.73645,-0.78248 3.36815,-3.02324 5.84825,-4.97945 2.4801,-1.9562 4.64539,-3.71679 4.81175,-3.91241 0.16637,-0.19562 1.25367,-0.95856 2.41624,-1.69542 7.2503,-4.59536 9.84755,-6.06375 11.46591,-6.48233 1.00261,-0.25932 1.82291,-0.76616 1.82291,-1.12632 0,-0.36015 0.41142,-0.65482 0.91428,-0.65482 0.50286,0 1.38629,-0.30134 1.96319,-0.66966 0.5769,-0.3683 2.67987,-1.2211 4.67326,-1.8951 1.99339,-0.67399 3.89617,-1.45352 4.22839,-1.73228 0.33225,-0.27878 2.23503,-0.73726 4.22842,-1.01887 1.99339,-0.2816 3.89617,-0.75788 4.22841,-1.05841 1.59616,-1.44382 19.6714,-2.74323 28.05032,-2.01651 8.53207,0.74001 12.95025,1.38441 13.62968,1.98792 0.33223,0.29511 2.16277,0.75852 4.06787,1.02979 1.9051,0.27129 3.62006,0.79095 3.81101,1.1548 0.19096,0.36387 1.14664,0.66157 2.12373,0.66157 0.97709,0 1.77653,0.28448 1.77653,0.63218 0,0.34771 0.98484,0.84975 2.18857,1.11568 1.20371,0.26593 2.63079,0.75481 3.1713,1.0864 0.54051,0.33157 2.07003,1.13161 3.39896,1.7778 4.28018,2.08133 4.79667,2.33788 7.03796,3.49593 1.21302,0.62675 2.64011,1.13955 3.17131,1.13955 0.5312,0 0.96683,0.24007 0.96807,0.53351 9e-4,0.29343 1.29242,1.12794 2.86927,1.85446 1.57687,0.72652 4.01932,1.92691 5.42768,2.66756 1.40837,0.74063 2.7675,1.35379 3.02029,1.36256 0.2528,0.008 2.09058,0.96191 4.08397,2.1181 1.99339,1.15619 4.10005,2.10934 4.68146,2.11811 0.58141,0.008 1.0571,0.30134 1.0571,0.65018 0,0.34882 0.68952,0.83803 1.53227,1.0871 0.84275,0.24909 3.29599,1.40417 5.45165,2.56685 2.15566,1.16267 4.06339,2.11395 4.23942,2.11395 0.17603,0 1.5963,0.6577 3.15618,1.46154 1.55988,0.80384 3.37978,1.72134 4.04425,2.03888 1.62883,0.77837 3.56259,1.76238 7.71964,3.9282 1.92017,1.00041 3.68705,1.82026 3.92638,1.82191 0.23933,0.001 1.73234,0.77802 3.31779,1.7253 1.58545,0.94729 3.69211,1.9317 4.68145,2.1876 0.98934,0.25588 1.7988,0.75993 1.7988,1.12008 0,0.36016 0.37667,0.65484 0.83704,0.65484 0.46036,0 1.61563,0.47818 2.56725,1.06263 0.95161,0.58446 2.2059,1.06461 2.78731,1.06703 0.5814,0.002 1.05709,0.32449 1.05709,0.71572 0,0.39126 0.41144,0.71136 0.91428,0.71136 0.50287,0 1.3863,0.30459 1.9632,0.67688 0.5769,0.3723 2.06826,1.17256 3.31412,1.77837 3.20321,1.5576 6.54222,3.20371 8.3058,4.09473 0.83059,0.41963 2.32563,1.17403 3.32232,1.67645 0.99669,0.50244 3.3826,1.73799 5.30203,2.74568 1.91941,1.00769 3.70336,1.83217 3.96433,1.83217 0.26098,0 1.88317,0.80028 3.60487,1.77837 1.72171,0.97811 3.53946,1.77838 4.03943,1.77838 0.49998,0 0.90905,0.28278 0.90905,0.62843 0,0.34563 0.61161,0.79334 1.35913,0.99492 1.87229,0.50491 5.52252,2.19487 5.88958,2.72671 0.16611,0.2407 0.98159,0.68493 1.81216,0.98718 0.83058,0.30225 3.00519,1.32397 4.83246,2.27048 3.40126,1.76182 3.97342,2.04984 8.15479,4.10512 1.32893,0.65322 3.0958,1.53101 3.92638,1.95064 0.83058,0.41963 2.32562,1.17367 3.32231,1.67564 0.99671,0.50199 3.33431,1.73753 5.1947,2.74568 1.8604,1.00813 3.64916,1.83298 3.97502,1.83298 0.32588,0 1.92975,0.79894 3.56414,1.77539 1.63441,0.97647 3.44736,1.77675 4.02876,1.77838 0.58141,0.001 1.0571,0.32308 1.0571,0.71433 0,0.39124 0.37667,0.71134 0.83703,0.71134 0.46038,0 1.61565,0.4782 2.56725,1.06264 0.95162,0.58446 2.20591,1.06462 2.78731,1.06703 0.58141,0.002 1.0571,0.26018 1.0571,0.57283 0,0.31264 1.01935,0.99013 2.26523,1.50552 1.24586,0.51539 3.98309,1.86013 6.08272,2.98831 2.09963,1.12817 4.0195,2.05121 4.26638,2.05121 0.24687,0 1.85752,0.80028 3.57923,1.77837 1.72171,0.97812 3.35266,1.77839 3.62435,1.77839 0.49466,0 6.13867,2.98233 8.11159,4.28622 0.57689,0.38127 1.30545,0.69322 1.619,0.69322 0.31357,0 2.33196,0.96032 4.48533,2.13404 2.15336,1.17373 4.34693,2.13405 4.8746,2.13405 0.52768,0 0.9594,0.32011 0.9594,0.71135 0,0.39124 0.36598,0.71135 0.81329,0.71135 0.75758,0 3.54002,1.34654 5.97418,2.89115 0.5769,0.36608 1.34255,0.6656 1.70146,0.6656 0.78788,0 4.63495,3.29649 6.3105,5.40736 1.89543,2.38789 3.32232,4.52916 3.32232,4.98566 0,0.22984 0.38088,1.42659 0.84639,2.65944 1.58579,4.19969 2.17391,7.07372 2.17391,10.62353 0,3.98295 -1.07192,8.92423 -2.24345,10.34176 -0.42726,0.517 -0.77685,1.16755 -0.77685,1.44567 0,0.92768 -5.60698,7.21755 -6.43394,7.21755 -0.44812,0 -0.81475,0.29467 -0.81475,0.65481 0,0.36016 -0.81237,0.86496 -1.80525,1.12177 -0.99289,0.25681 -1.96033,0.76239 -2.14985,1.12353 -0.18955,0.36115 -0.9921,0.65662 -1.78346,0.65662 -0.79136,0 -1.60685,0.32011 -1.81217,0.71136 -0.46308,0.88236 -7.3549,0.94863 -7.81333,0.0751 z m 10.07855,-17.89185 c 0.5814,-0.73164 1.0571,-1.80489 1.0571,-2.38502 0,-0.58013 0.27183,-1.25262 0.60405,-1.49443 1.15421,-0.84002 0.66777,-5.60586 -0.76234,-7.46916 -1.50935,-1.96657 -3.64178,-3.54815 -4.817,-3.57269 -0.41979,-0.008 -2.39422,-0.96192 -4.38761,-2.11811 -1.99339,-1.15619 -4.10004,-2.10934 -4.68145,-2.11811 -0.58141,-0.008 -1.05711,-0.33605 -1.05711,-0.72729 0,-0.39124 -0.37667,-0.71135 -0.83703,-0.71135 -0.46038,0 -1.61563,-0.47818 -2.56725,-1.06264 -0.95162,-0.58444 -2.2059,-1.06461 -2.78731,-1.06702 -0.58141,-0.002 -1.0571,-0.32449 -1.0571,-0.71574 0,-0.39124 -0.41143,-0.71133 -0.91429,-0.71133 -0.50284,0 -1.38628,-0.3081 -1.96319,-0.68466 -1.48759,-0.97097 -7.96437,-4.2948 -8.36881,-4.2948 -0.1856,0 -2.09929,-0.96031 -4.25265,-2.13405 -2.15336,-1.17372 -4.24962,-2.13405 -4.65834,-2.13405 -0.40873,0 -1.00137,-0.27436 -1.31698,-0.6097 -0.31562,-0.33533 -2.74846,-1.65754 -5.40633,-2.93822 -2.65785,-1.2807 -6.24213,-3.08704 -7.96506,-4.01408 -1.72293,-0.92704 -3.27787,-1.68554 -3.45542,-1.68554 -0.17757,0 -1.8939,-0.81851 -3.81408,-1.81892 -3.72544,-1.94094 -4.5459,-2.35391 -8.3237,-4.18947 -1.32893,-0.64571 -2.88823,-1.47862 -3.46513,-1.8509 -0.57691,-0.37231 -1.46035,-0.67689 -1.9632,-0.67689 -0.50285,0 -0.91428,-0.32011 -0.91428,-0.71135 0,-0.39124 -0.47569,-0.71852 -1.0571,-0.7273 -0.5814,-0.008 -2.68805,-0.96191 -4.68145,-2.11811 -1.99339,-1.15619 -3.91806,-2.10934 -4.27704,-2.1181 -0.35899,-0.009 -1.98994,-0.81487 -3.62435,-1.79133 -1.63441,-0.97648 -3.26537,-1.77674 -3.62435,-1.77838 -0.35899,-0.001 -1.98994,-0.80192 -3.62434,-1.77837 -1.63442,-0.97647 -3.44736,-1.77675 -4.02877,-1.77838 -0.58139,-0.001 -1.05709,-0.32308 -1.05709,-0.71432 0,-0.39124 -0.41143,-0.71135 -0.91429,-0.71135 -0.50285,0 -1.38628,-0.30809 -1.96318,-0.68464 -1.48761,-0.97097 -7.96438,-4.29481 -8.36882,-4.29481 -0.1856,0 -2.09929,-0.96032 -4.25265,-2.13405 -2.15337,-1.17373 -4.30399,-2.13405 -4.77915,-2.13405 -0.47518,0 -0.86394,-0.28278 -0.86394,-0.62842 0,-0.34564 -0.61161,-0.80612 -1.35913,-1.02331 -2.82314,-0.82024 -5.88957,-2.27309 -5.88957,-2.79042 0,-0.29551 -0.40907,-0.53729 -0.90905,-0.53729 -0.49998,0 -2.31772,-0.80027 -4.03943,-1.77838 -1.7217,-0.9781 -3.33237,-1.77837 -3.57923,-1.77837 -0.24688,0 -2.21072,-0.96032 -4.36408,-2.13405 -2.15338,-1.17372 -4.34694,-2.13403 -4.87461,-2.13403 -0.52768,0 -0.9594,-0.32012 -0.9594,-0.71136 0,-0.39125 -0.41143,-0.71135 -0.91429,-0.71135 -0.50284,0 -1.38628,-0.30461 -1.96319,-0.67689 -0.5769,-0.37229 -2.1362,-1.20519 -3.46514,-1.8509 -9.11114,-4.42698 -11.38455,-5.57835 -16.6718,-8.44352 -1.86038,-1.00813 -3.66953,-1.83298 -4.0203,-1.83298 -0.35078,0 -1.68282,-0.62122 -2.96009,-1.3805 -1.27725,-0.75927 -3.4096,-1.91228 -4.73853,-2.56225 -1.32894,-0.64996 -2.95988,-1.44892 -3.62436,-1.77544 -0.66446,-0.32653 -3.06189,-1.57432 -5.32764,-2.77286 -2.26575,-1.19855 -4.32152,-2.1792 -4.5684,-2.1792 -0.24687,0 -1.85754,-0.80025 -3.57924,-1.77836 -1.72171,-0.97811 -3.35267,-1.77838 -3.62434,-1.77838 -0.2717,0 -1.90265,-0.80027 -3.62435,-1.77837 -1.72172,-0.97811 -3.53946,-1.77838 -4.03943,-1.77838 -0.49998,0 -0.90905,-0.3201 -0.90905,-0.71135 0,-0.39123 -0.40907,-0.71134 -0.90905,-0.71134 -0.49998,0 -2.30832,-0.79493 -4.01853,-1.7665 -1.71021,-0.97157 -4.0224,-1.96819 -5.1382,-2.21469 -1.11581,-0.24651 -2.17769,-0.73201 -2.35974,-1.0789 -0.18205,-0.34688 -0.94017,-0.6307 -1.68468,-0.6307 -0.74454,0 -1.61193,-0.28457 -1.92755,-0.63236 -0.31561,-0.34782 -2.2048,-1.00312 -4.1982,-1.45624 -1.99339,-0.45312 -5.1194,-1.19383 -6.94667,-1.64601 -4.16496,-1.03066 -25.6925,-1.01149 -30.2029,0.0269 -8.23425,1.89569 -10.04316,2.37308 -11.17507,2.9492 -0.66447,0.33821 -2.15951,1.01534 -3.32233,1.50476 -4.5386,1.91026 -11.21366,5.53775 -16.00753,8.69913 -9.49307,6.26033 -20.74272,17.9651 -23.51606,24.46743 -2.50017,5.86185 -2.05428,13.6345 1.01055,17.61629 0.5838,0.75846 1.06144,1.59621 1.06144,1.86171 0,0.91163 4.8617,4.27091 6.80981,4.70536 1.07197,0.23905 2.22085,0.67179 2.5531,0.96161 0.33222,0.28983 1.55545,0.71627 2.71825,0.94765 1.16281,0.23138 4.28882,0.84943 6.94668,1.37343 2.65785,0.524 5.24019,1.151 5.73855,1.39333 0.49835,0.24231 1.85748,0.61119 3.02028,0.8197 1.16282,0.20853 4.56064,0.88922 7.55073,1.51267 2.99009,0.62344 6.52383,1.311 7.85276,1.5279 1.32893,0.21692 2.68805,0.65125 3.02029,0.96516 0.33223,0.31393 2.64276,0.7991 5.13449,1.07814 2.49174,0.27905 4.80226,0.75046 5.1345,1.04757 0.33222,0.29713 1.69136,0.72466 3.02028,0.95008 5.34923,0.90737 12.1334,2.35383 12.98725,2.76901 0.49834,0.24233 1.85748,0.61386 3.0203,0.82565 6.41549,1.1684 11.88831,2.34241 12.68521,2.72118 0.49835,0.23687 1.99339,0.62569 3.32233,0.86403 5.59418,1.00329 11.53921,2.30364 12.38318,2.70853 0.49835,0.23909 1.85748,0.59111 3.02029,0.78229 2.20386,0.36235 10.41253,2.09768 15.10145,3.19248 1.49504,0.34907 4.62105,1.02196 6.94667,1.49531 2.32562,0.47337 5.1798,1.13162 6.34261,1.46282 4.73751,1.34933 11.92021,2.84664 13.65545,2.84664 1.01679,0 2.04989,0.24009 2.2958,0.53351 0.43947,0.52442 7.09835,2.01486 12.43948,2.78431 1.49505,0.21538 2.99008,0.64181 3.32231,0.94762 0.33224,0.30582 2.57588,0.78424 4.98587,1.06318 2.41001,0.27892 4.5327,0.79462 4.7171,1.146 0.18442,0.35138 1.52643,0.63888 2.98225,0.63888 1.45583,0 2.7974,0.28662 2.98126,0.63695 0.18386,0.35033 2.51195,0.86397 5.17353,1.14141 2.6616,0.27747 4.98967,0.7911 5.17353,1.14143 0.18386,0.35031 1.38951,0.63695 2.67923,0.63695 1.28971,0 2.49296,0.28207 2.67388,0.62682 0.18094,0.34474 2.43954,0.85687 5.01913,1.13807 2.5796,0.2812 4.96201,0.76339 5.29423,1.07154 0.33224,0.30817 1.69137,0.74473 3.02029,0.97015 5.34924,0.90738 12.1334,2.35384 12.98725,2.76901 0.49836,0.24233 1.85748,0.61387 3.02029,0.82565 6.4985,1.18353 11.88955,2.34421 12.68523,2.73111 0.49834,0.24232 1.85747,0.6178 3.02027,0.83438 1.16283,0.2166 4.42473,0.82028 7.24871,1.34154 2.82397,0.52128 5.54223,1.14247 6.04057,1.38044 0.49837,0.23795 1.72158,0.59437 2.71827,0.79199 3.2895,0.65225 12.0335,2.54305 14.79943,3.20021 1.49504,0.35521 4.75695,1.03953 7.24869,1.52073 2.49174,0.48119 5.15482,1.15927 5.91798,1.50686 0.76316,0.34759 2.04107,0.63199 2.83982,0.63199 0.79873,0 3.01766,0.48015 4.93095,1.06703 1.91329,0.58685 4.37667,1.06702 5.47418,1.06702 1.09754,0 2.4675,0.29701 3.0444,0.66002 0.5769,0.36303 3.0876,1.04869 5.57933,1.52367 2.49175,0.47499 5.75367,1.10498 7.24871,1.39995 3.62503,0.71526 6.71155,0.14352 8.00377,-1.48257 z"
     id="path4575"
     inkscape:connector-curvature="0" />
  <path
     style="opacity:1;fill:#000000;fill-opacity:1;stroke:none;stroke-width:7.43257999;stroke-miterlimit:4;stroke-dasharray:none;stroke-opacity:1"
     d="m 445.41381,204.13145 c -0.713,-0.72821 -1.70086,-2.46412 -2.19527,-3.85757 -1.42689,-4.02159 -0.29603,-6.47468 5.42098,-11.75925 0.33223,-0.30712 1.48748,-1.17158 2.56725,-1.92102 1.07975,-0.74948 1.96318,-1.61376 1.96318,-1.92065 0,-0.30688 0.2712,-0.55797 0.60266,-0.55797 0.8562,0 6.64604,-4.98818 6.64604,-5.72583 0,-0.3371 -7.54318,-0.76482 -16.76261,-0.95045 -9.21944,-0.18565 -19.20904,-0.66011 -22.19914,-1.05436 -10.10753,-1.33273 -15.70025,-2.30121 -16.91362,-2.92897 -0.66446,-0.34377 -2.02359,-0.79824 -3.02029,-1.00991 -6.67842,-1.41838 -9.3629,-2.19046 -9.3629,-2.69289 0,-0.31676 -0.43921,-0.57593 -0.97603,-0.57593 -0.93124,0 -6.17095,-1.81548 -8.08484,-2.80126 -0.49835,-0.25668 -2.53704,-1.05666 -4.53044,-1.77775 -1.99339,-0.7211 -4.16799,-1.57399 -4.83246,-1.89532 -0.66447,-0.32133 -2.70316,-1.10544 -4.53044,-1.74242 -1.82727,-0.637 -3.86597,-1.41245 -4.53044,-1.7232 -0.66446,-0.31077 -2.83906,-1.12721 -4.83246,-1.81433 -1.99339,-0.68712 -4.168,-1.51222 -4.83247,-1.83355 -0.66446,-0.32134 -2.70315,-1.10542 -4.53043,-1.74242 -1.82727,-0.637 -3.86596,-1.42677 -4.53043,-1.75503 -0.66446,-0.32827 -2.70316,-1.12274 -4.53043,-1.76547 -1.82728,-0.64274 -3.86598,-1.42523 -4.53044,-1.73887 -0.66446,-0.31365 -4.06229,-1.59793 -7.55072,-2.85397 -3.48845,-1.25603 -6.81463,-2.57709 -7.39153,-2.93569 -0.57688,-0.35859 -1.46401,-0.65199 -1.97137,-0.65199 -0.50738,0 -1.39449,-0.30134 -1.97139,-0.66966 -0.5769,-0.3683 -2.67987,-1.22109 -4.67326,-1.8951 -1.99339,-0.67398 -3.89617,-1.45682 -4.2284,-1.73963 -0.33223,-0.28282 -1.75789,-0.7383 -3.16815,-1.0122 -1.41024,-0.27389 -2.71746,-0.79025 -2.90493,-1.14745 -0.18745,-0.3572 -0.98831,-0.64946 -1.77969,-0.64946 -0.79136,0 -1.59221,-0.29225 -1.77968,-0.64945 -0.18746,-0.35721 -1.42529,-0.8652 -2.75074,-1.12892 -1.32545,-0.26371 -2.56328,-0.77173 -2.75075,-1.12892 -0.18746,-0.3572 -0.98833,-0.64945 -1.77969,-0.64945 -0.79136,0 -1.59222,-0.29225 -1.77969,-0.64945 -0.18746,-0.3572 -1.49468,-0.87356 -2.90493,-1.14747 -1.41024,-0.27389 -2.8359,-0.72937 -3.16814,-1.01218 -0.33222,-0.28282 -2.23501,-1.06566 -4.2284,-1.73965 -1.99339,-0.67399 -4.09634,-1.52678 -4.67325,-1.8951 -0.5769,-0.3683 -1.5802,-0.66964 -2.22957,-0.66964 -0.64937,0 -1.33895,-0.30162 -1.53243,-0.67026 -0.19346,-0.36863 -1.56863,-0.88514 -3.05593,-1.14778 -1.4873,-0.26266 -2.70418,-0.72498 -2.70418,-1.02739 0,-0.30242 -0.74752,-0.73186 -1.66116,-0.95432 -3.91791,-0.95397 -7.39972,-2.25459 -7.39972,-2.76414 0,-0.30228 -0.43921,-0.54962 -0.97603,-0.54962 -0.88758,0 -5.37052,-1.54797 -8.38686,-2.89601 -0.66447,-0.29696 -2.70316,-1.09101 -4.53044,-1.76454 -1.82727,-0.67354 -3.86598,-1.47366 -4.53044,-1.77805 -1.52233,-0.6974 -6.0778,-2.10003 -8.45681,-2.60388 -0.99669,-0.21107 -2.084,-0.63283 -2.41623,-0.93721 -0.33223,-0.3044 -2.23501,-0.78382 -4.2284,-1.06543 -1.99339,-0.28162 -3.89618,-0.75827 -4.22841,-1.05925 -0.63856,-0.57849 -2.35555,-0.88404 -12.08116,-2.14976 -7.26233,-0.94515 -36.79053,-0.49178 -37.9085,0.58204 -0.41317,0.39685 -2.11034,0.88696 -3.77151,1.08913 -3.98042,0.48439 -9.96285,1.84781 -11.4771,2.61567 -0.66446,0.33692 -1.88768,0.78631 -2.71826,0.99865 -5.58681,1.42821 -7.85276,2.20932 -7.85276,2.70698 0,0.31398 -0.51045,0.57087 -1.13434,0.57087 -1.00802,0 -3.31664,0.92531 -7.02044,2.81383 -0.66447,0.3388 -2.49827,1.20474 -4.07513,1.92432 -1.57685,0.71958 -2.86803,1.5484 -2.86927,1.84183 -9e-4,0.29344 -0.34205,0.53486 -0.75734,0.5365 -0.8129,0.003 -4.04368,1.86831 -9.81595,5.66668 -4.37988,2.88213 -21.664404,16.46585 -21.947436,17.24826 -0.110749,0.30613 -0.438456,0.55661 -0.728252,0.55661 -0.464776,0 -6.482075,4.62965 -8.158856,6.27734 -0.347412,0.34139 -0.891065,0.7492 -1.208116,0.90626 -1.144739,0.56706 -7.829976,5.9891 -8.026518,6.50987 -0.110748,0.29344 -0.468665,0.53351 -0.795381,0.53351 -0.326711,0 -1.465312,0.78261 -2.530219,1.73913 -1.919919,1.72449 -14.775703,9.6405 -15.658476,9.64179 -0.252794,3.7e-4 -1.611926,0.61084 -3.02029,1.3566 -1.408366,0.74576 -4.19162,1.89815 -6.185012,2.56088 -1.993391,0.66272 -4.168001,1.47191 -4.832464,1.79822 -2.044881,1.00417 -14.851191,3.23068 -22.894603,3.98045 -5.307965,0.49479 -7.942378,-0.91077 -9.858381,-5.25983 -1.021013,-2.31756 -0.913053,-4.32822 0.371852,-6.92537 1.653172,-3.34152 3.832037,-4.22369 11.541129,-4.67272 7.601747,-0.44276 16.2811,-1.89891 17.185451,-2.8832 0.315621,-0.34352 1.318927,-0.6246 2.229568,-0.6246 0.910642,0 1.809094,-0.29224 1.996557,-0.64944 0.187465,-0.3572 1.4253,-0.86522 2.750746,-1.12894 1.325446,-0.2637 2.563281,-0.77172 2.750746,-1.12892 0.187464,-0.3572 0.757894,-0.64944 1.267621,-0.64944 0.932973,0 10.520254,-5.45099 11.083085,-6.30145 0.166115,-0.251 1.321376,-1.06697 2.567246,-1.81324 1.24587,-0.7463 2.265217,-1.6266 2.265217,-1.95622 0,-0.32963 0.240851,-0.59934 0.535225,-0.59934 0.511212,0 7.89649,-5.53871 8.525647,-6.39393 0.166116,-0.22582 1.797072,-1.51466 3.624347,-2.86409 1.827277,-1.34943 3.412928,-2.69939 3.523671,-2.99989 0.110748,-0.30051 0.586443,-0.54637 1.057101,-0.54637 0.470664,0 0.859805,-0.24009 0.864764,-0.53351 0.0048,-0.29344 1.631856,-1.6539 3.615335,-3.02324 1.983479,-1.36934 3.610377,-2.7298 3.615336,-3.02324 0.0048,-0.29342 0.3941,-0.53351 0.864764,-0.53351 0.470658,0 0.946354,-0.24586 1.057101,-0.54637 0.110742,-0.30049 1.696393,-1.65045 3.523673,-2.99988 1.827272,-1.34944 3.458222,-2.62408 3.624342,-2.83255 0.16612,-0.20846 1.25342,-0.99512 2.41623,-1.74814 1.16282,-0.75301 2.25012,-1.55329 2.41624,-1.77838 0.51738,-0.70105 2.66864,-2.2093 3.77535,-2.6469 0.58141,-0.22989 1.05711,-0.6303 1.05711,-0.88978 0,-0.25948 1.35913,-1.09289 3.02029,-1.85201 1.66116,-0.75912 3.02029,-1.62985 3.02029,-1.93497 0,-0.30511 0.26995,-0.55476 0.59991,-0.55476 1.03153,0 5.44067,-2.44191 5.44067,-3.0132 0,-0.29894 0.43462,-0.54354 0.96581,-0.54354 0.87054,0 3.86372,-1.33673 6.30271,-2.814735 0.50926,-0.308613 1.85947,-0.802563 3.00047,-1.097681 1.141,-0.295119 2.55917,-0.815975 3.15148,-1.157477 0.5923,-0.341492 1.58063,-0.914344 2.19627,-1.272987 0.61563,-0.358633 2.38583,-0.875738 3.93379,-1.149093 1.54797,-0.273376 2.96309,-0.780195 3.14473,-1.126299 0.18164,-0.346093 1.08438,-0.629267 2.0061,-0.629267 0.92172,0 1.87834,-0.240084 2.12582,-0.533512 0.62291,-0.738561 12.19583,-3.183965 20.89341,-4.414892 6.00889,-0.850404 34.05709,-0.821872 40.16986,0.04091 9.14151,1.290212 10.27066,1.505015 10.87305,2.068494 0.33223,0.310771 2.44266,0.79435 4.68984,1.074612 2.24718,0.280283 4.23397,0.791937 4.41507,1.13701 0.18111,0.345084 1.11268,0.627429 2.07016,0.627429 0.95748,0 1.89917,0.301611 2.09264,0.670243 0.19345,0.368643 1.57198,0.885727 3.06337,1.149114 1.49138,0.263366 2.86021,0.762013 3.04185,1.108117 0.18164,0.346093 0.97773,0.629267 1.7691,0.629267 0.79137,0 1.59222,0.292249 1.77968,0.649447 0.18747,0.357198 1.49468,0.873559 2.90493,1.147457 1.41025,0.273907 2.83592,0.723396 3.16814,0.998877 0.33224,0.275479 2.23501,1.084399 4.22842,1.797586 1.99339,0.71319 4.16799,1.55963 4.83245,1.88096 0.66447,0.32134 2.70316,1.09988 4.53044,1.73007 1.82728,0.6302 3.79432,1.44283 4.37122,1.80583 0.5769,0.36301 1.5802,0.66001 2.22957,0.66001 0.64937,0 1.33404,0.29226 1.52151,0.64946 0.18746,0.3572 1.49468,0.87355 2.90492,1.14744 1.41025,0.27391 2.83591,0.7234 3.16814,0.99888 0.33224,0.27548 2.23502,1.08441 4.22841,1.7976 1.99339,0.7132 4.168,1.54912 4.83247,1.85763 0.66446,0.30848 2.70315,1.08678 4.53043,1.72952 1.82728,0.64273 3.86597,1.44139 4.53043,1.77482 0.66446,0.3334 2.83908,1.16335 4.83246,1.8443 1.99339,0.68095 3.89618,1.46948 4.22842,1.75228 0.33222,0.28281 1.75789,0.7383 3.16813,1.0122 1.41026,0.27391 2.71747,0.79025 2.90493,1.14745 0.18746,0.35721 0.87214,0.64946 1.52151,0.64946 0.64936,0 1.65266,0.30134 2.22956,0.66964 0.57691,0.36832 2.67986,1.22111 4.67325,1.89511 1.99341,0.67398 3.89618,1.45128 4.22842,1.72732 0.33222,0.27603 1.65686,0.72556 2.94363,0.99896 1.28678,0.2734 2.84978,0.79529 3.47334,1.15978 0.62357,0.36448 1.61989,0.94321 2.21408,1.28608 0.59418,0.34287 2.22372,0.85088 3.62118,1.12892 1.39748,0.27804 2.69424,0.79777 2.88171,1.15498 0.18745,0.3572 0.98832,0.64945 1.77969,0.64945 0.79136,0 1.59713,0.30161 1.79059,0.67024 0.19347,0.36865 1.56864,0.88516 3.05594,1.1478 1.48731,0.26265 2.70419,0.7613 2.70419,1.10813 0,0.34682 0.66352,0.63057 1.47449,0.63057 0.81098,0 1.62788,0.29226 1.81534,0.64946 0.18747,0.3572 1.49468,0.87356 2.90493,1.14746 1.41024,0.27389 2.8359,0.72937 3.16814,1.01219 0.33222,0.2828 2.23501,1.06565 4.2284,1.73964 1.9934,0.674 4.09635,1.52679 4.67326,1.8951 0.57689,0.36831 1.5802,0.66964 2.22955,0.66964 0.64938,0 1.33897,0.30163 1.53243,0.67026 0.19347,0.36864 1.56865,0.88514 3.05595,1.14778 1.4873,0.26266 2.70417,0.76132 2.70417,1.10814 0,0.34682 0.43922,0.63058 0.97603,0.63058 0.93124,0 6.17096,1.81546 8.08485,2.80126 0.49835,0.25667 2.53704,1.05666 4.53043,1.77775 1.99339,0.72109 4.168,1.55862 4.83247,1.86118 0.66446,0.30255 3.24681,1.08782 5.73855,1.74504 2.49173,0.65723 5.48182,1.47997 6.64464,1.82834 5.57753,1.67095 14.00371,2.34853 32.16608,2.58662 12.53942,0.16438 19.78291,0.006 19.78291,-0.4312 0,-0.37978 -0.88343,-1.41715 -1.96319,-2.30522 -1.07976,-0.8881 -2.0991,-1.7911 -2.26522,-2.00667 -0.4018,-0.52144 -7.39482,-6.0012 -8.11647,-6.36008 -1.54401,-0.76788 -4.3968,-4.57282 -5.06844,-6.7601 -0.64989,-2.1165 -0.60407,-2.84821 0.32449,-5.18074 0.59472,-1.49388 1.6929,-3.03212 2.44042,-3.41834 0.74752,-0.38621 1.35914,-0.9464 1.35914,-1.24486 0,-1.32992 4.41927,-0.41676 6.80859,1.40689 1.40488,1.07224 2.69022,2.14477 2.85633,2.38337 0.16612,0.23861 1.50393,1.32065 2.97293,2.40453 1.469,1.08389 2.96405,2.26813 3.32232,2.63165 1.88765,1.91531 14.38277,11.97138 14.87496,11.97138 0.31674,0 0.57588,0.25108 0.57588,0.55796 0,0.30689 0.88344,1.16309 1.96319,1.90265 1.07975,0.73956 2.09911,1.52882 2.26522,1.75391 0.16611,0.22508 1.66115,1.51824 3.32231,2.87369 4.64663,3.79148 4.83247,4.11876 4.83247,8.51066 0,4.41829 -0.52125,5.32126 -5.11908,8.86759 -1.4682,1.13242 -2.95573,2.33746 -3.30563,2.67785 -0.60667,0.59016 -8.56616,7.09573 -19.00894,15.53663 -2.66217,2.15184 -4.85001,4.15251 -4.86189,4.44595 -0.0118,0.29343 -0.29575,0.53351 -0.63086,0.53351 -0.3351,0 -1.73502,0.96031 -3.11092,2.13405 -3.04251,2.59544 -7.36263,2.96487 -9.47245,0.81002 z"
     id="path4577"
     inkscape:connector-curvature="0" />
  <path
     style="opacity:1;fill:#000000;fill-opacity:1;stroke:none;stroke-width:7.43257999;stroke-miterlimit:4;stroke-dasharray:none;stroke-opacity:1"
     d="m 362.27934,105.48719 c -1.71956,-2.02502 -2.13433,-3.05718 -2.13433,-5.31142 0,-2.254244 0.41477,-3.286403 2.13433,-5.311414 1.1739,-1.382386 2.6529,-2.513435 3.28669,-2.513435 0.63378,0 1.3057,-0.292249 1.49316,-0.649447 0.18746,-0.357198 1.4253,-0.865217 2.75075,-1.128924 1.32545,-0.263706 2.56328,-0.771715 2.75075,-1.128913 0.18746,-0.357219 0.87214,-0.649457 1.52151,-0.649457 0.64936,0 1.78858,-0.369865 2.53158,-0.821915 0.74303,-0.452049 1.75869,-1.047131 2.25703,-1.322389 1.28041,-0.707233 0.90164,-1.730668 -0.73115,-1.975544 -0.76068,-0.114044 -1.9267,-0.479955 -2.59116,-0.813031 -1.50903,-0.756434 -9.49643,-2.891971 -10.81667,-2.891971 -0.53837,0 -1.45087,-0.282005 -2.02777,-0.626685 -1.41691,-0.846579 -8.78941,-2.93006 -10.36813,-2.93006 -0.6975,0 -1.74018,-0.284176 -2.31708,-0.631501 -0.57691,-0.347325 -3.22352,-1.183451 -5.88138,-1.858048 -2.65785,-0.674599 -5.51203,-1.469429 -6.3426,-1.766281 -0.83058,-0.296853 -3.68476,-1.096443 -6.34261,-1.776861 -2.65786,-0.680418 -5.37612,-1.501734 -6.04058,-1.825153 -0.66446,-0.323409 -2.83908,-0.944848 -4.83247,-1.38096 -6.81184,-1.490294 -7.24944,-1.610857 -7.85276,-2.163596 -0.33223,-0.30438 -2.17065,-0.78174 -4.08537,-1.060791 -1.91472,-0.27905 -3.62968,-0.79007 -3.81101,-1.135581 -0.18134,-0.345523 -1.249,-0.628214 -2.37261,-0.628214 -1.12359,0 -2.19771,-0.29499 -2.38693,-0.655534 -0.18921,-0.360533 -2.10804,-0.877987 -4.26405,-1.149885 -2.15601,-0.271899 -3.92003,-0.777181 -3.92003,-1.122845 0,-0.345664 -0.93535,-0.628484 -2.07855,-0.628484 -1.1432,0 -2.22692,-0.282692 -2.40825,-0.628202 -0.18133,-0.345522 -1.89629,-0.856531 -3.81101,-1.135582 -1.91472,-0.27905 -3.75314,-0.75641 -4.08538,-1.060791 -0.6033,-0.55274 -1.04092,-0.673313 -7.85275,-2.163607 -1.99339,-0.436113 -4.168,-1.068602 -4.83246,-1.405536 -1.22895,-0.62316 -2.04115,-0.856272 -8.45682,-2.427083 -1.99339,-0.488057 -4.03209,-1.077885 -4.53043,-1.310716 -1.06701,-0.498508 -3.19054,-1.060508 -8.1548,-2.158176 -1.99339,-0.440778 -3.76025,-1.015632 -3.92636,-1.277469 -0.16612,-0.261837 -1.25342,-0.660189 -2.41624,-0.885219 -2.89989,-0.561211 -9.16463,-2.264931 -10.26899,-2.792705 -0.49834,-0.238168 -1.72156,-0.603013 -2.71826,-0.810783 -2.68622,-0.559985 -8.92698,-2.254763 -9.96695,-2.706698 -1.88123,-0.817521 -11.26557,-2.71842 -13.40464,-2.715251 -1.22627,0.0023 -2.37446,-0.272782 -2.55155,-0.610223 -0.46578,-0.887482 -12.70179,-1.645553 -25.03351,-1.550922 -9.68978,0.07434 -17.37523,0.672678 -23.04045,1.793732 -9.27457,1.835286 -13.13487,2.739758 -14.03617,3.288656 -0.57688,0.351343 -1.56502,0.638793 -2.19585,0.638793 -1.1203,0 -6.42869,1.719614 -8.8364,2.862488 -0.66446,0.315408 -2.70316,1.145396 -4.53044,1.844405 -1.82727,0.699022 -3.58055,1.526463 -3.89617,1.838774 -0.31562,0.31231 -0.99519,0.569799 -1.51014,0.572215 -0.51497,0.0023 -1.71489,0.482567 -2.66651,1.067023 -0.95161,0.584456 -2.10687,1.06264 -2.56724,1.06264 -0.46038,0 -0.83704,0.32011 -0.83704,0.711345 0,0.391249 -0.43461,0.711358 -0.9658,0.711358 -0.53121,0 -1.89034,0.480152 -3.0203,1.067024 -1.12996,0.586859 -3.07383,1.562691 -4.31969,2.168508 -1.24588,0.605816 -2.73723,1.406078 -3.314129,1.778369 -0.576894,0.37229 -1.460329,0.676895 -1.963186,0.676895 -0.502856,0 -0.91428,0.320097 -0.91428,0.711345 0,0.391235 -0.475704,0.713325 -1.057108,0.715728 -0.581404,0.0023 -1.835693,0.48258 -2.787308,1.067024 -0.951616,0.584455 -2.106877,1.062641 -2.567248,1.062641 -0.46037,0 -0.837037,0.320109 -0.837037,0.711356 0,0.391236 -0.475695,0.712689 -1.057102,0.714326 -0.581405,0.0012 -2.394346,0.8019 -4.028752,1.778369 -1.634406,0.976469 -3.214827,1.775399 -3.512042,1.775399 -0.297209,0 -2.026071,0.800262 -3.8419,1.778369 -1.815834,0.978107 -3.446791,1.778381 -3.624348,1.778381 -0.177563,0 -1.793225,0.792026 -3.590365,1.760059 -1.79714,0.968034 -3.954331,1.96306 -4.793757,2.211171 -0.839426,0.248099 -1.52623,0.736499 -1.52623,1.085332 0,0.348822 -0.398516,0.634222 -0.885593,0.634222 -0.487076,0 -1.77825,0.453467 -2.869276,1.00769 -1.091025,0.554225 -3.070986,1.536196 -4.399914,2.182153 -2.975213,1.446188 -4.165151,2.027891 -7.248697,3.543565 -3.118145,1.532676 -4.303972,2.112296 -7.248696,3.543096 -1.328928,0.645707 -2.88824,1.47862 -3.465138,1.850897 -0.576898,0.372287 -1.460333,0.676895 -1.963189,0.676895 -0.502856,0 -0.914284,0.320111 -0.914284,0.711346 0,0.391245 -0.475696,0.713323 -1.057102,0.715735 -0.581406,0.0021 -1.835694,0.482569 -2.787308,1.067024 -0.951615,0.584445 -2.106876,1.062647 -2.567247,1.062647 -0.460372,0 -0.837039,0.320101 -0.837039,0.711346 0,0.391245 -0.434615,0.711335 -0.965811,0.711335 -0.901319,0 -4.015113,1.407816 -6.425704,2.905212 -2.882549,1.790548 -6.885552,-1.041596 -8.351191,-5.908505 -0.710333,-2.358778 -0.669092,-2.93436 0.378022,-5.275955 0.646435,-1.445581 1.989462,-3.146464 2.984502,-3.779727 1.64995,-1.050075 2.865919,-1.673974 9.359892,-4.802445 2.337476,-1.126085 3.383512,-1.636188 6.946666,-3.387611 3.118146,-1.532673 4.303974,-2.112298 7.248698,-3.543094 1.328928,-0.645709 2.88824,-1.478607 3.465137,-1.850898 0.576899,-0.372289 1.460333,-0.676895 1.96319,-0.676895 0.502855,0 0.914282,-0.320109 0.914282,-0.711345 0,-0.391247 0.475697,-0.713323 1.057103,-0.715727 0.581405,-0.0023 1.835694,-0.48258 2.787308,-1.067035 0.951615,-0.584445 2.106877,-1.062641 2.567248,-1.062641 0.460371,0 0.837039,-0.320098 0.837039,-0.711345 0,-0.391236 0.475696,-0.713325 1.057101,-0.715729 0.581406,-0.0023 1.835695,-0.482578 2.787309,-1.067023 0.951615,-0.584456 2.106876,-1.062641 2.567247,-1.062641 0.460372,0 0.837039,-0.320109 0.837039,-0.711357 0,-0.391236 0.425157,-0.711345 0.944793,-0.711345 0.519637,0 2.415182,-0.792027 4.212323,-1.760072 1.79714,-0.968033 3.9569,-1.963812 4.799466,-2.212843 0.842565,-0.24903 1.681322,-0.73743 1.863909,-1.085332 0.182584,-0.347903 0.859581,-0.632549 1.504438,-0.632549 0.644856,0 1.172465,-0.320109 1.172465,-0.711345 0,-0.391248 0.475695,-0.713325 1.057101,-0.71574 0.581406,-0.0023 1.835696,-0.482568 2.78731,-1.067023 0.951616,-0.584444 2.106877,-1.062641 2.567248,-1.062641 0.460371,0 0.837037,-0.294673 0.837037,-0.654829 0,-0.360155 0.883435,-0.877278 1.963188,-1.149166 1.079755,-0.271886 2.235015,-0.723833 2.567248,-1.004321 0.33223,-0.280487 1.555449,-0.933701 2.71826,-1.451567 1.162812,-0.517877 3.534055,-1.683667 5.269422,-2.590647 1.735374,-0.90697 3.842023,-1.852041 4.681449,-2.10014 0.839436,-0.248111 1.52623,-0.736511 1.52623,-1.085332 0,-0.348834 0.475701,-0.636202 1.057111,-0.638616 0.5814,-0.0023 1.83569,-0.482568 2.7873,-1.067025 0.95161,-0.584455 2.10688,-1.06264 2.56724,-1.06264 0.46038,0 0.83705,-0.320109 0.83705,-0.711356 0,-0.391237 0.43462,-0.711344 0.96581,-0.711344 0.53119,0 1.95827,-0.5128 3.17129,-1.139554 3.10629,-1.604976 4.13977,-2.045462 8.24609,-3.514615 1.99339,-0.713193 3.89617,-1.528343 4.2284,-1.811446 0.33223,-0.283104 1.89857,-0.741682 3.48077,-1.019061 1.58219,-0.277381 3.02531,-0.787501 3.20695,-1.133598 0.18164,-0.346097 1.08438,-0.629267 2.0061,-0.629267 0.92171,0 1.87704,-0.240081 2.12294,-0.533513 0.43946,-0.524417 7.09835,-2.014861 12.43948,-2.784305 1.49504,-0.215378 2.99008,-0.644286 3.32232,-0.953132 0.44534,-0.413992 22.11952,-2.264702 27.18261,-2.321064 4.04336,-0.045 27.33645,1.899005 27.78667,2.319042 0.33223,0.309958 1.82728,0.737825 3.32232,0.950817 5.21911,0.74354 11.18438,1.998023 12.3832,2.604155 1.32288,0.668865 2.97212,1.124717 8.45681,2.337461 1.99338,0.440769 3.76026,1.015627 3.92638,1.277463 0.16611,0.261837 1.25342,0.660187 2.41622,0.885221 2.74739,0.531691 9.10749,2.245049 10.26899,2.766377 1.44024,0.646438 9.43653,2.699019 10.51463,2.699019 0.53837,0 1.45088,0.282013 2.02777,0.626691 1.41691,0.846576 8.78942,2.930056 10.36814,2.930056 0.6975,0 1.74017,0.282007 2.31708,0.626694 1.41691,0.846575 8.78942,2.930055 10.36814,2.930055 0.69749,0 1.74018,0.284176 2.31708,0.631501 0.57691,0.347325 3.22351,1.18345 5.88137,1.858048 2.65786,0.674598 5.51203,1.498023 6.34261,1.829843 1.35117,0.539791 4.65024,1.390668 9.96695,2.570654 0.9967,0.221203 2.0867,0.657479 2.42223,0.969518 0.33552,0.312027 2.31234,0.794136 4.39293,1.071336 2.08059,0.277201 3.92877,0.781953 4.10706,1.121668 0.17829,0.339713 1.10756,0.617668 2.06504,0.617668 0.95747,0 1.89234,0.288605 2.07746,0.641362 0.18513,0.352744 1.96853,0.864401 3.96311,1.137007 1.99458,0.272616 3.77799,0.784273 3.96312,1.137019 0.18512,0.352744 1.2559,0.641361 2.3795,0.641361 1.12359,0 2.19126,0.28269 2.3726,0.628213 0.18133,0.345511 1.89628,0.85652 3.811,1.13557 1.91472,0.279062 3.75315,0.75641 4.08538,1.060802 0.60331,0.552728 1.04092,0.673303 7.85276,2.163596 1.99339,0.436112 4.168,1.068603 4.83246,1.405536 1.22894,0.623171 2.04115,0.856273 8.45682,2.427082 1.99339,0.488059 4.03208,1.077887 4.53042,1.310717 0.95006,0.443877 2.19726,0.787385 8.1548,2.246033 1.99339,0.488057 4.03208,1.077886 4.53043,1.310717 0.49834,0.23283 1.72156,0.632384 2.71826,0.887882 4.85974,1.245799 6.07949,0.454351 3.90388,-2.533047 -2.10991,-2.897174 -3.19961,-4.465179 -5.66472,-8.151233 -1.3007,-1.944903 -2.67692,-3.856299 -3.05828,-4.247546 -0.38133,-0.391236 -1.21058,-1.751695 -1.84273,-3.023238 -0.63215,-1.271531 -1.36257,-2.311881 -1.62317,-2.311881 -0.2606,0 -0.47382,-1.471089 -0.47382,-3.269097 0,-3.489418 1.77769,-7.401138 3.36345,-7.401138 0.47573,0 0.86495,-0.32011 0.86495,-0.711357 0,-0.969741 3.39819,-0.899982 5.02319,0.103088 1.33348,0.823153 5.84742,6.184037 5.85275,6.950898 0.002,0.22833 0.88502,1.552454 1.96318,2.942485 1.07817,1.390043 2.77123,3.79084 3.76236,5.335118 1.70325,2.653845 3.4775,5.211245 4.85127,6.992665 0.33701,0.437008 1.56023,2.233991 2.71826,3.993285 2.74859,4.175667 3.49931,5.282666 6.0319,8.894212 5.09427,7.264641 6.04058,9.047676 6.04058,11.381599 0,1.702508 -1.29109,4.75208 -2.71043,6.402136 -0.33654,0.391245 -2.24284,1.330061 -4.23623,2.086262 -1.99341,0.7562 -3.89618,1.607837 -4.22842,1.892562 -0.33222,0.284705 -1.6264,0.742631 -2.87595,1.017622 -1.24953,0.274971 -2.42084,0.783776 -2.60288,1.130667 -0.18207,0.34689 -0.9785,0.630712 -1.76986,0.630712 -0.79137,0 -1.59223,0.292249 -1.77969,0.649458 -0.18746,0.357198 -1.4253,0.865202 -2.75075,1.128922 -1.32545,0.2637 -2.56328,0.77172 -2.75075,1.128907 -0.18746,0.35721 -1.00437,0.64945 -1.81534,0.64945 -0.81096,0 -1.47449,0.27921 -1.47449,0.62044 0,0.34124 -1.09918,0.82742 -2.44261,1.0804 -1.34344,0.25298 -2.9744,0.77404 -3.62434,1.15795 -0.64996,0.38388 -1.66789,0.97849 -2.26208,1.32137 -0.59418,0.34286 -2.22371,0.85088 -3.62117,1.12892 -1.39748,0.27803 -2.69425,0.79777 -2.8817,1.15497 -0.18747,0.3572 -1.67488,0.64946 -3.30535,0.64946 -2.58793,0 -3.23563,-0.31928 -5.09886,-2.51344 z"
     id="path4579"
     inkscape:connector-curvature="0" />
  <path
     style="opacity:1;fill:#000000;fill-opacity:1;stroke:none;stroke-width:7.43257999;stroke-miterlimit:4;stroke-dasharray:none;stroke-opacity:1"
     d="m 447.12938,412.54109 c 0,-0.3456 -0.52231,-0.78924 -1.16066,-0.98581 -0.63837,-0.19659 -1.74089,-1.6968 -2.45007,-3.33379 -1.24836,-2.88163 -1.25687,-3.07664 -0.26742,-6.12768 0.56209,-1.73323 1.20563,-3.15133 1.43007,-3.15133 0.22446,0 0.94988,-0.56018 1.61206,-1.24486 0.66219,-0.68466 1.64199,-1.56496 2.17732,-1.9562 5.76154,-4.21074 11.85775,-9.39006 11.72191,-9.9589 -0.21204,-0.88795 -0.27811,-0.8935 -30.27888,-2.54348 -26.74877,-1.47114 -27.81868,-1.55404 -40.47188,-3.13657 -4.65125,-0.58172 -9.68003,-1.21029 -11.17508,-1.39681 -2.70451,-0.33741 -6.24186,-0.87057 -16.61159,-2.50375 -2.9901,-0.47093 -6.38791,-1.12444 -7.55074,-1.45225 -1.1628,-0.32782 -4.28881,-0.97854 -6.94665,-1.44607 -4.85744,-0.85446 -5.96968,-1.08291 -15.40348,-3.16384 -2.82398,-0.62293 -6.22181,-1.31544 -7.55073,-1.53894 -1.32892,-0.22349 -2.68806,-0.65898 -3.0203,-0.96773 -0.33222,-0.30874 -2.44265,-0.79067 -4.68983,-1.07094 -2.24719,-0.28027 -4.23397,-0.79192 -4.41508,-1.13699 -0.18111,-0.3451 -1.24859,-0.62743 -2.37219,-0.62743 -1.12359,0 -2.18877,-0.27796 -2.36706,-0.61767 -0.17829,-0.33971 -2.02647,-0.84447 -4.10706,-1.12167 -2.0806,-0.27719 -4.05742,-0.76159 -4.39293,-1.07641 -0.33553,-0.31482 -1.56145,-0.75795 -2.72425,-0.98474 -4.44453,-0.86685 -10.60871,-2.35598 -11.4771,-2.77263 -0.49835,-0.23913 -1.72156,-0.6096 -2.71827,-0.82329 -6.06817,-1.30104 -10.38641,-2.35393 -11.17507,-2.72471 -0.49834,-0.23431 -1.85748,-0.64872 -3.02029,-0.92091 -5.20948,-1.21946 -10.15824,-2.45386 -12.38319,-3.08878 -1.32893,-0.37924 -4.1831,-1.07071 -6.34261,-1.53664 -2.15951,-0.46592 -4.47002,-1.10716 -5.13449,-1.42499 -0.66447,-0.31781 -2.15951,-0.7725 -3.32232,-1.01039 -7.33817,-1.50126 -10.22397,-2.23616 -10.62216,-2.70508 -0.24873,-0.29292 -1.01855,-0.52987 -1.7107,-0.5266 -1.1054,0.004 -4.42924,-0.80623 -11.82946,-2.88804 -7.58117,-2.13271 -10.38551,-2.80873 -11.65159,-2.80873 -0.78999,0 -1.63985,-0.23965 -1.88858,-0.53256 -0.41179,-0.48493 -4.64356,-1.5517 -10.92419,-2.75385 -1.32892,-0.25435 -2.68806,-0.7085 -3.02028,-1.00919 -0.33224,-0.3007 -2.23502,-0.77713 -4.22842,-1.05874 -1.99338,-0.2816 -3.89617,-0.75468 -4.22839,-1.05127 -0.33224,-0.29661 -1.55546,-0.72483 -2.71826,-0.95162 -4.44454,-0.86684 -10.60872,-2.35598 -11.47711,-2.77264 -0.92454,-0.44359 -1.31504,-0.53704 -8.8626,-2.12096 -2.38268,-0.50003 -4.53463,-1.14921 -4.78211,-1.44265 -0.2475,-0.29341 -1.34003,-0.53351 -2.42786,-0.53351 -1.08783,0 -2.13608,-0.30144 -2.32945,-0.66988 -0.19336,-0.36844 -2.2481,-0.88996 -4.56608,-1.15893 -2.31799,-0.26898 -4.21451,-0.73419 -4.21451,-1.03378 0,-0.2996 -1.01935,-0.72301 -2.26522,-0.94094 -3.71448,-0.6497 -10.65549,-2.30291 -11.62813,-2.76958 -0.49834,-0.23911 -1.72156,-0.60959 -2.71826,-0.82329 -6.09226,-1.30622 -10.38663,-2.35442 -11.17507,-2.72772 -0.49835,-0.23594 -1.99339,-0.60869 -3.32231,-0.82836 -1.32893,-0.21966 -3.63946,-0.71225 -5.1345,-1.09461 -1.49504,-0.38237 -3.857474,-0.70917 -5.249853,-0.72622 -1.392375,-0.0171 -2.699598,-0.35107 -2.904929,-0.74233 -0.205332,-0.39123 -1.324222,-0.71134 -2.486424,-0.71134 -1.162201,0 -3.252811,-0.32263 -4.645798,-0.71695 -1.392988,-0.39434 -5.386881,-1.04428 -8.875316,-1.44434 -3.488436,-0.40004 -8.789045,-1.01123 -11.779132,-1.35818 -13.053816,-1.51467 -23.876339,-2.15093 -36.754294,-2.16077 -12.880021,-0.01 -13.914601,-0.10663 -15.517701,-1.45083 -1.702444,-1.42757 -3.603375,-5.02824 -3.603375,-6.82539 0,-1.91684 2.031064,-5.85472 3.407181,-6.60594 0.783905,-0.42794 2.069234,-1.12983 2.856286,-1.55976 1.454145,-0.7943 5.999263,-0.67856 29.980016,0.76348 13.58784,0.81709 30.174711,2.41643 31.411019,3.02869 0.498348,0.24683 2.537044,0.61921 4.530435,0.82754 5.324893,0.55654 15.565489,2.2434 16.611594,2.73633 0.498351,0.23481 2.129301,0.61712 3.624351,0.84956 6.43448,1.0004 12.01601,2.21807 12.43488,2.71281 0.24842,0.29343 1.1539,0.53698 2.01218,0.5412 0.85826,0.004 2.89485,0.4844 4.52576,1.06703 1.6309,0.58263 3.74124,1.05933 4.68965,1.05933 0.94839,0 2.19637,0.28779 2.77326,0.63951 1.31745,0.80325 9.66015,2.93857 11.43326,2.92635 0.72791,-0.004 1.4692,0.26854 1.6473,0.60789 0.17809,0.33933 1.4853,0.79501 2.90492,1.01261 3.10074,0.47528 9.47349,1.95974 10.7359,2.50082 1.12334,0.48149 8.02249,2.19293 10.87305,2.69725 1.1628,0.20571 2.65785,0.65396 3.32231,0.9961 0.66447,0.34216 2.83908,0.97672 4.83247,1.41016 1.99339,0.43343 4.84757,1.11136 6.3426,1.50651 1.49505,0.39514 4.53183,1.10118 6.74839,1.56898 2.21657,0.46779 4.23261,1.09061 4.48011,1.38405 0.24747,0.29341 1.34001,0.53351 2.42784,0.53351 1.08783,0 2.12876,0.28748 2.31317,0.63886 0.1844,0.35138 2.24022,0.86417 4.56846,1.13951 2.32826,0.27534 4.38409,0.78812 4.56848,1.1395 0.18441,0.35138 1.2546,0.63887 2.3782,0.63887 1.12359,0 2.20111,0.30145 2.39447,0.66989 0.19336,0.36844 2.24811,0.88996 4.56609,1.15893 2.31798,0.26898 4.21451,0.73418 4.21451,1.03378 0,0.29958 1.01935,0.723 2.26522,0.94092 3.71448,0.64971 10.65549,2.30292 11.62811,2.76961 0.92454,0.44359 1.31504,0.53705 8.8626,2.12095 2.38268,0.50003 4.53463,1.14921 4.78212,1.44265 0.24749,0.29343 1.23802,0.53351 2.20119,0.53351 0.96316,0 2.26446,0.32346 2.89177,0.71883 0.6273,0.39536 2.78404,0.92111 4.79275,1.16835 2.0087,0.24726 3.65219,0.68241 3.65219,0.96704 0,0.28463 1.15526,0.72029 2.56725,0.96816 3.57899,0.62826 10.23862,2.2449 11.32609,2.74944 0.49834,0.2312 1.85747,0.61679 3.02029,0.85684 4.18173,0.86327 9.9847,2.28714 10.87304,2.66789 0.49835,0.21359 2.53705,0.78187 4.53043,1.26284 1.99339,0.48096 4.71166,1.14836 6.04058,1.48311 8.94538,2.25332 11.68826,2.92467 13.28928,3.25278 0.9967,0.20426 2.21992,0.56701 2.71827,0.80612 1.02993,0.49416 8.15496,2.17267 11.77913,2.77489 1.32892,0.22083 2.68805,0.65007 3.02029,0.95386 0.33223,0.3038 2.64275,0.7835 5.13449,1.066 2.49173,0.28252 4.80227,0.76222 5.1345,1.06601 0.61643,0.56367 1.17333,0.67976 11.17507,2.32977 3.1562,0.52069 6.14629,1.15236 6.64463,1.4037 0.97049,0.48946 3.01451,0.78363 13.89334,1.99947 3.82067,0.42699 7.41867,1.07259 7.99557,1.43464 0.57691,0.36205 2.56319,0.65828 4.41396,0.65828 1.85078,0 4.50479,0.31929 5.89776,0.70956 5.8185,1.63007 64.74344,5.05115 68.39783,3.97104 l 1.70691,-0.5045 -2.07296,-2.08638 c -1.14013,-1.14751 -2.25742,-2.08713 -2.48286,-2.08805 -0.22545,-7.1e-4 -0.77515,-0.43179 -1.22157,-0.9575 -0.44642,-0.52572 -2.00753,-1.84483 -3.46912,-2.93138 -1.4616,-1.08655 -2.95059,-2.24583 -3.30887,-2.57617 -3.55824,-3.28081 -5.01011,-5.14925 -5.66925,-7.29582 -0.68892,-2.24361 -0.63679,-2.85223 0.4614,-5.38721 1.49571,-3.4526 2.74877,-4.32811 6.19449,-4.32811 2.31171,0 3.81461,0.72923 6.21469,3.01547 1.84916,1.76145 7.68218,6.23206 8.13127,6.23206 0.2898,0 0.6175,0.26463 0.72825,0.58807 0.11075,0.32342 2.91962,2.78493 6.24194,5.47002 3.32231,2.6851 7.45605,6.1017 9.18609,7.59246 1.73003,1.49077 3.42894,2.71048 3.77536,2.71048 0.34642,0 0.62985,0.2511 0.62985,0.55799 0,0.30689 0.85303,1.15137 1.89562,1.87663 3.68359,2.56244 4.44699,3.98495 4.44699,8.28644 0,4.39189 -0.18584,4.71918 -4.83247,8.51065 -1.66116,1.35545 -3.11089,2.70454 -3.22163,2.99796 -0.11076,0.29344 -0.58645,0.53352 -1.05711,0.53352 -0.47066,0 -0.85574,0.24731 -0.85574,0.54958 0,0.30228 -0.9514,1.15295 -2.11421,1.89039 -1.16282,0.73745 -2.11421,1.53771 -2.11421,1.77838 0,0.24067 -0.95138,1.04093 -2.1142,1.77837 -1.16281,0.73744 -2.11419,1.61051 -2.11419,1.94013 0,0.32964 -0.28344,0.59934 -0.62987,0.59934 -0.34641,0 -2.10167,1.28043 -3.90058,2.8454 -1.7989,1.56497 -3.42973,2.84539 -3.62404,2.84539 -0.19433,0 -0.68163,0.32393 -1.08291,0.71984 -0.40126,0.39592 -1.81688,1.67253 -3.14579,2.83691 -1.32893,1.16439 -2.70427,2.39668 -3.0563,2.73843 -3.21098,3.11719 -9.93095,5.65246 -9.93095,3.74668 z"
     id="path4581"
     inkscape:connector-curvature="0" />
  <path
     style="opacity:1;fill:#000000;fill-opacity:1;stroke:none;stroke-width:7.43257999;stroke-miterlimit:4;stroke-dasharray:none;stroke-opacity:1"
     d="m 373.73632,487.27146 c -2.90666,-3.0164 -3.55034,-7.41782 -1.56496,-10.70125 0.63433,-1.04903 4.84335,-4.57832 9.3534,-7.84284 4.51005,-3.26451 8.07099,-6.18151 7.91317,-6.48221 -0.45896,-0.87453 -5.18777,-1.661 -22.44936,-3.73361 -4.04349,-0.48552 -7.55458,-1.12283 -7.80241,-1.41626 -0.24785,-0.29342 -1.56057,-0.53356 -2.91719,-0.53362 -1.35661,-8e-5 -4.59714,-0.48025 -7.20115,-1.06703 -2.60403,-0.5868 -5.78193,-1.06691 -7.06203,-1.06691 -1.2801,0 -2.49545,-0.32011 -2.70078,-0.71134 -0.20532,-0.39125 -1.37664,-0.71635 -2.60289,-0.72246 -1.22627,-0.006 -3.86053,-0.47487 -5.85392,-1.04168 -1.99339,-0.56683 -4.37556,-1.04198 -5.29371,-1.05592 -0.91814,-0.0139 -2.14136,-0.3221 -2.71826,-0.68481 -0.5769,-0.3627 -2.95169,-1.02975 -5.27731,-1.48232 -2.32562,-0.45257 -5.45163,-1.13723 -6.94666,-1.52145 -1.49505,-0.38421 -4.62105,-1.1002 -6.94668,-1.59107 -2.32562,-0.49086 -4.63614,-1.08623 -5.13449,-1.32302 -0.9305,-0.44213 -1.9938,-0.68545 -9.46953,-2.16685 -2.38427,-0.47247 -4.53623,-1.09911 -4.78213,-1.39255 -0.2459,-0.29344 -1.47305,-0.53351 -2.72698,-0.53351 -1.25396,0 -2.42809,-0.28234 -2.6092,-0.62742 -0.1811,-0.34509 -2.16789,-0.85674 -4.41507,-1.137 -2.24719,-0.28027 -4.35762,-0.76219 -4.68985,-1.07095 -0.33223,-0.30874 -1.69136,-0.74669 -3.02028,-0.97321 -6.95148,-1.18493 -11.50963,-2.20794 -11.77913,-2.64363 -0.16612,-0.26855 -1.38933,-0.67655 -2.71827,-0.90664 -4.49074,-0.77754 -11.47142,-2.342 -12.38319,-2.77524 -0.49835,-0.23679 -1.85748,-0.63285 -3.02029,-0.88013 -1.16281,-0.24727 -4.01699,-0.85381 -6.3426,-1.34784 -2.32563,-0.49403 -4.63615,-1.09197 -5.13451,-1.32876 -0.93113,-0.44244 -1.88167,-0.65003 -9.66493,-2.11078 -2.49173,-0.46766 -4.66634,-1.06601 -4.83246,-1.3297 -0.16611,-0.26369 -1.38933,-0.66039 -2.71826,-0.88156 -2.38072,-0.3962 -9.77616,-2.08264 -14.49739,-3.30595 -1.32893,-0.34434 -4.31901,-1.00897 -6.64464,-1.47696 -2.32562,-0.46799 -4.77205,-1.09156 -5.43653,-1.38572 -1.44073,-0.63784 -7.48858,-2.0834 -10.87304,-2.5989 -1.32892,-0.2024 -2.82397,-0.56107 -3.32231,-0.79701 -0.94793,-0.44879 -7.84452,-2.08726 -11.4771,-2.72669 -1.16283,-0.20468 -2.65787,-0.65129 -3.32233,-0.99245 -1.09983,-0.56472 -5.79828,-1.5804 -12.08116,-2.61166 -1.32892,-0.21813 -2.68805,-0.64504 -3.0203,-0.94869 -0.33222,-0.30366 -2.37092,-0.78348 -4.53043,-1.06626 -2.1595,-0.28277 -4.19821,-0.76066 -4.53043,-1.06195 -0.33224,-0.30129 -1.55545,-0.73116 -2.71827,-0.95524 -1.16282,-0.22406 -4.01698,-0.76327 -6.3426,-1.19824 -2.32562,-0.43497 -4.77207,-1.06999 -5.43653,-1.41116 -1.25938,-0.64662 -2.05424,-0.81779 -10.67402,-2.29852 -2.88062,-0.49485 -5.440316,-1.13981 -5.688213,-1.43323 -0.247887,-0.29344 -1.646496,-0.53351 -3.108008,-0.53351 -1.461512,0 -3.135876,-0.30163 -3.720816,-0.67027 -0.584934,-0.36866 -3.896936,-0.89113 -7.359995,-1.16104 -3.463064,-0.26991 -6.568309,-0.73059 -6.900542,-1.02373 -0.332232,-0.29315 -2.914579,-0.72935 -5.738552,-0.96935 -2.82397,-0.23999 -8.260493,-0.73578 -12.08116,-1.10174 -3.820667,-0.36597 -14.600068,-0.68774 -23.954224,-0.71503 -16.118092,-0.047 -17.132805,-0.12837 -19.40248,-1.55504 -2.371328,-1.49056 -4.410703,-5.07312 -4.319732,-7.58844 0.06444,-1.78188 1.923626,-5.24192 3.297642,-6.13711 0.653753,-0.42592 1.346439,-1.02563 1.539302,-1.33266 0.456188,-0.72624 27.244516,-0.15866 38.913114,0.82449 13.145154,1.10754 26.438824,2.60828 27.484642,3.10278 0.498347,0.23563 2.537043,0.61102 4.530436,0.83422 5.031622,0.56334 20.002226,3.31526 24.995566,4.59471 6.12447,1.56929 15.08959,3.65071 17.59052,4.08397 1.16282,0.20145 2.65785,0.6454 3.32232,0.98656 0.66447,0.34118 3.1109,0.97619 5.43653,1.41117 2.32563,0.43495 5.1798,0.97417 6.34261,1.19824 1.1628,0.22408 2.38603,0.65809 2.71826,0.96449 0.33224,0.30638 2.50684,0.78749 4.83246,1.06911 2.32563,0.28164 4.50023,0.75535 4.83247,1.05271 0.33223,0.29736 1.55544,0.72595 2.71826,0.9524 9.33925,1.81887 11.44427,2.31333 11.83542,2.7801 0.2459,0.29341 1.47306,0.53351 2.727,0.53351 1.25395,0 2.42808,0.28233 2.60918,0.62741 0.18111,0.34508 2.16789,0.85672 4.41507,1.13701 2.24718,0.28027 4.35762,0.76026 4.68985,1.06665 0.33224,0.30638 1.55546,0.7313 2.71827,0.94425 9.14496,1.67473 11.8187,2.26911 12.08116,2.68574 0.16611,0.26368 1.38933,0.66769 2.71825,0.89778 4.49075,0.77754 11.47144,2.342 12.38319,2.77522 0.49836,0.2368 1.72158,0.58812 2.71827,0.78071 7.06684,1.36552 10.43067,2.13882 11.4771,2.63844 0.66446,0.31726 2.02359,0.72967 3.0203,0.91649 6.91291,1.29578 10.43051,2.09949 11.4771,2.6223 0.66446,0.33192 2.15951,0.75264 3.32231,0.93491 1.16282,0.18228 4.28881,0.86134 6.94668,1.50904 2.65785,0.64768 6.0931,1.45374 7.63389,1.79123 1.54077,0.33751 3.85131,0.95694 5.13449,1.37652 1.28319,0.41959 3.17119,0.76467 4.19557,0.76685 1.02438,0.002 2.065,0.24405 2.3125,0.53748 0.4246,0.50344 6.18949,1.89422 11.5305,2.78175 1.32892,0.22083 2.68805,0.64996 3.0203,0.9536 0.33222,0.30366 2.37092,0.78348 4.53043,1.06626 2.1595,0.28278 4.19821,0.76259 4.53043,1.06625 0.33224,0.30365 1.69137,0.73744 3.02029,0.96397 4.37135,0.74514 11.45998,2.33007 12.38319,2.76873 0.96042,0.45636 2.72354,0.85187 9.06087,2.03257 2.1595,0.40233 4.47004,1.01064 5.1345,1.35182 1.32702,0.68136 2.91173,1.01022 10.57102,2.19374 2.82396,0.43637 5.67814,1.0628 6.3426,1.39209 1.35556,0.67175 3.14703,0.97268 12.68522,2.1308 3.65455,0.44372 7.11665,1.09895 7.69354,1.45609 0.5769,0.35711 2.52995,0.6493 4.34011,0.6493 1.81015,0 3.9543,0.2969 4.76477,0.65976 2.04724,0.91662 17.33086,1.8318 17.33086,1.03777 0,-0.35042 -1.2344,-1.75601 -2.74311,-3.12353 -1.50871,-1.36753 -3.07171,-2.80652 -3.47333,-3.19778 -0.40163,-0.39123 -2.63301,-2.55232 -4.95863,-4.80241 -5.60603,-5.42394 -5.73855,-5.64207 -5.73855,-9.44535 0,-3.40325 0.60111,-4.56845 3.56488,-6.91019 3.33886,-2.63809 4.90273,-1.79835 15.97005,8.57527 3.70321,3.47107 4.07869,3.81844 7.04562,6.51784 1.49395,1.35924 2.85218,2.64047 3.0183,2.8472 0.16611,0.20671 1.93297,1.81471 3.92638,3.57332 1.99339,1.75861 3.76025,3.35834 3.92636,3.55494 0.16612,0.19662 1.64183,1.62622 3.27936,3.17692 5.74329,5.43875 5.99234,5.82934 6.0398,9.47214 0.0494,3.78496 -1.48404,6.90494 -3.73161,7.59293 -0.74753,0.22883 -1.35913,0.73006 -1.35913,1.11385 0,0.38379 -0.27479,0.6978 -0.61066,0.6978 -0.33584,0 -7.56149,5.12172 -16.057,11.38159 -8.49549,6.25987 -15.66265,11.38158 -15.92699,11.38158 -0.26434,0 -0.81901,0.48016 -1.23261,1.06702 -1.08962,1.54612 -6.59155,1.38822 -8.15478,-0.23401 z"
     id="path4583"
     inkscape:connector-curvature="0" />
</svg>
