<?xml version="1.0" standalone="no"?><!DOCTYPE svg PUBLIC "-//W3C//DTD SVG 1.1//EN" "http://www.w3.org/Graphics/SVG/1.1/DTD/svg11.dtd"><svg t="1578917960129" class="icon" viewBox="0 0 1024 1024" version="1.1" xmlns="http://www.w3.org/2000/svg" p-id="1908" xmlns:xlink="http://www.w3.org/1999/xlink" width="200" height="200"><defs><style type="text/css"></style></defs><path d="M994.790391 825.627406C994.473443 825.968736 994.229636 826.383207 993.888307 826.724536L993.010603 827.114626C976.480521 842.620721 954.611076 852.29984 930.401088 853.275066L558.059763 1008.872391C545.430585 1016.503535 533.801014 1021.233381 522.171442 1023.03755 519.050719 1024.476008 515.637428 1025.378092 511.955949 1025.378092 508.323232 1025.378092 504.934321 1024.500389 501.813598 1023.086311 489.57451 1021.330904 476.701526 1016.479154 462.024373 1008.11659L91.365313 853.05564C68.83759 851.617182 48.504126 842.669483 32.705463 828.504323L28.463229 826.724536C9.080611 807.341917-0.305941 781.815374 0.035389 756.410734 0.035389 756.313211 0.011008 756.240069 0.011008 756.142547L0.011008 268.529497C0.011008 248.09851 6.349978 229.179124 17.077465 213.526745 20.783324 207.74853 25.049938 202.238503 30.121114 197.167327L32.876127 196.021436C48.626029 181.97818 68.83759 173.103623 91.219029 171.640784L465.974038 15.043853C498.717255-4.753237 524.658269-5.533418 561.985048 15.799653L935.057793 171.86021C955.781347 173.713139 974.481308 181.880658 989.451028 194.631739L995.546191 197.167327C1015.026333 216.671849 1024.388503 242.344676 1023.925271 267.871219 1023.925271 268.090645 1023.998413 268.310071 1023.998413 268.529497L1023.998413 756.142547C1023.998413 783.375736 1012.783313 807.927053 994.790391 825.627406ZM545.650011 962.207822 929.303959 804.611284C940.519059 803.953006 950.637029 799.564489 958.536361 792.616003L959.414064 792.250293C959.657871 792.006487 959.706632 791.689538 959.950439 791.445732 969.312609 782.571174 975.237108 770.08828 975.237108 756.142547L975.237108 268.529497C975.237108 268.115026 975.115205 267.724935 975.115205 267.310464 975.163966 265.65258 974.749495 264.092218 974.627592 262.458714 974.57883 262.044243 974.456927 261.678533 974.383785 261.264062L536.726692 461.161032 536.726692 967.157094C539.530467 965.669874 542.504907 964.01199 545.650011 962.207822ZM48.772313 756.142547C48.772313 756.386353 48.845455 756.605779 48.845455 756.873966 48.821074 758.14176 49.162403 759.360793 49.235545 760.652968 49.528113 763.968736 50.16201 767.186982 51.112856 770.283325 53.233972 778.280179 56.671644 785.984465 62.961853 792.250293L67.106564 793.956939C74.225714 799.710773 82.929607 803.392251 92.511203 804.391858L476.701526 962.207822C480.456146 964.499603 483.942579 966.401294 487.209587 968.034798L487.209587 461.112271C486.990161 460.770942 486.624451 460.551516 486.429406 460.210187L48.772313 269.065871 48.772313 756.142547ZM933.960663 220.523992 547.307895 61.708422C516.076279 42.667132 503.471482 47.226314 478.335029 61.708422L92.243016 220.304566C85.635859 221.035986 79.711361 223.42529 74.201333 226.472871L508.835226 416.325012C509.907974 416.178728 510.85882 415.691115 511.955949 415.691115 513.370027 415.691115 514.564679 416.25187 515.905615 416.471296L940.811626 222.425683C938.544226 221.743025 936.349967 220.889702 933.960663 220.523992Z" p-id="1909"></path></svg>