<?xml version="1.0" standalone="no"?><!DOCTYPE svg PUBLIC "-//W3C//DTD SVG 1.1//EN" "http://www.w3.org/Graphics/SVG/1.1/DTD/svg11.dtd"><svg t="1578908230116" class="icon" viewBox="0 0 1029 1024" version="1.1" xmlns="http://www.w3.org/2000/svg" p-id="1837" xmlns:xlink="http://www.w3.org/1999/xlink" width="200.9765625" height="200"><defs><style type="text/css"></style></defs><path d="M1018.810483 850.571129L533.635925 10.349755a22.435818 22.435818 0 0 0-37.804353 0L10.657013 850.571129a119.134192 119.134192 0 0 0-10.657013 35.897308c0 94.566972 266.761873 137.531563 514.789838 137.531563s514.677659-42.964591 514.677659-137.531563a119.134192 119.134192 0 0 0-10.657014-35.897308z m-504.020645-785.253621l427.402328 740.381985c-98.717598-38.477427-266.874052-56.089544-427.402328-56.089544s-328.68473 18.173012-427.514507 56.089544z m0 915.381364c-304.790584 0-471.152172-62.035036-471.152173-93.893897s166.249409-94.006076 471.152173-94.006077 471.152172 62.147215 471.152172 94.006077-166.473768 93.55736-471.152172 93.55736z" p-id="1838"></path></svg>