<?xml version="1.0" standalone="no"?><!DOCTYPE svg PUBLIC "-//W3C//DTD SVG 1.1//EN" "http://www.w3.org/Graphics/SVG/1.1/DTD/svg11.dtd"><svg t="1578908181685" class="icon" viewBox="0 0 1024 1024" version="1.1" xmlns="http://www.w3.org/2000/svg" p-id="1567" xmlns:xlink="http://www.w3.org/1999/xlink" width="200" height="200"><defs><style type="text/css"></style></defs><path d="M149.979798 121.018182h51.717172V889.535354H149.979798zM822.30303 115.846465h51.717172v780.929293h-51.717172z" p-id="1568"></path><path d="M149.979798 884.363636h51.717172c0 13.446465 27.927273 34.133333 79.644444 50.682829 59.991919 18.618182 141.705051 29.99596 228.589899 29.995959s168.59798-11.377778 228.589899-29.995959c52.751515-16.549495 79.644444-37.236364 79.644445-50.682829h51.717171c0 80.678788-161.357576 132.39596-359.951515 132.39596S149.979798 965.042424 149.979798 884.363636zM509.931313 270.99798C311.337374 270.99798 149.979798 220.315152 149.979798 139.636364S311.337374 7.240404 509.931313 7.240404s359.951515 51.717172 359.951515 132.39596-160.323232 131.361616-359.951515 131.361616z m0-51.717172c86.884848 0 168.59798-11.377778 228.589899-29.99596 52.751515-16.549495 79.644444-37.236364 79.644445-50.682828s-27.927273-34.133333-79.644445-50.682828c-59.991919-18.618182-141.705051-29.99596-228.589899-29.99596s-168.59798 11.377778-228.589899 31.030303C228.589899 105.50303 201.69697 126.189899 201.69697 139.636364s27.927273 34.133333 79.644444 50.682828c59.991919 18.618182 141.705051 28.961616 228.589899 28.961616z" p-id="1569"></path><path d="M509.931313 995.038384c-8.274747 0-15.515152-7.240404-15.515151-15.515152s7.240404-15.515152 15.515151-15.515151h10.343434c8.274747 0 15.515152 7.240404 15.515152 15.515151s-7.240404 15.515152-15.515152 15.515152h-10.343434z m73.438384-2.068687c-8.274747 1.034343-15.515152-6.206061-16.549495-14.480808-1.034343-8.274747 6.206061-15.515152 14.480808-16.549495 3.10303 0 7.240404 0 10.343434-1.034343 8.274747-1.034343 15.515152 5.171717 16.549495 14.480808 1.034343 8.274747-5.171717 15.515152-14.480808 16.549495-3.10303 1.034343-6.206061 1.034343-10.343434 1.034343z m73.438384-8.274748c-8.274747 1.034343-16.549495-4.137374-17.583839-13.446464-1.034343-8.274747 4.137374-16.549495 13.446465-17.583839 3.10303 0 6.206061-1.034343 10.343434-2.068686 8.274747-1.034343 16.549495 4.137374 17.583839 12.412121 1.034343 8.274747-4.137374 16.549495-12.412121 17.583838-4.137374 2.068687-8.274747 3.10303-11.377778 3.10303z m72.40404-14.480808c-8.274747 2.068687-16.549495-3.10303-18.618182-11.377777s3.10303-16.549495 11.377778-18.618182l9.309091-3.10303c8.274747-2.068687 16.549495 2.068687 19.652525 10.343434 2.068687 8.274747-2.068687 16.549495-10.343434 19.652525-4.137374 1.034343-7.240404 2.068687-11.377778 3.10303z m71.369697-25.858585c-7.240404 4.137374-16.549495 1.034343-20.686869-7.240404-4.137374-7.240404-1.034343-16.549495 7.240405-20.686869 3.10303-1.034343 6.206061-3.10303 8.274747-4.137374 7.240404-4.137374 16.549495-2.068687 20.686869 6.206061 4.137374 7.240404 2.068687 16.549495-6.206061 20.686868-3.10303 1.034343-6.206061 3.10303-9.309091 5.171718z m57.923233-61.026263c-2.068687 8.274747-10.343434 13.446465-18.618182 12.412121-8.274747-2.068687-13.446465-10.343434-12.412122-18.618182v-4.137373-2.068687c-1.034343-8.274747 5.171717-16.549495 13.446465-16.549495 8.274747-1.034343 16.549495 5.171717 16.549495 13.446464v5.171718c2.068687 4.137374 2.068687 7.240404 1.034344 10.343434z m-45.511112-73.438384c7.240404 4.137374 9.309091 13.446465 5.171718 21.721212-4.137374 7.240404-13.446465 9.309091-21.721213 5.171717-3.10303-2.068687-5.171717-3.10303-8.274747-4.137373-7.240404-4.137374-10.343434-13.446465-6.206061-20.686869s13.446465-10.343434 20.686869-6.206061c4.137374 1.034343 7.240404 3.10303 10.343434 4.137374z m-69.30101-28.961616c8.274747 2.068687 12.412121 11.377778 10.343435 19.652525-2.068687 8.274747-11.377778 12.412121-19.652526 10.343435l-9.309091-3.103031c-8.274747-2.068687-13.446465-10.343434-10.343434-18.618182 2.068687-8.274747 10.343434-13.446465 18.618182-10.343434 3.10303 0 6.206061 1.034343 10.343434 2.068687z m-73.438384-16.549495c8.274747 1.034343 14.480808 9.309091 12.412122 17.583838s-9.309091 14.480808-17.583839 12.412122c-3.10303-1.034343-6.206061-1.034343-10.343434-2.068687-8.274747-1.034343-14.480808-9.309091-12.412121-17.583839 1.034343-8.274747 9.309091-14.480808 17.583838-12.412121 4.137374 1.034343 7.240404 2.068687 10.343434 2.068687z m-73.438383-9.309091c8.274747 1.034343 14.480808 8.274747 14.480808 16.549495-1.034343 8.274747-8.274747 14.480808-16.549495 14.480808-3.10303 0-7.240404-1.034343-10.343435-1.034343-8.274747-1.034343-14.480808-8.274747-14.480808-16.549495 1.034343-8.274747 8.274747-14.480808 16.549495-14.480808 3.10303 1.034343 7.240404 1.034343 10.343435 1.034343z m-72.404041-3.10303c8.274747 0 15.515152 7.240404 15.515152 15.515151s-7.240404 15.515152-15.515152 15.515152h-10.343434c-8.274747 0-15.515152-7.240404-15.515152-15.515152s7.240404-15.515152 15.515152-15.515151h10.343434z m-73.438384 1.034343c8.274747 0 15.515152 6.206061 16.549495 14.480808 0 8.274747-6.206061 15.515152-14.480808 16.549495-3.10303 0-7.240404 0-10.343434 1.034344-8.274747 1.034343-15.515152-6.206061-16.549495-14.480808-1.034343-8.274747 6.206061-15.515152 14.480808-16.549495 3.10303 0 6.206061 0 10.343434-1.034344z m-73.438383 7.240404c8.274747-1.034343 16.549495 5.171717 17.583838 13.446465 1.034343 8.274747-5.171717 16.549495-13.446465 17.583838-3.10303 0-7.240404 1.034343-10.343434 1.034344-8.274747 1.034343-16.549495-4.137374-17.583838-13.446465-1.034343-8.274747 4.137374-16.549495 13.446464-17.583838 3.10303 0 7.240404-1.034343 10.343435-1.034344z m-72.404041 13.446465c8.274747-2.068687 16.549495 3.10303 18.618182 11.377778 2.068687 8.274747-3.10303 16.549495-11.377778 18.618181-3.10303 1.034343-6.206061 2.068687-9.309091 2.068687-8.274747 2.068687-16.549495-3.10303-18.618182-11.377777-2.068687-8.274747 3.10303-16.549495 11.377778-18.618182 2.068687 0 5.171717-1.034343 9.309091-2.068687zM233.761616 796.444444c8.274747-3.10303 16.549495 0 20.686869 8.274748 3.10303 8.274747 0 16.549495-8.274748 20.686869-3.10303 1.034343-6.206061 3.10303-9.309091 4.137373-7.240404 4.137374-16.549495 1.034343-20.686868-7.240404s-1.034343-16.549495 7.240404-20.686868c3.10303-2.068687 6.206061-3.10303 10.343434-5.171718z m-65.163636 49.648485c4.137374-7.240404 13.446465-10.343434 21.721212-5.171717s10.343434 13.446465 5.171717 21.721212l-3.10303 6.206061c-2.068687 8.274747-11.377778 12.412121-19.652525 10.343434-8.274747-2.068687-12.412121-11.377778-10.343435-19.652525 1.034343-5.171717 3.10303-9.309091 6.206061-13.446465z m24.824242 81.713132c-7.240404-5.171717-8.274747-14.480808-3.10303-21.721213s14.480808-8.274747 21.721212-3.10303c2.068687 2.068687 5.171717 3.10303 7.240404 5.171717 7.240404 4.137374 9.309091 14.480808 5.171717 21.721212s-14.480808 9.309091-21.721212 5.171718c-3.10303-2.068687-6.206061-5.171717-9.309091-7.240404zM263.757576 961.939394c-8.274747-3.10303-12.412121-11.377778-9.309091-19.652525s11.377778-12.412121 19.652525-9.309091l9.309091 3.10303c8.274747 2.068687 12.412121 11.377778 10.343434 19.652525-2.068687 8.274747-11.377778 12.412121-19.652525 10.343435-4.137374-2.068687-7.240404-3.10303-10.343434-4.137374z m71.369697 18.618182c-8.274747-2.068687-13.446465-9.309091-12.412121-18.618182 2.068687-8.274747 9.309091-13.446465 18.618181-12.412121 3.10303 1.034343 6.206061 1.034343 10.343435 2.068687 8.274747 1.034343 14.480808 9.309091 12.412121 17.583838-1.034343 8.274747-9.309091 14.480808-17.583838 12.412121-4.137374 0-7.240404-1.034343-11.377778-1.034343z m74.472727 10.343434c-8.274747-1.034343-14.480808-8.274747-13.446465-16.549495 1.034343-8.274747 8.274747-14.480808 16.549495-13.446464 3.10303 0 7.240404 1.034343 10.343435 1.034343 8.274747 1.034343 14.480808 8.274747 14.480808 16.549495-1.034343 8.274747-8.274747 14.480808-16.549495 14.480808-5.171717-2.068687-8.274747-2.068687-11.377778-2.068687z m72.40404 4.137374c-8.274747 0-15.515152-7.240404-15.515151-15.515152s7.240404-15.515152 15.515151-15.515151h10.343435c8.274747 0 15.515152 7.240404 15.515151 15.515151s-7.240404 15.515152-15.515151 15.515152h-10.343435z" p-id="1570"></path><path d="M512 134.464646m-20.686869 0a20.686869 20.686869 0 1 0 41.373738 0 20.686869 20.686869 0 1 0-41.373738 0Z" p-id="1571"></path><path d="M512 868.848485m-20.686869 0a20.686869 20.686869 0 1 0 41.373738 0 20.686869 20.686869 0 1 0-41.373738 0Z" p-id="1572"></path></svg>