<?xml version="1.0" standalone="no"?><!DOCTYPE svg PUBLIC "-//W3C//DTD SVG 1.1//EN" "http://www.w3.org/Graphics/SVG/1.1/DTD/svg11.dtd"><svg t="1576065451369" class="icon" viewBox="0 0 1024 1024" version="1.1" xmlns="http://www.w3.org/2000/svg" p-id="4897" xmlns:xlink="http://www.w3.org/1999/xlink" width="200" height="200"><defs><style type="text/css"></style></defs><path d="M901.12 491.52h20.48v307.2h-81.92V573.44H552.96v225.28h-81.92V573.44H184.32v225.28H102.4V491.52h368.64V278.85568h81.92V491.52h348.16z" p-id="4898"></path><path d="M380.33408 254.54592H643.6864V73.1136H380.3136v181.41184zM307.2 0h409.6v327.68H307.2V0zM73.13408 810.41408v140.45184h140.45184V810.3936H73.1136zM0 737.28h286.72v286.72H0V737.28z m441.77408 73.13408v140.45184h140.45184V810.3936H441.7536zM368.64 737.28h286.72v286.72H368.64V737.28z m441.77408 213.58592h140.45184V810.3936H810.3936v140.45184zM737.28 737.28h286.72v286.72H737.28V737.28z" p-id="4899"></path></svg>