<?xml version="1.0" standalone="no"?><!DOCTYPE svg PUBLIC "-//W3C//DTD SVG 1.1//EN" "http://www.w3.org/Graphics/SVG/1.1/DTD/svg11.dtd"><svg t="1575924421972" class="icon" viewBox="0 0 1024 1024" version="1.1" xmlns="http://www.w3.org/2000/svg" p-id="7872" xmlns:xlink="http://www.w3.org/1999/xlink" width="200" height="200"><defs><style type="text/css"></style></defs><path d="M618.666667 443.4944l-179.2 0c-2.346667 0-4.266667 1.92-4.266667 4.266667l0 221.866667c0 2.346667 1.92 4.266667 4.266667 4.266667l179.2 0c2.346667 0 4.266667-1.92 4.266667-4.266667l0-221.866667C622.933333 445.405867 621.013333 443.4944 618.666667 443.4944z" p-id="7873"></path><path d="M512 128c-212.078933 0-384 171.921067-384 384s171.921067 384 384 384 384-171.921067 384-384S724.078933 128 512 128zM348.4672 508.714667c1.271467 6.946133-3.328 13.627733-10.274133 14.907733-0.785067 0.145067-1.570133 0.2048-2.3296 0.2048-6.058667 0-11.434667-4.317867-12.578133-10.487467-18.167467-98.773333 48.0512-194.039467 147.6096-212.3776 19.2256-3.524267 38.903467-3.933867 58.1376-1.3568l-46.498133-42.180267c-5.230933-4.753067-5.632-12.8512-0.887467-18.082133 4.753067-5.239467 12.859733-5.614933 18.082133-0.887467l78.327467 71.048533c2.944 2.6624 4.471467 6.545067 4.155733 10.496-0.315733 3.950933-2.440533 7.534933-5.768533 9.7024l-88.9344 58.026667c-2.158933 1.408-4.5824 2.082133-6.980267 2.082133-4.1728 0-8.277333-2.039467-10.7264-5.8112-3.8656-5.9136-2.2016-13.8496 3.729067-17.706667l61.115733-39.876267c-19.413333-3.746133-39.534933-3.8656-59.136-0.273067C389.853867 341.922133 332.8512 423.825067 348.4672 508.714667zM648.533333 669.627733c0 16.469333-13.397333 29.866667-29.866667 29.866667l-179.2 0c-16.469333 0-29.866667-13.397333-29.866667-29.866667l0-221.866667c0-16.469333 13.397333-29.866667 29.866667-29.866667l179.2 0c16.469333 0 29.866667 13.397333 29.866667 29.866667L648.533333 669.627733z" p-id="7874"></path></svg>