<?xml version="1.0" standalone="no"?><!DOCTYPE svg PUBLIC "-//W3C//DTD SVG 1.1//EN" "http://www.w3.org/Graphics/SVG/1.1/DTD/svg11.dtd"><svg t="1575979930073" class="icon" viewBox="0 0 1024 1024" version="1.1" xmlns="http://www.w3.org/2000/svg" p-id="7759" xmlns:xlink="http://www.w3.org/1999/xlink" width="200" height="200"><defs><style type="text/css"></style></defs><path d="M942.013 496.916l-30.17-30.173h-0.001l-181.019-181.02c-8.33-8.328-21.838-8.328-30.169 0l-30.169 30.172c-8.331 8.327-8.331 21.837 0 30.166l30.169 30.172 0.006 0.005 93.093 93.094H374.406v85.333h419.348l-93.091 93.094-0.006 0.005-30.17 30.172c-8.33 8.328-8.33 21.833 0 30.166l30.17 30.167c8.33 8.333 21.838 8.333 30.169 0l30.169-30.167 0.005-0.005 150.84-150.836 0.005-0.005 30.17-30.173c8.328-8.328 8.328-21.839-0.002-30.167zM609.072 874.667h-448V149.332h448c11.783 0 21.334-9.552 21.334-21.333V85.334c0-11.781-9.551-21.333-21.334-21.333l-448-0.001c-47.127 0-85.333 38.209-85.333 85.334v725.332c0 47.126 38.206 85.334 85.333 85.334h448c11.783 0 21.334-9.552 21.334-21.333V896c0-11.781-9.551-21.333-21.334-21.333z" fill="#272536" p-id="7760"></path></svg>