<?xml version="1.0" standalone="no"?><!DOCTYPE svg PUBLIC "-//W3C//DTD SVG 1.1//EN" "http://www.w3.org/Graphics/SVG/1.1/DTD/svg11.dtd"><svg t="1576065936725" class="icon" viewBox="0 0 1027 1024" version="1.1" xmlns="http://www.w3.org/2000/svg" p-id="20863" xmlns:xlink="http://www.w3.org/1999/xlink" width="200.5859375" height="200"><defs><style type="text/css"></style></defs><path d="M512 426.666667c-4.266667 0-8.533333 0-12.8-4.266667l-469.333333-170.666667C12.8 247.466667 0 230.4 0 213.333333s12.8-34.133333 29.866667-38.4l469.333333-170.666667c8.533333-4.266667 21.333333-4.266667 29.866667 0l469.333333 170.666667C1011.2 179.2 1024 196.266667 1024 213.333333s-12.8 34.133333-29.866667 38.4l-469.333333 170.666667C520.533333 426.666667 516.266667 426.666667 512 426.666667zM166.4 213.333333 512 337.066667 857.6 213.333333 512 89.6 166.4 213.333333z" p-id="20864"></path><path d="M512 1024c-4.266667 0-8.533333 0-12.8-4.266667l-469.333333-170.666667c-21.333333-8.533333-34.133333-34.133333-25.6-55.466667 8.533333-21.333333 34.133333-34.133333 55.466667-25.6L512 934.4l456.533333-166.4c21.333333-8.533333 46.933333 4.266667 55.466667 25.6 8.533333 21.333333-4.266667 46.933333-25.6 55.466667l-469.333333 170.666667C520.533333 1024 516.266667 1024 512 1024z" p-id="20865"></path><path d="M512 1024c-25.6 0-42.666667-17.066667-42.666667-42.666667L469.333333 384c0-25.6 17.066667-42.666667 42.666667-42.666667s42.666667 17.066667 42.666667 42.666667l0 597.333333C554.666667 1006.933333 537.6 1024 512 1024z" p-id="20866"></path><path d="M981.333333 853.333333c-25.6 0-42.666667-17.066667-42.666667-42.666667L938.666667 213.333333c0-25.6 17.066667-42.666667 42.666667-42.666667s42.666667 17.066667 42.666667 42.666667l0 597.333333C1024 836.266667 1006.933333 853.333333 981.333333 853.333333z" p-id="20867"></path><path d="M42.666667 853.333333c-25.6 0-42.666667-17.066667-42.666667-42.666667L0 213.333333c0-25.6 17.066667-42.666667 42.666667-42.666667s42.666667 17.066667 42.666667 42.666667l0 597.333333C85.333333 836.266667 68.266667 853.333333 42.666667 853.333333z" p-id="20868"></path></svg>