<?xml version="1.0" standalone="no"?><!DOCTYPE svg PUBLIC "-//W3C//DTD SVG 1.1//EN" "http://www.w3.org/Graphics/SVG/1.1/DTD/svg11.dtd"><svg t="1576065591019" class="icon" viewBox="0 0 1024 1024" version="1.1" xmlns="http://www.w3.org/2000/svg" p-id="10098" xmlns:xlink="http://www.w3.org/1999/xlink" width="200" height="200"><defs><style type="text/css"></style></defs><path d="M-15.00592355-14.97983052v1054.80096851h1054.80096851V-14.9798111H-15.00590899zM322.53554537 997.62952723H27.19065339V702.28966939h295.3448677V997.62956607zM322.53554537 660.09315555H27.19065339V364.74948206h295.3448677V660.09310701zM322.53554537 322.5616384H27.19065339V27.21302301h295.3448677V322.56161898zM660.07070341 997.62952723H364.72338417V702.28966939h295.34859598V997.62956607zM660.07070341 660.09315555H364.72338417V364.74948206h295.34859598V660.09310701zM660.07070341 322.5616384H364.72338417V27.21302301h295.34859598V322.56161898zM997.60343419 997.62952723H702.26357149V702.28966939h295.33989668V997.62956607zM997.60343419 660.09315555H702.26357149V364.74948206h295.33989668V660.09310701zM997.60343419 322.5616384H702.26357149V27.21302301h295.33989668V322.56161898z" p-id="10099"></path></svg>