<?xml version="1.0" standalone="no"?><!DOCTYPE svg PUBLIC "-//W3C//DTD SVG 1.1//EN" "http://www.w3.org/Graphics/SVG/1.1/DTD/svg11.dtd"><svg t="1575924714899" class="icon" viewBox="0 0 1025 1024" version="1.1" xmlns="http://www.w3.org/2000/svg" p-id="11463" xmlns:xlink="http://www.w3.org/1999/xlink" width="200.1953125" height="200"><defs><style type="text/css"></style></defs><path d="M511.308191 960.256996c-60.440268 0-119.182214-11.888251-174.427617-35.165247-53.347278-22.577687-101.299887-54.845797-142.45921-96.00512-41.159323-41.159323-73.427433-89.111932-96.00512-142.45921-23.376897-55.245402-35.165247-113.887447-35.165247-174.427616 0-60.440268 11.888251-119.182214 35.165247-174.427617 22.577687-53.347278 54.845797-101.299887 96.00512-142.45921 41.159323-41.159323 89.111932-73.427433 142.45921-96.00512 55.245402-23.376897 113.887447-35.165247 174.427617-35.165247 60.440268 0 119.182214 11.888251 174.427616 35.165247 53.347278 22.577687 101.299887 54.845797 142.45921 96.00512 41.159323 41.159323 73.427433 89.111932 96.00512 142.45921 23.376897 55.245402 35.165247 113.887447 35.165247 174.427617 0 60.440268-11.888251 119.182214-35.165247 174.427616-22.577687 53.347278-54.845797 101.299887-96.00512 142.45921s-89.111932 73.427433-142.45921 96.00512c-55.245402 23.376897-113.887447 35.165247-174.427616 35.165247z m0-895.115374c-246.556333 0-447.058181 200.501848-447.058181 447.058181s200.501848 447.058181 447.058181 447.05818S958.366371 758.756136 958.366371 512.199803 757.864524 65.141622 511.308191 65.141622z" fill="#CCCCCC" p-id="11464"></path><path d="M511.308191 704.509746c-105.995247 0-192.309944-86.314697-192.309944-192.309943s86.314697-192.309944 192.309944-192.309944 192.309944 86.314697 192.309943 192.309944-86.214796 192.309944-192.309943 192.309943z m0-383.620874c-105.495741 0-191.310931 85.81519-191.310931 191.310931s85.81519 191.310931 191.310931 191.310931 191.310931-85.81519 191.310931-191.310931-85.81519-191.310931-191.310931-191.310931z" fill="#CCCCCC" p-id="11465"></path><path d="M909.115046 928.588294h-792.217067c-10.589535 0-19.181044-8.591509-19.181044-19.181044V117.090282c0-10.589535 8.591509-19.181044 19.181044-19.181044h792.217067c10.589535 0 19.181044 8.591509 19.181043 19.181044v792.316968c0 10.589535-8.591509 19.181044-19.181043 19.181044z m-792.217067-829.280438c-9.790324 0-17.782426 7.992102-17.782426 17.782426v792.316968c0 9.790324 7.992102 17.782426 17.782426 17.782426h792.217067c9.790324 0 17.782426-7.992102 17.782426-17.782426V117.090282c0-9.790324-7.992102-17.782426-17.782426-17.782426h-792.217067z" fill="#CCCCCC" p-id="11466"></path><path d="M909.115046 959.957292h-792.217067c-10.789337 0-19.181044-8.991114-19.181044-20.379859V84.322665c0-11.388745 8.591509-20.679563 19.181044-20.679562h792.217067c10.589535 0 19.181044 9.290818 19.181043 20.679562V939.577433c0 11.488646-8.391707 20.379859-19.181043 20.379859z m-792.217067-894.915572c-9.790324 0-17.782426 8.69141-17.782426 19.280945V939.577433c0 10.689436 7.792299 18.981241 17.782426 18.981241h792.217067c9.990127 0 17.782426-8.391707 17.782426-18.981241V84.322665c0-10.589535-7.992102-19.280945-17.782426-19.280945h-792.217067z" fill="#CCCCCC" p-id="11467"></path><path d="M939.984538 928.488392H84.629869c-11.388745 0-20.679563-8.591509-20.679563-19.181043v-792.217067c0-10.589535 9.290818-19.181044 20.679563-19.181044h855.254768c11.388745 0 20.679563 8.591509 20.679562 19.181044v792.217067c0.099901 10.589535-9.190917 19.181044-20.579661 19.181043zM84.629869 99.307856c-10.589535 0-19.280945 7.992102-19.280945 17.782426v792.217067c0 9.790324 8.69141 17.782426 19.280945 17.782426h855.254768c10.589535 0 19.280945-7.992102 19.280945-17.782426v-792.217067c0-9.790324-8.69141-17.782426-19.280945-17.782426H84.629869z" fill="#CCCCCC" p-id="11468"></path><path d="M0.000506 0.989023l0.989023-0.989023 1023.010977 1023.010977-0.989022 0.989023z" fill="#CCCCCC" p-id="11469"></path><path d="M0.000506 1023.010977L1023.011484 0l0.989022 0.989023L0.989529 1024z" fill="#CCCCCC" p-id="11470"></path><path d="M163.152267 525.886276h-2.997038v-1.998025h-31.968407v-24.076206h3.09694V520.991114h28.871467v-21.478773h2.997038v26.373935z m-2.097927-0.999012h0.999013v-24.475811h-0.999013V521.990127h-30.869492v-21.179069h-1.098914v22.07818h31.968406v1.998026zM162.752662 492.519252h-34.166235v-2.897136h34.166235v2.897136z m-33.167222-0.999012h32.168209v-0.899112h-32.168209v0.899112z" fill="#999999" p-id="11471"></path><path d="M156.259079 516.895162h-21.578674V497.01481h21.578674v19.880352z m-20.579661-0.999012h19.580648V498.013822h-19.580648v17.882328z" fill="#999999" p-id="11472"></path><path d="M145.070137 506.50543h-8.491608v-7.692398h8.491608v7.692398z m-7.592497-0.999013h6.493583v-5.694372h-6.493583v5.694372zM145.070137 515.096939h-8.491608v-7.792299h8.491608v7.792299z m-7.592497-0.999012h6.493583v-5.794274h-6.493583v5.794274zM154.360955 506.50543h-8.491608v-7.692398h8.491608v7.692398z m-7.492595-0.999013h6.493582v-5.694372h-6.493582v5.694372zM154.360955 515.096939h-8.491608v-7.792299h8.491608v7.792299z m-7.492595-0.999012h6.493582v-5.794274h-6.493582v5.794274zM191.424326 526.18598h-2.997038v-19.280945h-9.390719v15.184993h-2.997039v-14.18598c-1.798223 1.998025-3.796248 3.796248-5.894174 5.194866l-0.399606 0.299704-0.299703-0.399605c-0.499506-0.699309-0.899111-1.298717-1.198816-1.498519l-0.399605-0.399605 0.499507-0.299704c4.69536-3.296742 8.791312-8.191904 11.988152-14.285882h-11.089041v-2.997038h12.487659c0.899111-1.998025 1.698322-4.195853 2.297729-6.393681l0.099901-0.499506 3.09694 0.79921-0.199803 0.499506c-0.599408 1.998025-1.298717 3.796248-1.998025 5.594471h22.07818v2.997038h-23.376897c-1.398618 2.797236-2.897137 5.294767-4.495557 7.492595h9.290818v-6.193878h2.997038v6.193878h13.087066v14.485685c0 1.198815-0.199803 2.297729-1.798222 2.797235-1.198815 0.399605-3.396643 0.399605-7.392694 0.399605h-0.399605l-0.099902-0.399605c-0.099901-0.499506-0.399605-1.198815-0.699309-1.698322l-0.499506-0.79921h0.899112c3.096939 0.099901 5.694372 0 6.393681 0 0.399605 0 0.399605-0.099901 0.399605-0.099901v-11.78835h-9.990127v19.280945z m-1.998025-0.999012h0.999012v-19.280945h11.988153v12.487658c0 1.098914-0.699309 1.298717-1.398618 1.298717-0.599408 0-2.697334 0.099901-5.594471 0 0.099901 0.299704 0.199803 0.499506 0.299704 0.79921 3.496544 0 5.594471 0 6.693385-0.299704 0.699309-0.199803 1.098914-0.499506 1.098914-1.798223V505.006911h-13.087067v-6.193879h-0.999012v6.193879h-12.287857l0.599408-0.79921c1.798223-2.39763 3.496544-5.194866 5.094965-8.491608l0.099901-0.299704h23.077193v-0.999012H183.332323l0.299704-0.699309c0.79921-1.898124 1.498519-3.696347 2.197828-5.694373l-1.098914-0.299703c-0.699309 2.297729-1.398618 4.395656-2.397631 6.393681l-0.099901 0.299704h-12.088053v0.999012h11.688448l-0.399605 0.699309c-3.196841 6.393681-7.392694 11.588547-12.187955 14.985191 0.199803 0.299704 0.399605 0.599408 0.599408 0.79921 2.197828-1.59842 4.295755-3.496544 6.193878-5.694373l0.899112-0.999012v15.884302h0.999013v-15.184993H189.326399v19.280945zM212.603395 526.18598l-0.199802-0.399605c-0.299704-0.499506-0.899111-1.198815-1.398618-1.498519l-0.699309-0.499506 0.79921-0.399605c8.891213-3.796248 14.385783-10.689436 16.683512-21.179069h-16.283907v-2.997038H228.287894c0.599408-4.295755 0.699309-8.391707 0.699309-11.388745v-1.198815h3.09694v0.699308c0 3.096939-0.099901 7.392694-0.699309 11.888252h17.982228v2.997038h-16.483709c3.296742 10.189929 9.190917 17.582623 16.783413 20.879365l0.699309 0.299704-0.599408 0.499506c-0.399605 0.299704-0.899111 0.999013-1.398617 1.798223l-0.199803 0.399605-0.399605-0.199803c-7.792299-3.696347-13.786375-11.188942-17.382821-21.778476-2.597433 10.389732-8.391707 17.682525-17.482722 21.778476l-0.299704 0.299704z m-0.399605-2.097926c0.299704 0.299704 0.599408 0.599408 0.79921 0.899111 8.991114-4.195853 14.685487-11.78835 16.883315-22.677588l0.399605-1.898124 0.599407 1.898124c3.396643 10.98914 9.290818 18.781439 16.983216 22.677588 0.199803-0.399605 0.499506-0.79921 0.79921-1.098914-7.692398-3.596446-13.586573-11.388745-16.883314-21.878378l-0.199803-0.599408h16.783414v-0.999012h-18.182032l0.099902-0.599408c0.699309-4.495557 0.79921-8.791312 0.79921-11.988152h-1.098914v0.199802c0 3.096939-0.099901 7.392694-0.79921 11.888251l-0.099902 0.399605h-16.683511v0.999013h16.483709l-0.099901 0.599408c-2.097927 10.789337-7.592496 18.08213-16.583611 22.178082zM254.961533 517.594471l-0.399605-0.399605c-0.299704-0.299704-1.098914-0.79921-1.59842-1.198815l-0.499506-0.299704 0.399605-0.499506c4.795261-5.394669 6.893188-13.986178 7.692397-17.482723l0.099902-0.499506 3.19684 0.599408-0.099901 0.499506c-1.398618 5.794274-3.89615 13.686474-8.391707 18.781439l-0.399605 0.499506z m-0.999012-2.097927l0.899111 0.599408c3.996051-4.795261 6.393681-11.988152 7.692398-17.482722l-1.198815-0.199803c-0.79921 3.696347-2.997038 11.688449-7.392694 17.083117zM266.849784 526.086079h-2.497531l-0.099902-0.299704c-0.199803-0.499506-0.499506-1.498519-0.899111-2.097926l-0.399605-0.799211h0.899111c3.196841 0.099901 6.193879 0.099901 7.09299 0 0.599408 0 0.599408 0 0.599408-0.599407v-34.965445h3.096939v34.965445c0 1.998025-0.599408 2.997038-2.197828 3.496544-1.098914 0.199803-2.897137 0.299704-5.594471 0.299704z m-1.798223-0.999013c3.596446 0 5.894175 0 7.092991-0.299704 0.999013-0.299704 1.498519-0.79921 1.498519-2.497531v-33.966432h-1.098914v33.966432c0 1.098914-0.399605 1.59842-1.598421 1.59842h-6.29378c0.099901 0.399605 0.299704 0.79921 0.399605 1.198815zM290.226681 517.794274l-0.099901-0.599408c-0.999013-4.795261-4.495557-12.58756-8.291805-18.581636l-0.299704-0.499506 2.797236-1.198816 0.199802 0.399605c3.996051 6.193879 7.592496 13.986178 8.591509 18.781439l0.099901 0.399605-2.997038 1.298717z m-7.292792-19.181044c3.596446 5.794274 6.793286 13.087066 7.992101 17.782426l1.098914-0.499506c-1.098914-4.69536-4.395656-11.78835-8.191904-17.682525l-0.899111 0.399605zM304.712365 502.009873c-1.59842 0-3.196841-1.098914-3.19684-3.196841 0-4.195853 6.393681-4.195853 6.393681 0 0 2.097927-1.59842 3.196841-3.196841 3.196841z m0-5.49457c-1.098914 0-2.197828 0.699309-2.197827 2.197828 0 2.897137 4.395656 2.897137 4.395655 0 0-1.498519-1.098914-2.197828-2.197828-2.197828zM304.712365 523.089041c-1.59842 0-3.196841-1.098914-3.19684-3.196841 0-4.195853 6.393681-4.195853 6.393681 0 0 2.097927-1.59842 3.196841-3.196841 3.196841z m0-5.394669c-1.098914 0-2.197828 0.699309-2.197827 2.197828 0 2.897137 4.395656 2.897137 4.395655 0 0-1.498519-1.098914-2.197828-2.197828-2.197828zM335.681759 522.98914h-16.983216v-3.196841h6.993089v-24.176107h-5.394668V493.018759l0.399605-0.099901c2.297729-0.399605 4.195853-0.999013 5.694372-1.898125l0.099901-0.099901h2.597433v28.771566h6.493583v3.296742z m-15.984203-0.999013h14.98519v-1.198815H328.189164V492.019746h-1.398618c-1.498519 0.899111-3.296742 1.498519-5.49457 1.898124v0.699309h5.394669v26.174133h-6.993089v1.198815zM349.368233 523.588547c-6.193879 0-9.590522-5.894175-9.590522-16.58361 0-10.589535 3.396643-16.383808 9.590522-16.383809 6.193879 0 9.590522 5.794274 9.590522 16.383809 0 10.689436-3.396643 16.583611-9.590522 16.58361z m0-32.068307c-5.594471 0-8.591509 5.49457-8.591509 15.384795 0 10.090028 3.096939 15.584598 8.591509 15.584598s8.591509-5.594471 8.591509-15.584598c0-9.890226-2.997038-15.384795-8.591509-15.384795z" fill="#999999" p-id="11473"></path><path d="M349.368233 521.490621c-4.595458 0-7.192891-5.294767-7.192891-14.585586 0-9.091016 2.597433-14.385783 7.192891-14.385783 4.495557 0 7.09299 5.194866 7.09299 14.385783 0.099901 9.290818-2.497532 14.585585-7.09299 14.585586z m0-27.872455c-3.89615 0-6.193879 4.895162-6.193879 13.386771 0 8.591509 2.197828 13.586573 6.193879 13.586572 3.89615 0 6.093977-4.895162 6.093977-13.586572 0.099901-8.591509-2.197828-13.38677-6.093977-13.386771zM381.736244 522.98914H362.155595v-2.29773l0.199803-0.099901c9.990127-8.591509 14.485684-14.98519 14.485684-20.579661 0-1.898124-0.599408-6.393681-5.794274-6.393682-2.297729 0-4.595458 1.298717-6.493582 3.696347l-0.299704 0.399605-2.297729-2.197827 0.299704-0.399606c1.898124-2.197828 4.69536-4.595458 9.091015-4.595458 5.594471 0 9.091016 3.596446 9.091016 9.390719 0 5.794274-3.696347 11.78835-12.387758 20.080156 1.198815-0.099901 2.497532-0.199803 3.696347-0.199803h10.090028v3.196841z m-18.581636-0.999013h17.682525v-1.198815h-9.091016c-1.698322 0-3.496544 0.099901-5.094964 0.299704l-1.398618 0.099901 0.999012-0.999013c9.190917-8.591509 13.087066-14.585585 13.087067-20.279958 0-5.194866-3.096939-8.391707-8.092003-8.391706-2.997038 0-5.394669 1.198815-7.992102 3.896149l0.799211 0.79921c1.998025-2.39763 4.495557-3.596446 6.893187-3.596445 4.295755 0 6.793286 2.797236 6.793286 7.392694 0 5.894175-4.495557 12.487659-14.685486 21.27897v0.699309zM400.817387 522.98914h-3.396643v-8.791312h-13.686474V512l13.886276-20.879365h3.196841v20.080155h4.395656v3.096939h-4.395656v8.691411z m-2.397631-0.999013h1.398618v-8.791312h4.395656v-1.098914h-4.395656V492.019746H398.120052l-13.38677 20.180057v0.899111h13.686474v8.891213z" fill="#999999" p-id="11474"></path><path d="M398.419756 512.099901H386.1319l8.991114-13.087066c0.899111-1.298717 1.698322-2.797236 2.397631-4.195853l0.099901-0.299704h1.098914v0.499506c-0.099901 1.398618-0.299704 3.696347-0.299704 5.094965v11.988152z m-10.389732-0.999012h9.39072v-10.889239c0-0.899111 0.099901-2.097927 0.099901-3.296742-0.499506 0.899111-1.098914 1.798223-1.598421 2.697335l-7.8922 11.488646zM425.992507 522.98914h-3.996051l-3.996051-6.193879c-0.699309-1.198815-1.398618-2.39763-2.297729-3.696347-0.299704 0.499506-0.699309 1.098914-0.999013 1.698322-0.399605 0.699309-0.79921 1.298717-1.198815 1.998025l-3.796248 6.193879h-3.796249l7.992102-12.387758-7.292793-11.288843h3.89615l3.596446 5.794273c0.599408 0.999013 1.298717 2.097927 2.097926 3.196841l1.198815-2.097927 4.195854-6.993088h3.796248l-7.292793 11.488645 7.892201 12.287857z m-3.396644-0.999013h1.598421l-7.292793-11.089041 6.693385-10.589535H422.096357l-3.896149 6.493583c-0.499506 0.899111-0.999013 1.698322-1.598421 2.597433l-0.099901 0.199803h-0.699309l-0.099901-0.199803c-0.899111-1.298717-1.698322-2.597433-2.397631-3.796248l-3.296742-5.294768h-1.498519l6.693385 10.289831-7.292792 11.388745h1.398618l3.496544-5.794274c0.399605-0.699309 0.79921-1.298717 1.198815-1.998025 0.399605-0.699309 0.899111-1.498519 1.298717-2.197828l0.099901-0.199803h0.699309l0.099901 0.199803c0.999013 1.398618 1.898124 2.797236 2.597433 4.195853l3.796248 5.794274zM446.072662 522.98914h-16.983216v-3.196841h6.993089v-24.176107h-5.394669V493.018759l0.399605-0.099901c2.297729-0.399605 4.195853-0.999013 5.694373-1.898125l0.099901-0.099901h2.597433v28.771566h6.493582v3.296742z m-15.984203-0.999013h14.98519v-1.198815h-6.493582V492.019746h-1.398618c-1.498519 0.899111-3.296742 1.498519-5.49457 1.898124v0.699309h5.394668v26.174133h-6.993088v1.198815zM459.759136 523.588547c-6.193879 0-9.590522-5.894175-9.590522-16.58361 0-10.589535 3.396643-16.383808 9.590522-16.383809 6.193879 0 9.590522 5.794274 9.590522 16.383809 0 10.689436-3.396643 16.583611-9.590522 16.58361z m0-32.068307c-5.594471 0-8.591509 5.49457-8.59151 15.384795 0 10.090028 3.096939 15.584598 8.59151 15.584598s8.591509-5.594471 8.591509-15.584598c0-9.890226-3.096939-15.384795-8.591509-15.384795z" fill="#999999" p-id="11475"></path><path d="M459.759136 521.490621c-4.595458 0-7.192891-5.294767-7.192892-14.585586 0-9.091016 2.597433-14.385783 7.192892-14.385783 4.495557 0 7.09299 5.194866 7.09299 14.385783 0 9.290818-2.597433 14.585585-7.09299 14.585586z m0-27.872455c-3.89615 0-6.193879 4.895162-6.193879 13.386771 0 8.591509 2.197828 13.586573 6.193879 13.586572 3.89615 0 6.093977-4.895162 6.093977-13.586572 0-8.591509-2.197828-13.38677-6.093977-13.386771zM492.127147 522.98914h-19.580649v-2.29773l0.199803-0.099901c9.990127-8.591509 14.485684-14.98519 14.485684-20.579661 0-1.898124-0.599408-6.393681-5.794274-6.393682-3.096939 0-5.394669 2.297729-6.493582 3.696347l-0.299704 0.399605-2.297729-2.197827 0.299703-0.399606c1.898124-2.197828 4.69536-4.595458 9.091016-4.595458 5.594471 0 9.091016 3.596446 9.091015 9.390719 0 5.794274-3.696347 11.78835-12.387757 20.080156 1.198815-0.099901 2.497532-0.199803 3.696347-0.199803h10.090028v3.196841z m-18.681537-0.999013H491.028233v-1.198815h-9.091016c-1.698322 0-3.496544 0.099901-5.094964 0.299704l-1.398618 0.099901 0.999013-0.999013c9.190917-8.591509 13.087066-14.585585 13.087066-20.279958 0-5.194866-3.096939-8.391707-8.092003-8.391706-2.997038 0-5.394669 1.198815-7.992101 3.896149l0.79921 0.79921c1.998025-2.39763 4.495557-3.596446 6.893187-3.596445 4.295755 0 6.793286 2.797236 6.793287 7.392694 0 5.894175-4.495557 12.487659-14.685487 21.27897v0.699309zM511.208289 522.98914h-3.396643v-8.791312h-13.686474V512l13.886277-20.979267h3.19684v20.080156h4.395656v3.096939h-4.395656v8.791312z m-2.497531-0.999013h1.398617v-8.791312h4.395656v-1.098914h-4.395656V492.019746h-1.698321L495.024284 512.199803v0.899111h13.686474v8.891213z" fill="#999999" p-id="11476"></path><path d="M508.710758 512.099901h-12.287856l8.891213-13.087066c0.899111-1.298717 1.698322-2.797236 2.39763-4.195853l0.099901-0.299704h1.098914v0.499506c-0.099901 1.398618-0.299704 3.696347-0.299704 5.094965v11.988152z m-10.289831-0.999012h9.390719v-10.889239c0-0.899111 0.099901-2.097927 0.099902-3.296742-0.499506 0.899111-1.098914 1.798223-1.598421 2.697335l-7.8922 11.488646zM523.695948 533.079168h-3.496544v-33.766629h2.997038l0.299704 2.39763c1.998025-1.498519 4.495557-2.997038 7.192891-2.997038 5.994076 0 9.590522 4.495557 9.590522 12.088054 0 8.391707-5.294767 12.687461-10.489633 12.687461-1.898124 0-3.996051-0.79921-6.193879-2.297729V533.079168z m-2.497532-0.999013h1.498519l-0.099901-12.887264 0.79921 0.599408c2.297729 1.798223 4.395656 2.697334 6.393682 2.697334 4.69536 0 9.490621-3.996051 9.49062-11.688448 0-6.993089-3.096939-11.089041-8.591509-11.089041-2.697334 0-5.294767 1.698322-7.292793 3.296742l-0.099901 0.099901h-0.599408l-0.099901-0.399605-0.199802-2.297729h-1.098914v31.668702z" fill="#999999" p-id="11477"></path><path d="M529.590123 521.390719c-2.097927 0-4.595458-0.999013-6.693385-2.897136l-0.199803-0.199803v-13.486671l0.199803-0.099902c2.897137-2.597433 5.194866-3.696347 7.392694-3.696347 4.895162 0 7.392694 3.396643 7.392694 9.890226 0 6.193879-3.296742 10.489633-8.092003 10.489633z m-5.894175-3.496544c2.797236 2.297729 4.995063 2.497532 5.894175 2.497532 4.195853 0 7.09299-3.796248 7.09299-9.590522 0-5.894175-2.197828-8.891213-6.393681-8.891213-1.898124 0-3.89615 1.098914-6.593484 3.296742v12.687461zM561.358727 522.98914h-3.996051l-3.996051-6.193879c-0.699309-1.198815-1.398618-2.39763-2.297729-3.696347-0.299704 0.499506-0.699309 1.098914-0.999013 1.698322-0.399605 0.699309-0.79921 1.298717-1.198815 1.998025l-3.796248 6.193879h-3.796248l7.992101-12.387758-7.292793-11.288843h3.89615l3.596446 5.794273c0.599408 0.999013 1.298717 2.097927 2.097926 3.196841l1.198816-2.097927 4.195853-6.993088h3.796248l-7.292793 11.488645 7.892201 12.287857z m-3.396643-0.999013h1.59842l-7.292793-11.089041 6.693385-10.589535h-1.398618l-3.896149 6.493583c-0.499506 0.899111-0.999013 1.698322-1.59842 2.597433l-0.099902 0.199803h-0.699309l-0.099901-0.199803c-0.899111-1.298717-1.698322-2.597433-2.39763-3.796248l-3.296742-5.294768H543.975906l6.693385 10.289831-7.292793 11.388745h1.398618l3.496544-5.794274c0.399605-0.699309 0.79921-1.298717 1.198816-1.998025 0.399605-0.699309 0.899111-1.398618 1.298716-2.097927l0.099901-0.199802h0.699309l0.099902 0.199802c0.999013 1.398618 1.898124 2.797236 2.597433 4.195854l3.696347 5.694372zM640.180828 503.30859l-0.299704-0.299704c-0.399605-0.299704-1.198815-0.899111-1.698321-1.198815l-0.599408-0.299704 0.499507-0.499507c3.796248-3.396643 7.392694-8.69141 9.690423-14.285881l0.199802-0.399605 2.997038 0.899111-0.199802 0.499507c-0.499506 1.098914-1.098914 2.297729-1.698322 3.496544h26.973343v2.897137h-28.571763c-1.998025 3.396643-4.395656 6.393681-6.893188 8.891213l-0.399605 0.299704z m-0.999012-2.097927c0.299704 0.199803 0.699309 0.499506 0.899111 0.699309 2.39763-2.39763 4.595458-5.294767 6.493583-8.591509l0.099901-0.199803H674.846569v-0.899111h-27.672652l0.399605-0.699309c0.699309-1.198815 1.298717-2.39763 1.798223-3.596446l-0.999013-0.299704c-2.097927 5.194866-5.49457 10.289831-9.190916 13.586573z" fill="#999999" p-id="11478"></path><path d="M665.056244 526.086079c-1.198815 0-2.797236-0.099901-4.395655-0.199803h-0.399606v-0.399605c0-0.499506-0.199803-1.098914-0.499506-1.498519l-0.499506-0.79921 0.899111 0.099901c2.297729 0.199803 4.395656 0.199803 5.194866 0.199803 0.79921 0 0.999013-0.099901 1.198815-0.399605 0.199803-0.199803 0.499506-0.899111 0.799211-2.497532h-25.075219l0.099901-0.599407c0.299704-1.698322 0.999013-5.094965 1.598421-9.39072h-5.994077v-2.897137h6.393682c0.399605-2.997038 0.899111-6.29378 1.298716-9.290818l0.099901-0.399605H671.849531v1.598421l-0.099902 2.997038c-0.099901 1.898124-0.099901 3.596446-0.199802 5.094964h5.894175v2.897137h-5.994076c-0.099901 2.697334-0.299704 4.995063-0.499507 7.09299h5.294768v2.897137h-5.594472c-0.299704 1.998025-0.699309 3.296742-1.298716 4.095952-0.79921 0.899111-1.698322 1.298717-3.096939 1.398618h-1.198816z m-3.896149-1.098914c1.998025 0.099901 3.796248 0.199803 4.895162 0.099901 1.098914-0.099901 1.798223-0.399605 2.397631-1.098914 0.499506-0.599408 0.899111-1.998025 1.198815-3.99605l0.099901-0.399606h5.49457v-0.899111H669.851505l0.099902-0.599408c0.199803-2.297729 0.399605-4.995063 0.599407-8.092002v-0.499507h5.994076v-0.899111h-5.994076v-0.499507c0.099901-1.698322 0.199803-3.596446 0.199803-5.594471l0.099901-2.997038v-0.599407h-24.076206c-0.399605 2.997038-0.79921 6.29378-1.298716 9.290818l-0.099902 0.399605h-6.29378v0.899111h6.193879l-0.099901 0.599408c-0.599408 4.095952-1.298717 7.492595-1.598421 9.390719h25.075219l-0.099901 0.599408c-0.299704 1.698322-0.599408 2.797236-1.098914 3.496544-0.599408 0.699309-1.198815 0.79921-1.998026 0.79921-0.699309 0-2.497532 0-4.395655-0.199802 0 0.299704 0.099901 0.499506 0.099901 0.79921z" fill="#999999" p-id="11479"></path><path d="M668.65269 518.693385h-23.976305l0.399605-2.297729c0.299704-1.898124 0.699309-4.095952 0.999013-6.29378l0.099901-0.399605h23.276996v0.499506c-0.199803 3.396643-0.399605 6.093977-0.599407 8.191904l-0.199803 0.299704z m-22.777489-0.999013h21.978279c0.199803-1.798223 0.399605-4.195853 0.599408-7.09299h-21.278971c-0.299704 2.097927-0.699309 4.095952-0.999013 5.894175l-0.299703 1.198815zM669.351999 508.703258h-23.077193l0.199802-1.298716c0.399605-2.497532 0.699309-4.895162 0.999013-7.192892l0.099901-0.399605H669.851505v0.499506c-0.099901 2.597433-0.199803 5.094965-0.299704 7.892201l-0.199802 0.499506z m-21.878378-0.999013h20.979267c0.099901-2.497532 0.199803-4.69536 0.299703-6.893187h-20.379859c-0.299704 2.197828-0.599408 4.395656-0.899111 6.693385v0.199802z" fill="#999999" p-id="11480"></path><path d="M660.360885 518.693385l-0.399605-0.399605c-1.698322-1.798223-5.294767-4.295755-8.59151-5.894175l-0.599407-0.299704 1.898124-1.998025 0.299704 0.199802c3.396643 1.59842 7.09299 4.095952 8.891213 5.894175l0.299704 0.299704-1.798223 2.197828z m-7.892201-6.893188c2.897137 1.59842 6.093977 3.696347 7.892201 5.394669l0.599407-0.699309c-1.798223-1.59842-4.995063-3.696347-7.992101-5.194866l-0.499507 0.499506zM661.259996 508.203752l-0.399605-0.399605c-1.698322-1.59842-5.094965-3.696347-8.092003-4.995064l-0.699309-0.299704 1.998026-1.998025 0.299704 0.099901c3.096939 1.298717 6.593484 3.496544 8.291805 5.094965l0.399605 0.299704-1.798223 2.197828z m-7.392694-5.994076c2.697334 1.298717 5.594471 3.096939 7.292793 4.595458l0.599407-0.599408c-1.698322-1.398618-4.69536-3.196841-7.392693-4.395655l-0.499507 0.399605zM690.231364 526.086079h-2.997038v-20.579662c-1.59842 4.69536-3.396643 8.69141-5.194866 11.089041l-0.499506 0.699309-0.399605-0.699309c-0.299704-0.499506-0.79921-1.298717-1.198815-1.698321l-0.299704-0.299704 0.199802-0.299704c2.497532-3.396643 5.294767-10.189929 6.693385-16.283907h-5.994076v-2.997038h6.493583v-8.291805h2.997038v8.291805h5.094964v2.997038h-5.094964v0.999013c1.198815 1.59842 4.095952 5.894175 4.895162 7.09299l0.199802 0.299704-2.097926 2.497532-0.299704-0.699309c-0.399605-0.79921-1.298717-2.39763-2.697334-4.69536v22.577687z m-1.998025-0.999013h0.999013v-25.17512l0.899111 1.498519c1.59842 2.597433 2.697334 4.495557 3.296742 5.594472l0.599408-0.799211c-0.999013-1.498519-3.696347-5.49457-4.795261-6.893187l-0.099902-0.099901v-2.29773h5.094965v-0.999012h-5.094965v-8.291806h-0.999012v8.291806h-6.493583v0.999012h6.193879l-0.099901 0.599408c-1.398618 6.193879-4.195853 13.186968-6.793287 16.983216l0.599408 0.899111c1.898124-2.997038 3.996051-7.792299 5.594471-13.286869l0.999013-3.396643v26.373935z" fill="#999999" p-id="11481"></path><path d="M693.628007 511.400592l-0.199802-0.399605c-0.199803-0.499506-0.699309-1.298717-0.999013-1.498519l-0.699309-0.599407 0.899112-0.299704c4.395656-1.398618 8.491608-3.396643 11.988152-5.794274-1.998025-1.898124-3.496544-3.796248-4.69536-5.694372-1.098914 1.698322-2.39763 3.196841-3.596445 4.495557l-0.399605 0.399605-0.399605-0.499506c-0.299704-0.299704-0.899111-0.999013-1.398618-1.398618l-0.399605-0.399605 0.399605-0.399605c3.196841-3.096939 5.994076-7.592496 7.692398-12.387758l0.199802-0.399605 2.897137 0.79921-0.199803 0.499507c-0.499506 1.198815-0.899111 2.297729-1.398617 3.396643h11.788349l0.499507-0.099901 1.798223 1.198815-0.199803 0.399605c-1.698322 3.89615-4.395656 7.392694-7.8922 10.289831 3.096939 2.197828 6.693385 3.996051 10.689436 5.094964l0.79921 0.199803-0.499507 0.599408c-0.299704 0.399605-0.699309 1.098914-0.79921 1.59842l-0.099901 0.499506-0.499506-0.199802c-4.295755-1.398618-8.291805-3.496544-11.688449-6.093978-3.596446 2.697334-7.8922 4.895162-12.787362 6.493583l-0.799211 0.199802z m0-2.097926l0.599408 0.899111c4.69536-1.59842 8.891213-3.796248 12.387757-6.493582l0.299704-0.199803 0.299704 0.199803c3.196841 2.497532 6.993089 4.595458 11.188942 5.994076 0.099901-0.299704 0.299704-0.599408 0.399605-0.79921-3.996051-1.298717-7.692398-3.196841-10.789337-5.49457l-0.499506-0.399605 0.499506-0.399605c3.496544-2.797236 6.193879-6.193879 7.992102-9.990127l-0.699309-0.499507h-13.686474l0.399605-0.699309c0.599408-1.098914 1.098914-2.39763 1.59842-3.596445l-0.899111-0.199803c-1.698322 4.595458-4.395656 8.891213-7.392694 11.988153 0.199803 0.199803 0.499506 0.499506 0.699309 0.79921 1.198815-1.298717 2.39763-2.897137 3.596446-4.595459l0.499506-0.699309 0.399605 0.699309c1.198815 2.197828 3.096939 4.495557 5.394669 6.593484l0.499506 0.399605-0.499506 0.399605c-3.696347 2.497532-7.8922 4.595458-12.287857 6.093978z" fill="#999999" p-id="11482"></path><path d="M715.905991 526.086079h-2.997039V523.988152h-12.787362v2.097927h-2.997038V510.001975H715.806089v16.084104z m-1.998026-0.999013h0.999013V511.000987h-16.683512v14.086079h0.999013V522.98914h14.785387v2.097926z" fill="#999999" p-id="11483"></path><path d="M713.907965 522.090028h-14.785388v-10.289831h14.785388v10.289831z m-13.686474-0.999012h12.787363v-8.291806h-12.787363v8.291806zM706.715074 502.409478l-0.299704-0.299704c-2.597433-2.197828-4.595458-4.795261-5.994076-7.592496l-0.099902-0.199803 0.699309-1.198815h13.486672l-0.399605 0.699309c-1.59842 2.997038-3.996051 5.794274-7.09299 8.291805l-0.299704 0.299704z m-5.294768-7.992101c1.298717 2.497532 3.096939 4.69536 5.294768 6.793286 2.597433-2.097927 4.595458-4.495557 6.093977-6.993089h-11.288843l-0.099902 0.199803zM731.890194 502.009873c-1.59842 0-3.196841-1.098914-3.196841-3.196841 0-4.195853 6.393681-4.195853 6.393681 0 0 2.097927-1.59842 3.196841-3.19684 3.196841z m0-5.49457c-1.098914 0-2.197828 0.699309-2.197828 2.197828 0 2.897137 4.395656 2.897137 4.395656 0 0-1.498519-1.098914-2.197828-2.197828-2.197828zM731.890194 523.089041c-1.59842 0-3.196841-1.098914-3.196841-3.196841 0-4.195853 6.393681-4.195853 6.393681 0 0 2.097927-1.59842 3.196841-3.19684 3.196841z m0-5.394669c-1.098914 0-2.197828 0.699309-2.197828 2.197828 0 2.897137 4.395656 2.897137 4.395656 0 0-1.498519-1.098914-2.197828-2.197828-2.197828zM754.967387 523.588547c-6.493583 0-10.389732-5.894175-10.389732-15.684499 0-15.684499 8.092003-17.382821 11.588547-17.382821 2.797236 0 4.995063 0.999013 6.993089 3.096939l0.299704 0.299704-2.197828 2.397631-0.399605-0.399605c-1.198815-1.498519-2.897137-2.297729-4.69536-2.29773-4.895162 0-7.792299 4.395656-8.191904 12.487659 1.998025-1.998025 4.495557-3.196841 6.893188-3.196841 5.694372 0 8.891213 3.696347 8.891213 10.18993 0 5.894175-3.89615 10.489633-8.791312 10.489633z m1.198815-32.068307c-6.793286 0-10.589535 5.994076-10.589534 16.383808 0 9.190917 3.496544 14.685487 9.390719 14.685487 4.395656 0 7.8922-4.095952 7.8922-9.39072 0-5.994076-2.797236-9.190917-7.8922-9.190917-2.497532 0-5.094965 1.398618-7.09299 3.89615l-0.899112 1.098914v-1.398618c0.199803-12.887264 5.894175-14.885289 9.290818-14.885289 1.898124 0 3.696347 0.79921 5.094965 2.197828l0.79921-0.899112c-1.798223-1.698322-3.696347-2.497532-5.994076-2.497531z" fill="#999999" p-id="11484"></path><path d="M754.967387 521.490621c-4.795261 0-7.592496-4.095952-7.992102-11.588548v-0.199802l0.099902-0.099901c2.197828-2.897137 4.895162-4.595458 7.492595-4.595459 4.295755 0 6.793286 2.997038 6.793286 8.191904 0 4.69536-2.797236 8.291805-6.393681 8.291806z m-6.993089-11.488646c0.299704 4.795261 1.798223 10.489633 6.993089 10.489633 3.096939 0 5.394669-3.096939 5.394668-7.292793 0-3.296742-0.999013-7.192891-5.794273-7.192891-1.098914-0.099901-3.796248 0.299704-6.593484 3.996051zM782.540137 522.98914h-3.396643v-8.791312h-13.686474V512l0.099901-0.099901 13.786376-20.779464h3.19684v20.080155h4.395656v3.096939h-4.395656v8.691411z m-2.39763-0.999013h1.398618v-8.791312h4.395655v-1.098914h-4.395655V492.019746h-1.698322l-13.38677 20.180057v0.899111h13.686474v8.891213z" fill="#999999" p-id="11485"></path><path d="M780.142507 512.099901h-12.287856L776.745864 499.012835c0.899111-1.298717 1.698322-2.797236 2.39763-4.195853l0.099901-0.299704h1.098914v0.499506c-0.099901 1.398618-0.299704 3.696347-0.299703 5.094965v11.988152z m-10.389732-0.999012h9.390719v-10.889239c0-0.899111 0.099901-2.097927 0.099901-3.296742-0.499506 0.899111-1.098914 1.798223-1.59842 2.697335l-7.8922 11.488646zM807.715257 522.98914h-3.996051l-3.99605-6.193879c-0.699309-1.198815-1.398618-2.39763-2.29773-3.696347-0.299704 0.499506-0.699309 1.098914-0.999012 1.698322-0.399605 0.699309-0.79921 1.298717-1.198816 1.998025l-3.796248 6.193879h-3.796248l7.992102-12.387758-7.292793-11.288843h3.896149l3.596446 5.794273c0.599408 0.999013 1.298717 2.097927 2.097927 3.196841l1.198815-2.097927 4.195853-6.993088h3.796249l-7.292793 11.488645L807.715257 522.98914z m-3.396643-0.999013h1.59842l-7.292792-11.089041 6.693385-10.589535h-1.398618l-3.89615 6.493583c-0.499506 0.899111-0.999013 1.698322-1.59842 2.597433l-0.099901 0.199803h-0.699309l-0.099901-0.199803c-0.899111-1.298717-1.698322-2.597433-2.397631-3.796248l-3.296742-5.294768h-1.498519l6.693385 10.289831L789.733029 521.990127h1.398617l3.496545-5.794274c0.399605-0.699309 0.79921-1.298717 1.198815-1.998025 0.399605-0.699309 0.899111-1.398618 1.298717-2.097927l0.099901-0.199802h0.699309l0.099901 0.199802c0.999013 1.398618 1.898124 2.797236 2.597433 4.195854l3.696347 5.694372zM819.903212 523.588547c-6.493583 0-10.389732-5.894175-10.389732-15.684499 0-15.684499 8.092003-17.382821 11.588547-17.382821 2.797236 0 4.995063 0.999013 6.993089 3.096939l0.299704 0.299704-2.197828 2.397631-0.399605-0.399605c-1.198815-1.498519-2.897137-2.297729-4.69536-2.29773-4.895162 0-7.792299 4.395656-8.191904 12.487659 1.998025-1.998025 4.495557-3.196841 6.893188-3.196841 5.694372 0 8.891213 3.696347 8.891213 10.18993 0 5.894175-3.89615 10.489633-8.791312 10.489633z m1.098914-32.068307c-6.793286 0-10.589535 5.994076-10.589535 16.383808 0 9.190917 3.496544 14.685487 9.39072 14.685487 4.395656 0 7.8922-4.095952 7.8922-9.39072 0-5.994076-2.797236-9.190917-7.8922-9.190917-2.497532 0-5.094965 1.398618-7.09299 3.89615l-0.899112 1.098914v-1.398618c0.199803-12.887264 5.894175-14.885289 9.290818-14.885289 1.898124 0 3.696347 0.79921 5.094965 2.197828l0.79921-0.899112c-1.698322-1.698322-3.596446-2.497532-5.994076-2.497531z" fill="#999999" p-id="11486"></path><path d="M819.903212 521.490621c-4.795261 0-7.592496-4.095952-7.992102-11.588548v-0.199802l0.099902-0.099901c2.197828-2.897137 4.895162-4.595458 7.492595-4.595459 4.295755 0 6.793286 2.997038 6.793286 8.191904 0 4.69536-2.797236 8.291805-6.393681 8.291806z m-6.993089-11.488646c0.299704 4.795261 1.798223 10.489633 6.993089 10.489633 3.096939 0 5.394669-3.096939 5.394669-7.292793 0-3.296742-0.999013-7.192891-5.794274-7.192891-1.098914-0.099901-3.796248 0.299704-6.593484 3.996051zM847.475962 522.98914h-3.396643v-8.791312h-13.686474V512l0.099902-0.099901 13.786375-20.779464h3.19684v20.080155h4.395656v3.096939h-4.395656v8.691411z m-2.39763-0.999013h1.398618v-8.791312h4.395656v-1.098914h-4.395656V492.019746h-1.698322l-13.38677 20.180057v0.899111h13.686474v8.891213z" fill="#999999" p-id="11487"></path><path d="M845.078332 512.099901h-12.287856L841.681689 499.012835c0.899111-1.298717 1.698322-2.797236 2.39763-4.195853l0.099901-0.299704h1.098914v0.499506c-0.099901 1.398618-0.299704 3.696347-0.299703 5.094965v11.988152z m-10.389732-0.999012h9.390719v-10.889239c0-0.899111 0.099901-2.097927 0.099901-3.296742-0.499506 0.899111-1.098914 1.798223-1.59842 2.697335l-7.8922 11.488646zM860.063522 533.079168h-3.496544v-33.766629h2.997038l0.299704 2.39763c1.998025-1.498519 4.495557-2.997038 7.192891-2.997038 5.994076 0 9.590522 4.495557 9.590522 12.088054 0 8.391707-5.294767 12.687461-10.489633 12.687461-1.898124 0-3.996051-0.79921-6.193879-2.297729V533.079168z m-2.497531-0.999013h1.498519l-0.099902-12.887264 0.799211 0.599408c2.297729 1.798223 4.395656 2.697334 6.393681 2.697334 4.69536 0 9.490621-3.996051 9.49062-11.688448 0-6.993089-3.096939-11.089041-8.591509-11.089041-2.697334 0-5.294767 1.698322-7.292792 3.296742l-0.099902 0.099901h-0.599407l-0.099902-0.399605-0.299703-2.297729h-1.098914v31.668702z" fill="#999999" p-id="11488"></path><path d="M865.957697 521.390719c-2.097927 0-4.595458-0.999013-6.693385-2.897136l-0.199802-0.199803v-13.486671l0.199802-0.099902c2.897137-2.597433 5.194866-3.696347 7.392694-3.696347 4.895162 0 7.392694 3.396643 7.392694 9.890226-0.099901 6.193879-3.396643 10.489633-8.092003 10.489633z m-5.894175-3.496544c2.797236 2.297729 4.995063 2.497532 5.894175 2.497532 4.195853 0 7.09299-3.796248 7.09299-9.590522 0-5.894175-2.197828-8.891213-6.393681-8.891213-1.898124 0-3.89615 1.098914-6.593484 3.296742v12.687461zM897.726301 522.98914h-3.996051l-3.996051-6.193879c-0.699309-1.198815-1.398618-2.39763-2.297729-3.696347-0.299704 0.499506-0.699309 1.098914-0.999013 1.698322-0.399605 0.699309-0.79921 1.298717-1.198815 1.998025l-3.796248 6.193879H877.646146l7.992101-12.387758-7.292792-11.288843h3.896149l3.596446 5.794273c0.599408 0.999013 1.298717 2.097927 2.097927 3.196841l1.198815-2.097927 4.195853-6.993088h3.796248l-7.292792 11.488645 7.8922 12.287857z m-3.496545-0.999013h1.598421l-7.292793-11.089041 6.693385-10.589535h-1.398618l-3.896149 6.493583c-0.499506 0.899111-0.999013 1.698322-1.59842 2.597433l-0.099902 0.199803h-0.699309l-0.099901-0.199803c-0.899111-1.298717-1.698322-2.597433-2.39763-3.796248l-3.296742-5.294768h-1.498519l6.693385 10.289831L879.644171 521.990127h1.398618l3.496544-5.794274c0.399605-0.699309 0.79921-1.298717 1.198816-1.998025 0.399605-0.699309 0.899111-1.498519 1.298716-2.197828l0.099901-0.199803h0.699309l0.099902 0.199803c0.999013 1.398618 1.898124 2.797236 2.597433 4.195853l3.696346 5.794274z" fill="#999999" p-id="11489"></path><path d="M256.959559 667.945882l-20.180057-13.186968c0.299704-0.399605 28.371961-41.858632 40.060409-98.40275 15.384795-74.226643-3.496544-138.463159-56.044612-190.711524-32.567814-32.467913-51.848759-72.028815-57.343329-117.683695-4.295755-35.964457 0-75.725162 12.687462-117.983399C197.618205 58.747941 235.280983 5.100959 236.879404 2.80323l19.980253 13.486671-9.990127-6.793286 9.990127 6.693385c-0.399605 0.499506-37.363075 53.147475-57.643032 120.880536-26.473836 88.512525-13.486671 159.74213 38.861594 211.890592 32.26811 32.068307 53.347278 69.031777 62.638096 109.691594 7.392694 32.368011 7.292793 67.133653-0.299704 103.198011-12.687461 60.839873-42.158336 104.197024-43.457052 106.095149zM533.386371 667.945882l-20.180056-13.186968c0.299704-0.399605 28.371961-41.858632 40.060409-98.40275 15.384795-74.226643-3.496544-138.463159-56.044612-190.711524-32.567814-32.467913-51.848759-72.028815-57.343329-117.683695-4.295755-35.964457 0-75.725162 12.687461-117.983399C474.045017 58.648039 511.807697 5.001058 513.406117 2.80323l19.980254 13.486671-9.990127-6.793286 9.990127 6.693385c-0.399605 0.499506-37.363075 53.147475-57.643032 120.880536-26.473836 88.512525-13.486671 159.74213 38.861594 211.890592 32.26811 32.068307 53.347278 69.031777 62.638096 109.691594 7.392694 32.368011 7.292793 67.133653-0.299704 103.198011-12.787362 60.839873-42.258237 104.197024-43.556954 106.095149zM803.519404 667.945882l-20.180057-13.186968c0.299704-0.399605 28.371961-41.858632 40.060409-98.40275 15.384795-74.226643-3.496544-138.463159-56.044612-190.711524-32.567814-32.467913-51.848759-72.028815-57.343328-117.683695-4.295755-35.964457 0-75.725162 12.687461-117.983399 21.478773-71.229605 59.141552-124.876587 60.739972-127.174316l19.980254 13.486671-9.990127-6.793286 9.990127 6.693385c-0.399605 0.499506-37.363075 53.147475-57.643033 120.880536-26.473836 88.512525-13.486671 159.74213 38.861594 211.890592 32.26811 32.068307 53.347278 69.031777 62.638096 109.691594 7.392694 32.368011 7.292793 67.133653-0.299704 103.198011-12.787362 60.839873-42.258237 104.197024-43.457052 106.095149zM0.513 824.591072h1022.988999v23.676601H0.513zM0.513 999.618096h1022.988999v23.676601H0.513z" fill="#020202" p-id="11490"></path></svg>