<?xml version="1.0" standalone="no"?><!DOCTYPE svg PUBLIC "-//W3C//DTD SVG 1.1//EN" "http://www.w3.org/Graphics/SVG/1.1/DTD/svg11.dtd"><svg t="1578908265094" class="icon" viewBox="0 0 1024 1024" version="1.1" xmlns="http://www.w3.org/2000/svg" p-id="3764" xmlns:xlink="http://www.w3.org/1999/xlink" width="200" height="200"><defs><style type="text/css"></style></defs><path d="M248.1 856.8zM81.1 531.5v260.7l167 64.5v0.1l1.2-256zM505.7 180.7l153.4-65.9 35.1 12.5-155.7 66.9 205 84.4-35 14 1.7 0.6 34.4-14-1.3-0.5L921.2 208l-226.9-80.7 2-0.9-35.5-12.3-1.6 0.7L516.1 64l-156.8 56.3-1.3-0.5-35.5 13 0.9 0.4 36-12.9z" p-id="3765"></path><path d="M763.8 861.4l-26 10.1v-256l-213.1 85.8 0.4 252.3-13.1 5.1-13-5 0.3-249.8-224.7-92.6 0.2 255.8-26.7-10.3v0.4l26.7 10.6v-0.7L499 953.8v0.9l12.3 5.3 13.8-4.9v-1.3l212.7-82.2v1.2l26-9.8v-1.3L943 792.4V532.9l-179.9 72.4zM275.4 279.4l-1.3 0.6 34.4 13.4 1.4-0.6 202 77.9 196.6-78.1-202.8-84.3-195.9 84.4-34.5-13.4L473 194.7l-149.6-61.5-221.1 79.3z" p-id="3766"></path><path d="M524.6 674l213.1-85.8V351.9l-213.1 82.4zM746 348.6l-8.3 3.3 8.2-3.2 17.2-6.6v-0.1z" p-id="3767"></path><path d="M763.1 342.1V578L943 505.6V272.5zM512 439.2l12.6-4.9-12.6 4.9zM275.5 346.2L248.8 336v1.3L81.1 272.5v229.9l168.2 71-0.5-236 26.7 10.3-0.9 236.1 224.7 92.6V434.3l12.7 4.9-236.5-91.7z" p-id="3768"></path></svg>