<?xml version="1.0" standalone="no"?><!DOCTYPE svg PUBLIC "-//W3C//DTD SVG 1.1//EN" "http://www.w3.org/Graphics/SVG/1.1/DTD/svg11.dtd"><svg t="1575924332511" class="icon" viewBox="0 0 1024 1024" version="1.1" xmlns="http://www.w3.org/2000/svg" p-id="6830" xmlns:xlink="http://www.w3.org/1999/xlink" width="200" height="200"><defs><style type="text/css"></style></defs><path d="M512 896c212.064 0 384-171.936 384-384S724.064 128 512 128 128 299.936 128 512s171.936 384 384 384z m0 32C282.24 928 96 741.76 96 512S282.24 96 512 96s416 186.24 416 416-186.24 416-416 416z" fill="#666666" p-id="6831"></path><path d="M512 544a32 32 0 1 0 0-64 32 32 0 0 0 0 64z m0 32a64 64 0 1 1 0-128 64 64 0 0 1 0 128z" fill="#666666" p-id="6832"></path><path d="M582.976 338.336c5.44-20.736 7.328-34.304 7.424-40.128l0.64-5.792C599.008 253.92 573.76 224 533.12 224h-42.56c-40.064 0-65.056 29.824-57.92 69.056l0.544 5.28c0.064 5.632 1.856 18.976 7.296 39.584 8.352 31.84 22.56 68.64 43.936 110.08h54.88c21.12-41.056 35.264-77.728 43.68-109.664zM558.56 480h-93.376c-63.072-115.52-64-181.216-64-181.216C390.4 239.808 430.624 192 490.56 192h42.56c60.128 0 101.376 47.84 89.28 106.88 0 0-1.376 66.624-63.872 181.12zM440.96 685.664c-5.44 20.736-7.296 34.304-7.424 40.128l-0.64 5.792C424.96 770.08 450.24 800 490.816 800h42.56c40.064 0 65.088-29.824 57.92-69.056l-0.512-5.28c-0.064-5.632-1.888-18.976-7.296-39.584-8.384-31.84-22.592-68.64-43.968-110.08h-54.88c-21.12 41.056-35.232 77.728-43.648 109.664zM465.44 544h93.376c63.04 115.52 64 181.216 64 181.216 10.784 58.976-29.472 106.784-89.408 106.784h-42.56c-60.16 0-101.408-47.84-89.28-106.88 0 0 1.376-66.624 63.872-181.12z" fill="#666666" p-id="6833"></path><path d="M685.632 582.976c20.768 5.472 34.304 7.36 40.128 7.456l5.792 0.64c38.496 7.936 68.416-17.312 68.416-57.92v-42.56c0-40.064-29.824-65.088-69.024-57.92l-5.312 0.512c-5.632 0.096-18.976 1.888-39.584 7.296-31.84 8.384-68.64 22.592-110.08 43.968v54.88c41.056 21.12 77.728 35.264 109.664 43.648z m-141.664-24.416v-93.344c115.552-63.104 181.216-64 181.216-64 58.976-10.784 106.784 29.44 106.784 89.376v42.56c0 60.16-47.808 101.408-106.848 89.28 0 0-66.656-1.376-181.12-63.872zM338.336 441.024c-20.8-5.472-34.336-7.36-40.16-7.456l-5.76-0.64c-38.528-7.936-68.448 17.312-68.448 57.92v42.56c0 40.064 29.824 65.088 69.056 57.92l5.28-0.512c5.632-0.096 18.976-1.888 39.584-7.296 31.84-8.384 68.64-22.592 110.08-43.968v-54.88c-41.024-21.12-77.696-35.264-109.632-43.648z m141.632 24.416v93.344c-115.52 63.104-181.184 64-181.184 64-59.008 10.784-106.816-29.44-106.816-89.376v-42.56c0-60.16 47.84-101.408 106.88-89.28 0 0 66.624 1.376 181.12 63.872z" fill="#666666" p-id="6834"></path></svg>