<?xml version="1.0" standalone="no"?><!DOCTYPE svg PUBLIC "-//W3C//DTD SVG 1.1//EN" "http://www.w3.org/Graphics/SVG/1.1/DTD/svg11.dtd"><svg t="1579016867252" class="icon" viewBox="0 0 1393 1024" version="1.1" xmlns="http://www.w3.org/2000/svg" p-id="6804" xmlns:xlink="http://www.w3.org/1999/xlink" width="272.0703125" height="200"><defs><style type="text/css"></style></defs><path d="M148.092248 1023.847642c-46.164559 0-83.644696-36.261271-83.644696-80.902247V80.902247c0-44.640976 37.480137-80.902247 83.644696-80.902247h384.399941L649.503348 106.193721h501.411099c46.164559 0 83.644696 36.261271 83.644696 80.902247v756.001785c0 44.640976-37.480137 80.902247-83.644696 80.902247H148.092248zM1138.573427 196.389823H614.003868l-121.886624-106.498438H157.081387v841.779497h981.49204V196.389823z m-489.070079 127.066805c34.58533 0 62.619253 27.119774 62.619253 60.638596V505.372415h125.390864c34.58533 0 62.619253 27.119774 62.619253 60.638595 0 33.518822-28.033924 60.638595-62.619253 60.638596h-125.390864v121.277191c0 33.518822-28.033924 60.638595-62.619253 60.638595-34.58533 0-62.619253-27.119774-62.619253-60.638595v-121.277191h-125.390865c-34.58533 0-62.619253-27.119774-62.619253-60.638596 0-33.518822 28.033924-60.638595 62.619253-60.638595h125.390865v-121.277191c0-33.518822 28.033924-60.638595 62.619253-60.638596z m0 0" p-id="6805"></path></svg>