<?xml version="1.0" standalone="no"?><!DOCTYPE svg PUBLIC "-//W3C//DTD SVG 1.1//EN" "http://www.w3.org/Graphics/SVG/1.1/DTD/svg11.dtd"><svg t="1575977924527" class="icon" viewBox="0 0 1024 1024" version="1.1" xmlns="http://www.w3.org/2000/svg" p-id="1787" xmlns:xlink="http://www.w3.org/1999/xlink" width="200" height="200"><defs><style type="text/css"></style></defs><path d="M275.84 160H124.192l1.824 580.096a32 32 0 0 1-64 0L60.16 160a64 64 0 0 1 64-64h177.92l97.28 96h498.272a32 32 0 1 1 0 64h-524.48l-97.28-96zM127.52 735.616a32 32 0 0 1-63.04-10.944l54.624-314.144c8.8-50.592 55.68-90.528 106.656-90.528h668.864c55.36 0 93.92 46.72 84.384 101.472l-72.32 416C897.824 888.064 850.976 928 800 928H160a32 32 0 0 1 0-64h640c19.712 0 40.096-17.376 43.616-37.472l72.32-416C918.72 394.624 909.952 384 894.624 384H225.76c-19.68 0-40.096 17.376-43.584 37.472L127.52 735.616z" p-id="1788"></path></svg>