<?xml version="1.0" standalone="no"?><!DOCTYPE svg PUBLIC "-//W3C//DTD SVG 1.1//EN" "http://www.w3.org/Graphics/SVG/1.1/DTD/svg11.dtd"><svg t="1575907572689" class="icon" viewBox="0 0 1024 1024" version="1.1" xmlns="http://www.w3.org/2000/svg" p-id="5150" xmlns:xlink="http://www.w3.org/1999/xlink" width="200" height="200"><defs><style type="text/css"></style></defs><path d="M511.868761 45.580485a464.963907 464.963907 0 1 1-181.58374 36.647627 463.674622 463.674622 0 0 1 181.58374-36.647627m0-39.614121C232.333629 5.966364 5.716208 232.583784 5.716208 512.130326s226.606011 506.152553 506.152553 506.152553 506.163962-226.606011 506.163963-506.152553S791.415303 5.966364 511.868761 5.966364z" fill="#231815" p-id="5151"></path><path d="M511.868761 1023.999087A512.005676 512.005676 0 0 1 312.622964 40.491805 511.99769 511.99769 0 0 1 711.114558 983.768847a508.742531 508.742531 0 0 1-199.245797 40.23024z m0-1012.327925C235.916242 11.671162 11.409597 236.177807 11.409597 512.130326s224.506645 500.459164 500.459164 500.459164 500.459164-224.506645 500.459164-500.459164S787.82128 11.671162 511.868761 11.671162z m0 972.702394a472.357326 472.357326 0 0 1-183.808611-907.393859 472.379004 472.379004 0 0 1 367.617223 870.301258 469.310963 469.310963 0 0 1-183.808612 37.092601z m0-933.088272a460.947729 460.947729 0 0 0-179.358869 885.476023A460.963702 460.963702 0 0 0 691.239039 87.487936a457.935595 457.935595 0 0 0-179.370278-36.202652z" p-id="5152"></path><path d="M420.318153 727.828762a19.807061 19.807061 0 0 1-19.807061-19.784242V314.961076a19.807061 19.807061 0 1 1 39.614122 0v393.083444a19.807061 19.807061 0 0 1-19.807061 19.784242z" fill="#231815" p-id="5153"></path><path d="M420.318153 733.533561a25.534679 25.534679 0 0 1-25.51186-25.489041V314.961076a25.511859 25.511859 0 1 1 51.023719 0v393.083444a25.534679 25.534679 0 0 1-25.511859 25.489041z m0-432.686157a14.125081 14.125081 0 0 0-14.102262 14.113672v393.083444a14.102262 14.102262 0 1 0 28.204524 0V314.961076a14.125081 14.125081 0 0 0-14.102262-14.113672z" p-id="5154"></path><path d="M606.51137 727.828762a19.81847 19.81847 0 0 1-19.81847-19.784242V314.961076a19.81847 19.81847 0 1 1 39.625531 0v393.083444a19.807061 19.807061 0 0 1-19.807061 19.784242z" fill="#231815" p-id="5155"></path><path d="M606.51137 733.533561a25.546088 25.546088 0 0 1-25.523269-25.489041V314.961076a25.523269 25.523269 0 1 1 51.035129 0v393.083444a25.534679 25.534679 0 0 1-25.51186 25.489041z m0-432.686157a14.136491 14.136491 0 0 0-14.113672 14.113672v393.083444a14.113672 14.113672 0 0 0 28.193115 0V314.961076a14.125081 14.125081 0 0 0-14.079443-14.113672z" p-id="5156"></path></svg>