<?xml version="1.0" encoding="UTF-8" standalone="no"?>
<svg
   xmlns:dc="http://purl.org/dc/elements/1.1/"
   xmlns:cc="http://creativecommons.org/ns#"
   xmlns:rdf="http://www.w3.org/1999/02/22-rdf-syntax-ns#"
   xmlns:svg="http://www.w3.org/2000/svg"
   xmlns="http://www.w3.org/2000/svg"
   xmlns:sodipodi="http://sodipodi.sourceforge.net/DTD/sodipodi-0.dtd"
   xmlns:inkscape="http://www.inkscape.org/namespaces/inkscape"
   t="1579034475278"
   class="icon"
   viewBox="0 0 1024 1024"
   version="1.1"
   p-id="4914"
   width="200"
   height="200"
   id="svg10"
   sodipodi:docname="setup.svg"
   inkscape:version="0.92.4 (5da689c313, 2019-01-14)">
  <metadata
     id="metadata14">
    <rdf:RDF>
      <cc:Work
         rdf:about="">
        <dc:format>image/svg+xml</dc:format>
        <dc:type
           rdf:resource="http://purl.org/dc/dcmitype/StillImage" />
        <dc:title></dc:title>
      </cc:Work>
    </rdf:RDF>
  </metadata>
  <sodipodi:namedview
     pagecolor="#ffffff"
     bordercolor="#666666"
     borderopacity="1"
     objecttolerance="10"
     gridtolerance="10"
     guidetolerance="10"
     inkscape:pageopacity="0"
     inkscape:pageshadow="2"
     inkscape:window-width="1920"
     inkscape:window-height="1017"
     id="namedview12"
     showgrid="false"
     inkscape:zoom="2.36"
     inkscape:cx="46.961901"
     inkscape:cy="87.209015"
     inkscape:window-x="-8"
     inkscape:window-y="-8"
     inkscape:window-maximized="1"
     inkscape:current-layer="svg10" />
  <defs
     id="defs4">
    <style
       type="text/css"
       id="style2" />
  </defs>
  <path
     d="M162.130944 1023.998293a161.02078 161.02078 0 0 1-114.685706-47.444384A161.106111 161.106111 0 0 1 0.000853 861.868203c0-43.263135 16.895662-84.051652 47.444385-114.515043L471.372759 323.425638A278.778424 278.778424 0 0 1 703.389452 1.469411c38.740559-5.973214 66.132011 6.655867 76.201143 30.719385 7.935841 19.199616 1.962627 41.471171-16.042346 59.476144l-51.540302 51.454971a118.610961 118.610961 0 0 0-34.985967 84.47831 118.610961 118.610961 0 0 0 34.985967 84.478311c45.055099 45.055099 123.901522 44.969767 168.871289 0l51.540302-51.540303c24.404845-24.319514 58.110838-25.17283 76.883796-3.15727 12.629081 14.67704 17.32232 37.204589 13.226402 63.316067a276.815797 276.815797 0 0 1-78.249102 154.19425 277.49845 277.49845 0 0 1-197.372052 81.491703c-15.530356 0-30.97538-1.194643-46.249742-3.754592l-424.012853 423.927522c-30.292727 30.548722-71.593235 47.615048-114.600375 47.444384zM721.138431 42.769918a73.385199 73.385199 0 0 0-11.349107 0.938648 236.368606 236.368606 0 0 0-194.556109 282.447684l2.389286 11.349107L77.652634 777.560555c-22.527549 22.442218-34.985967 52.393619-34.985967 84.392979 0 31.914028 12.458417 61.950761 34.985967 84.478311 45.055099 44.969767 123.901522 44.969767 168.785957 0l440.140531-440.140531 11.263774 2.389286a238.245902 238.245902 0 0 0 216.230343-63.99872c35.412625-35.327293 58.708159-81.065045 66.217342-130.557389 2.474617-15.530356-0.341327-25.343493-3.413265-29.012753-5.119898-1.279974-9.215816 0.51199-14.335713 5.631887l-51.540303 51.454971c-61.097445 61.097445-168.017973 61.182776-229.200749 0a160.935448 160.935448 0 0 1-47.444385-114.600375c0-43.348466 16.895662-84.051652 47.444385-114.685706L733.340853 61.457544c6.229209-6.229209 7.423852-11.178443 6.741199-12.799744C739.228735 46.268515 733.255522 42.684586 721.309094 42.684586z"
     fill="#A0A7B1"
     p-id="4915"
     id="path6"
     style="fill:#000000;fill-opacity:1;opacity:1;stroke:#000000;stroke-opacity:1" />
  <path
     d="M180.733239 896.000853a51.198976 51.198976 0 0 1-37.887243-17.066325 62.633414 62.633414 0 0 1 0-82.771678 51.881629 51.881629 0 0 1 75.859817 0 62.548082 62.548082 0 0 1 0 82.771678 51.198976 51.198976 0 0 1-37.972574 17.066325z m0-95.230095a32.340687 32.340687 0 0 0-23.892856 10.666453 39.508543 39.508543 0 0 0 0 52.137624c12.799744 13.909055 34.985967 13.909055 47.785711 0a39.33788 39.33788 0 0 0 0-52.052292 32.340687 32.340687 0 0 0-23.892855-10.751785z m111.528436-383.736325L156.15773 268.386739l-66.302674-37.887242L0.000853 93.371573 85.673807 0.018773l125.608154 97.960707 34.729972 72.36122L382.286541 318.988394l-89.939535 98.13137z m-175.612488-220.155597l65.364026 38.484563 110.248462 120.317594 33.705992-36.692599-113.83239-125.608155-31.658033-66.132011L89.855056 56.678973l-37.887242 41.385839 64.681373 98.814024zM831.472224 1023.998293a102.397952 102.397952 0 0 1-75.945148-34.217982L566.005533 782.936448a47.017726 47.017726 0 0 1-12.287754-32.084692c0-12.117091 4.351913-23.722192 12.287754-32.255355l92.670147-101.117977a40.105865 40.105865 0 0 1 59.049486 0l189.521542 206.843863c20.223596 21.930228 31.572702 51.796297 31.402039 82.771678 0 31.316707-11.093111 60.585455-31.402039 82.686346a102.056626 102.056626 0 0 1-75.774484 34.217982zM689.480397 648.112478L594.079638 749.230455l189.606875 209.915802a65.108031 65.108031 0 0 0 95.48609 0 76.286474 76.286474 0 0 0 19.711606-52.052292 76.542469 76.542469 0 0 0-19.711606-52.052293L689.480397 648.112478z"
     fill="#A0A7B1"
     p-id="4916"
     id="path8"
     style="stroke:#000000;stroke-opacity:1;fill:#030303;fill-opacity:1" />
</svg>
