<?xml version="1.0" standalone="no"?><!DOCTYPE svg PUBLIC "-//W3C//DTD SVG 1.1//EN" "http://www.w3.org/Graphics/SVG/1.1/DTD/svg11.dtd"><svg t="1578918075421" class="icon" viewBox="0 0 1029 1024" version="1.1" xmlns="http://www.w3.org/2000/svg" p-id="7554" xmlns:xlink="http://www.w3.org/1999/xlink" width="200.9765625" height="200"><defs><style type="text/css"></style></defs><path d="M829.975971 387.672864zM513.462819 422.514984c29.707492 0 59.048224 0 87.288679 2.567314l4.767869-73.351832c-30.074251-2.200555-60.515261-2.934073-92.056548-2.934073h-20.905272v73.351831zM829.975971 388.039623a831.443007 831.443007 0 0 0-111.861543-23.839345l-11.369534 73.351831a861.884017 861.884017 0 0 1 103.426082 22.005549zM379.595727 355.398058z" p-id="7555"></path><path d="M1026.925638 539.144395V516.405328a513.462819 513.462819 0 0 0-1026.925638-5.868147v46.211654a513.462819 513.462819 0 0 0 1021.79101 3.667591 114.795616 114.795616 0 0 0 0-16.137403s5.134628-3.300832 5.134628-5.134628zM202.451054 205.393563a440.110988 440.110988 0 0 1 743.42081 229.591232l-5.868146-3.667592-36.675916 64.182853a142.669312 142.669312 0 0 1 38.876471 29.707491 42.910821 42.910821 0 0 1 8.43546 15.037126v10.269256a24.572863 24.572863 0 0 1-2.934073 6.601665 125.798391 125.798391 0 0 1-45.844895 36.675916 561.875028 561.875028 0 0 1-159.173473 51.346281 1238.91243 1238.91243 0 0 1-229.591232 20.538513 1072.403773 1072.403773 0 0 1-324.581854-44.744617 309.177969 309.177969 0 0 1-90.589511-44.377858 95.357381 95.357381 0 0 1-19.438236-20.171753 27.506937 27.506937 0 0 1-3.667591-9.902498v-33.741842-22.739068l19.804994 23.472586a282.77131 282.77131 0 0 1 85.454884-44.377858l-24.206105-68.950721a458.082186 458.082186 0 0 0-73.351831 33.741842 437.543674 437.543674 0 0 1 119.930244-228.490954z m623.490566 616.155383A440.110988 440.110988 0 0 1 101.592286 663.10899a655.031853 655.031853 0 0 0 168.342453 53.180078 1300.161209 1300.161209 0 0 0 243.52808 22.005549 1159.325693 1159.325693 0 0 0 347.68768-48.412208 616.155383 616.155383 0 0 0 63.449334-25.673141 443.41182 443.41182 0 0 1-100.492009 157.339678z" p-id="7556"></path><path d="M281.304273 443.053496a955.774361 955.774361 0 0 1 105.259878-15.037125l-6.968424-73.351831c-39.609989 3.667592-77.386182 9.168979-112.228302 15.770643z" p-id="7557"></path></svg>