<?xml version="1.0" standalone="no"?><!DOCTYPE svg PUBLIC "-//W3C//DTD SVG 1.1//EN" "http://www.w3.org/Graphics/SVG/1.1/DTD/svg11.dtd"><svg t="1575979238834" class="icon" viewBox="0 0 1024 1024" version="1.1" xmlns="http://www.w3.org/2000/svg" p-id="1780" xmlns:xlink="http://www.w3.org/1999/xlink" width="200" height="200"><defs><style type="text/css"></style></defs><path d="M652.8 505.6l-192-172.8c-12.8-6.4-19.2-6.4-32 0s-19.2 12.8-19.2 25.6v332.8c0 12.8 6.4 19.2 12.8 25.6 6.4 0 12.8 6.4 19.2 6.4 6.4 0 12.8 0 12.8-6.4l185.6-160c12.8-6.4 19.2-19.2 19.2-32 6.4-6.4 0-12.8-6.4-19.2zM512 44.8C256 44.8 44.8 256 44.8 512S256 979.2 512 979.2 979.2 768 979.2 512 768 44.8 512 44.8z m0 876.8C288 921.6 102.4 736 102.4 512c0-224 185.6-409.6 409.6-409.6 224 0 409.6 185.6 409.6 409.6 0 224-185.6 409.6-409.6 409.6z" p-id="1781"></path></svg>