<?xml version="1.0" standalone="no"?><!DOCTYPE svg PUBLIC "-//W3C//DTD SVG 1.1//EN" "http://www.w3.org/Graphics/SVG/1.1/DTD/svg11.dtd"><svg t="1575907529828" class="icon" viewBox="0 0 1024 1024" version="1.1" xmlns="http://www.w3.org/2000/svg" p-id="4251" xmlns:xlink="http://www.w3.org/1999/xlink" width="200" height="200"><defs><style type="text/css"></style></defs><path d="M741.052632 466.189474l-315.284211-183.242106c-16.168421-10.778947-35.031579-10.778947-51.2 0-16.168421 10.778947-26.947368 26.947368-26.947368 45.810527v363.789473c0 18.863158 10.778947 35.031579 26.947368 45.810527 8.084211 5.389474 16.168421 8.084211 26.947368 8.08421 8.084211 0 18.863158-2.694737 26.947369-8.08421l315.28421-183.242106c16.168421-10.778947 26.947368-26.947368 26.947369-45.810526s-13.473684-32.336842-29.642105-43.115789z m-18.863158 59.28421l-315.284211 183.242105c-5.389474 2.694737-13.473684 0-13.473684 0-2.694737 0-8.084211-5.389474-8.084211-13.473684V328.757895c0-8.084211 5.389474-10.778947 8.084211-13.473684 2.694737 0 5.389474-2.694737 8.08421-2.694737 2.694737 0 5.389474 0 8.084211 2.694737l315.284211 183.242105c5.389474 2.694737 8.084211 10.778947 8.08421 13.473684s-5.389474 8.084211-10.778947 13.473684z" fill="#101010" p-id="4252"></path><path d="M512 35.031579C247.915789 35.031579 35.031579 247.915789 35.031579 512S247.915789 988.968421 512 988.968421 988.968421 776.084211 988.968421 512 776.084211 35.031579 512 35.031579z m0 916.210526C269.473684 951.242105 72.757895 754.526316 72.757895 512S269.473684 72.757895 512 72.757895 951.242105 269.473684 951.242105 512 754.526316 951.242105 512 951.242105z" fill="#101010" p-id="4253"></path></svg>