<?xml version="1.0" standalone="no"?><!DOCTYPE svg PUBLIC "-//W3C//DTD SVG 1.1//EN" "http://www.w3.org/Graphics/SVG/1.1/DTD/svg11.dtd"><svg t="1576066148421" class="icon" viewBox="0 0 1024 1024" version="1.1" xmlns="http://www.w3.org/2000/svg" p-id="25158" xmlns:xlink="http://www.w3.org/1999/xlink" width="200" height="200"><defs><style type="text/css"></style></defs><path d="M554.9 231.9l-68.6 100.9h67.1v13.6h-89.6v-5.2L532 241h-62.8v-13.7H555l-0.1 4.6zM380.8 570.3l-38.7 75V689h-15.3v-43.3L289 570.3h17.4l25.4 52.5c0 0.1 1 2.6 2.8 7.6h0.2c0.6-2.1 1.6-4.6 3.1-7.5l26.6-52.6h16.3z" p-id="25159"></path><path d="M513.1 513.5l-0.2 416.7 363-209.3V305.2L513.1 513.5z m235.3 175.9l-26.6-44.8c-0.6-1-1.5-3.1-2.7-6.1h-0.4c-0.1 0.4-1 2.5-2.8 6.2l-27.4 44.7h-18.8l39.6-59.8-36.3-59.3h18.8l23.5 41.2c1.4 2.4 2.8 5.2 4.2 8.5h0.3c1.2-2.8 2.7-5.7 4.5-8.8l24.6-40.8h17.6l-37.2 59 37.8 60h-18.7z" p-id="25160"></path><path d="M513 78.3L135.5 296.2v435.9L513 950l377.5-217.9V296.2L513 78.3z m330.2 227.5L513 496.4 182.8 305.8 513 115.2l330.2 190.6z m-675.7 28.1l329.1 190v379.7l-329.1-190V333.9zM528.6 904V524.4L858.4 334v379.7L528.6 904z" p-id="25161"></path></svg>