<?xml version="1.0" encoding="UTF-8" standalone="no"?>
<!-- Created with Inkscape (http://www.inkscape.org/) -->

<svg
   xmlns:dc="http://purl.org/dc/elements/1.1/"
   xmlns:cc="http://creativecommons.org/ns#"
   xmlns:rdf="http://www.w3.org/1999/02/22-rdf-syntax-ns#"
   xmlns:svg="http://www.w3.org/2000/svg"
   xmlns="http://www.w3.org/2000/svg"
   xmlns:sodipodi="http://sodipodi.sourceforge.net/DTD/sodipodi-0.dtd"
   xmlns:inkscape="http://www.inkscape.org/namespaces/inkscape"
   width="100mm"
   height="100mm"
   viewBox="0 0 100 100"
   version="1.1"
   id="svg8"
   inkscape:version="0.92.4 (5da689c313, 2019-01-14)"
   sodipodi:docname="Xaxis2.svg">
  <defs
     id="defs2">
    <style
       id="style815"
       type="text/css" />
  </defs>
  <sodipodi:namedview
     id="base"
     pagecolor="#ffffff"
     bordercolor="#666666"
     borderopacity="1.0"
     inkscape:pageopacity="0.0"
     inkscape:pageshadow="2"
     inkscape:zoom="0.98994949"
     inkscape:cx="192.67923"
     inkscape:cy="71.690643"
     inkscape:document-units="mm"
     inkscape:current-layer="layer1"
     showgrid="false"
     inkscape:window-width="1920"
     inkscape:window-height="1017"
     inkscape:window-x="-8"
     inkscape:window-y="1072"
     inkscape:window-maximized="1" />
  <metadata
     id="metadata5">
    <rdf:RDF>
      <cc:Work
         rdf:about="">
        <dc:format>image/svg+xml</dc:format>
        <dc:type
           rdf:resource="http://purl.org/dc/dcmitype/StillImage" />
        <dc:title></dc:title>
      </cc:Work>
    </rdf:RDF>
  </metadata>
  <g
     inkscape:label="Layer 1"
     inkscape:groupmode="layer"
     id="layer1"
     transform="translate(0,-197)">
    <g
       id="g835"
       transform="matrix(0.12981964,0,0,0.11483752,-17.172566,187.96139)">
      <path
         id="path819"
         p-id="25159"
         d="m 554.9,231.9 -68.6,100.9 h 67.1 v 13.6 h -89.6 v -5.2 L 532,241 H 469.2 V 227.3 H 555 Z m -174.1,338.4 -38.7,75 V 689 H 326.8 V 645.7 L 289,570.3 h 17.4 l 25.4,52.5 c 0,0.1 1,2.6 2.8,7.6 h 0.2 c 0.6,-2.1 1.6,-4.6 3.1,-7.5 l 26.6,-52.6 z"
         inkscape:connector-curvature="0" />
      <path
         id="path821"
         p-id="25160"
         d="m 513.1,513.5 -0.2,416.7 363,-209.3 V 305.2 Z m 235.3,175.9 -26.6,-44.8 c -0.6,-1 -1.5,-3.1 -2.7,-6.1 h -0.4 c -0.1,0.4 -1,2.5 -2.8,6.2 l -27.4,44.7 H 669.7 L 709.3,629.6 673,570.3 h 18.8 l 23.5,41.2 c 1.4,2.4 2.8,5.2 4.2,8.5 h 0.3 c 1.2,-2.8 2.7,-5.7 4.5,-8.8 l 24.6,-40.8 h 17.6 l -37.2,59 37.8,60 z"
         inkscape:connector-curvature="0" />
      <path
         id="path823"
         p-id="25161"
         d="M 513,78.3 135.5,296.2 V 732.1 L 513,950 890.5,732.1 V 296.2 Z M 843.2,305.8 513,496.4 182.8,305.8 513,115.2 Z m -675.7,28.1 329.1,190 V 903.6 L 167.5,713.6 Z M 528.6,904 V 524.4 L 858.4,334 v 379.7 z"
         inkscape:connector-curvature="0" />
    </g>
  </g>
</svg>
