<?xml version="1.0" standalone="no"?><!DOCTYPE svg PUBLIC "-//W3C//DTD SVG 1.1//EN" "http://www.w3.org/Graphics/SVG/1.1/DTD/svg11.dtd"><svg t="1576066278907" class="icon" viewBox="0 0 1293 1024" version="1.1" xmlns="http://www.w3.org/2000/svg" p-id="2292" xmlns:xlink="http://www.w3.org/1999/xlink" width="252.5390625" height="200"><defs><style type="text/css"></style></defs><path d="M951.668 384V128c0-40.693-34.06-74.105-76.587-74.105H353.153c-42.527 0-76.587 33.412-76.587 74.105v256h-53.895V128c0-70.693 58.419-128 130.482-128h521.928c72.063 0 130.482 57.307 130.482 128v256h-53.895z m-414.17 161.887l-1.571-163.642 184.529 184.529-181.019 181.019-1.419-147.743C232.361 583.515 0 497.624 0 379.541c0-51.061 41.227-94.859 113.215-130.326 13.35-6.577 29.505-1.087 36.082 12.263s1.087 29.505-12.263 36.083c-55.534 27.361-83.14 56.688-83.14 81.98 0 75.539 208.596 150.276 483.603 166.346zM951.668 128c0-40.693-34.06-74.105-76.587-74.105H353.153c-42.527 0-76.587 33.412-76.587 74.105v256h-53.895V128c0-70.693 58.419-128 130.482-128h521.928c72.063 0 130.482 57.307 130.482 128v256h-53.895V128zM276.565 640v256c0 40.693 34.06 74.105 76.587 74.105H875.08c42.527 0 76.587-33.412 76.587-74.105V640h53.895v256c0 70.693-58.419 128-130.482 128H353.152c-72.063 0-130.482-57.307-130.482-128V640h53.895z m516.783-42.503c-14.84 1.124-27.782-9.995-28.906-24.835s9.995-27.782 24.835-28.906c262.403-19.874 450.301-94.385 450.301-164.215 0-31.025-41.373-67.382-120.732-98.448-13.859-5.425-20.695-21.058-15.27-34.916s21.058-20.696 34.916-15.271c97.987 38.358 154.98 88.442 154.98 148.635 0 112.974-209.167 195.918-500.125 217.956z" p-id="2293"></path></svg>