<?xml version="1.0" standalone="no"?><!DOCTYPE svg PUBLIC "-//W3C//DTD SVG 1.1//EN" "http://www.w3.org/Graphics/SVG/1.1/DTD/svg11.dtd"><svg t="1576066119923" class="icon" viewBox="0 0 1024 1024" version="1.1" xmlns="http://www.w3.org/2000/svg" p-id="24729" xmlns:xlink="http://www.w3.org/1999/xlink" width="200" height="200"><defs><style type="text/css"></style></defs><path d="M555.2 230.2L486.6 331h67.1v13.6h-89.6v-5.2l68.2-100.2h-62.8v-13.7h85.8l-0.1 4.7z" p-id="24730"></path><path d="M513.7 513.5L150.8 305.3v415.6l363.1 209.3-0.2-416.7z m-132.6 55.2l-39.2 75.2v43.8h-15.5v-43.4l-38.2-75.6h17.6l25.8 52.7c0.1 0.1 1 2.6 2.8 7.6h0.2c0.6-2.2 1.7-4.7 3.2-7.5l26.9-52.8h16.4z" p-id="24731"></path><path d="M767.4 687.6h-18.7l-26.6-44.8c-0.6-1-1.5-3.1-2.7-6.1h-0.4c-0.1 0.4-1 2.5-2.8 6.2l-27.4 44.7H670l39.6-59.8-36.4-59.3H692l23.5 41.2c1.4 2.4 2.8 5.2 4.2 8.5h0.3c1.2-2.8 2.7-5.7 4.5-8.8l24.6-40.8h17.6l-37.2 59 37.9 60z" p-id="24732"></path><path d="M513.3 76.5l-377.5 218v435.9l377.5 217.9 377.5-217.9V294.5l-377.5-218z m330.2 227.6L513.3 494.7 183.2 304.1l330.2-190.6 330.1 190.6z m-675.7 28.1l329.1 190v379.7l-329.1-190V332.2zM529 902.3V522.6l329.8-190.4v379.7L529 902.3z" p-id="24733"></path></svg>